<?xml version="1.0" standalone="no"?>
<!DOCTYPE svg PUBLIC "-//W3C//DTD SVG 1.1//EN" "http://www.w3.org/Graphics/SVG/1.1/DTD/svg11.dtd" >
<svg xmlns="http://www.w3.org/2000/svg">
<metadata>
This is a custom SVG webfont generated by Font Squirrel.
Copyright   : Copyright c 2006 by Department of Intellectual Property DIP Ministry of Commerce and Software Industry Promotion Agency Public Organization SIPA All rights reserved
Designer    : ekaluck peanpanawate
Foundry     : Ekaluck Peanpanawate
Foundry URL : wwwb513designyahoocom
</metadata>
<defs>
<font id="THKrubBold" horiz-adv-x="0" >
<font-face units-per-em="2048" ascent="1638" descent="-410" />
<missing-glyph horiz-adv-x="563" />
<glyph unicode="A&#x300;" horiz-adv-x="948" d="M41 0l354 993h160l352 -993h-147l-88 268h-396l-88 -268h-147zM309 379h332l-166 481zM246 1350h159l131 -215h-100z" />
<glyph unicode="A&#x301;" horiz-adv-x="948" d="M41 0l354 993h160l352 -993h-147l-88 268h-396l-88 -268h-147zM309 379h332l-166 481zM447 1135l133 215h162l-195 -215h-100z" />
<glyph unicode="A&#x303;" horiz-adv-x="948" d="M41 0l354 993h160l352 -993h-147l-88 268h-396l-88 -268h-147zM309 379h332l-166 481zM231 1130q2 29 12.5 59t29 56.5t42 43t54.5 16.5q29 0 56.5 -11.5t53 -24t50 -23.5t42.5 -11q33 0 49.5 23.5t20.5 52.5h78q-4 -31 -13.5 -61.5t-26 -55.5t-40 -40t-57.5 -15 q-25 0 -52.5 11t-55.5 23.5t-51.5 23.5t-39.5 11q-33 0 -50.5 -24.5t-21.5 -53.5h-80z" />
<glyph unicode="E&#x300;" horiz-adv-x="749" d="M123 0v995h586v-106h-443v-316h381v-106h-381v-361h436v-106h-579zM224 1350h159l131 -215h-100z" />
<glyph unicode="E&#x301;" horiz-adv-x="749" d="M123 0v995h586v-106h-443v-316h381v-106h-381v-361h436v-106h-579zM400 1135l133 215h162l-195 -215h-100z" />
<glyph unicode="I&#x300;" horiz-adv-x="565" d="M41 0v96h168v803h-162v96h477v-96h-174v-803h168v-96h-477zM76 1350h159l131 -215h-100z" />
<glyph unicode="I&#x301;" horiz-adv-x="565" d="M41 0v96h168v803h-162v96h477v-96h-174v-803h168v-96h-477zM232 1135l133 215h162l-195 -215h-100z" />
<glyph unicode="O&#x300;" horiz-adv-x="966" d="M82 485q0 256 91 386t310 130q109 0 185.5 -32.5t125 -97t70 -162t21.5 -224.5q0 -119 -21.5 -212t-70 -156.5t-125 -96t-185.5 -32.5q-217 0 -309 128.5t-92 368.5zM229 485q0 -104 12.5 -175.5t42 -118t79 -67t120.5 -20.5q72 0 120 20.5t78 67t43 118t13 175.5 q0 115 -13 192t-43 124t-78 67.5t-120 20.5t-121 -20.5t-78.5 -67.5t-42 -124t-12.5 -192zM293 1350h159l131 -215h-100z" />
<glyph unicode="O&#x301;" horiz-adv-x="966" d="M82 485q0 256 91 386t310 130q109 0 185.5 -32.5t125 -97t70 -162t21.5 -224.5q0 -119 -21.5 -212t-70 -156.5t-125 -96t-185.5 -32.5q-217 0 -309 128.5t-92 368.5zM229 485q0 -104 12.5 -175.5t42 -118t79 -67t120.5 -20.5q72 0 120 20.5t78 67t43 118t13 175.5 q0 115 -13 192t-43 124t-78 67.5t-120 20.5t-121 -20.5t-78.5 -67.5t-42 -124t-12.5 -192zM334 1135l133 215h162l-195 -215h-100z" />
<glyph unicode="O&#x303;" horiz-adv-x="966" d="M82 485q0 256 91 386t310 130q109 0 185.5 -32.5t125 -97t70 -162t21.5 -224.5q0 -119 -21.5 -212t-70 -156.5t-125 -96t-185.5 -32.5q-217 0 -309 128.5t-92 368.5zM229 485q0 -104 12.5 -175.5t42 -118t79 -67t120.5 -20.5q72 0 120 20.5t78 67t43 118t13 175.5 q0 115 -13 192t-43 124t-78 67.5t-120 20.5t-121 -20.5t-78.5 -67.5t-42 -124t-12.5 -192zM243 1130q2 29 12.5 59t29 56.5t42 43t54.5 16.5q29 0 56.5 -11.5t53 -24t50 -23.5t42.5 -11q33 0 49.5 23.5t20.5 52.5h78q-4 -31 -13.5 -61.5t-26 -55.5t-40 -40t-57.5 -15 q-25 0 -52.5 11t-55.5 23.5t-51.5 23.5t-39.5 11q-33 0 -50.5 -24.5t-21.5 -53.5h-80z" />
<glyph unicode="U&#x300;" horiz-adv-x="1007" d="M123 418v577h143v-577q0 -104 13.5 -166t41 -95.5t73.5 -44t110 -10.5q63 0 108 10.5t74 44t42 95t13 166.5v577h144v-577q0 -119 -18.5 -202t-62.5 -133t-118 -72.5t-182 -22.5q-109 0 -182.5 22.5t-117.5 72.5t-62.5 133t-18.5 202zM291 1350h159l131 -215h-100z" />
<glyph unicode="U&#x301;" horiz-adv-x="1007" d="M123 418v577h143v-577q0 -104 13.5 -166t41 -95.5t73.5 -44t110 -10.5q63 0 108 10.5t74 44t42 95t13 166.5v577h144v-577q0 -119 -18.5 -202t-62.5 -133t-118 -72.5t-182 -22.5q-109 0 -182.5 22.5t-117.5 72.5t-62.5 133t-18.5 202zM443 1135l133 215h162l-195 -215 h-100z" />
<glyph unicode="Y&#x301;" horiz-adv-x="866" d="M41 995h162l231 -471l230 471h161l-321 -606v-389h-144v389zM414 1135l133 215h162l-195 -215h-100z" />
<glyph unicode="a&#x300;" horiz-adv-x="778" d="M41 217q0 82 26.5 133t85 81t148.5 42t217 19v96q0 43 -15.5 71.5t-37 44t-46 21.5t-42.5 6q-78 0 -131 -38t-105 -99q-4 -6 -16 -2t-27.5 15t-31 25.5t-25.5 26.5q20 27 54 55.5t77 53.5t93 41t100 16q131 0 206.5 -55t75.5 -199v-327q0 -78 12.5 -135.5t30.5 -92.5 q-10 -6 -26.5 -11t-33 -8t-31.5 -5t-24 -2q-8 0 -17 3t-15 17q-4 10 -6 24.5t-7 28.5q-4 16 -6 35q-31 -31 -57.5 -52t-56 -34.5t-65.5 -20.5t-83 -7q-94 0 -157.5 65.5t-63.5 167.5zM168 199q0 -53 23.5 -86t87.5 -33q66 0 120 36t115 97v182q-129 -2 -198.5 -19.5 t-102.5 -44t-39 -61t-6 -71.5zM224 1114h159l131 -215h-100z" />
<glyph unicode="a&#x301;" horiz-adv-x="778" d="M41 217q0 82 26.5 133t85 81t148.5 42t217 19v96q0 43 -15.5 71.5t-37 44t-46 21.5t-42.5 6q-78 0 -131 -38t-105 -99q-4 -6 -16 -2t-27.5 15t-31 25.5t-25.5 26.5q20 27 54 55.5t77 53.5t93 41t100 16q131 0 206.5 -55t75.5 -199v-327q0 -78 12.5 -135.5t30.5 -92.5 q-10 -6 -26.5 -11t-33 -8t-31.5 -5t-24 -2q-8 0 -17 3t-15 17q-4 10 -6 24.5t-7 28.5q-4 16 -6 35q-31 -31 -57.5 -52t-56 -34.5t-65.5 -20.5t-83 -7q-94 0 -157.5 65.5t-63.5 167.5zM168 199q0 -53 23.5 -86t87.5 -33q66 0 120 36t115 97v182q-129 -2 -198.5 -19.5 t-102.5 -44t-39 -61t-6 -71.5zM359 899l133 215h162l-195 -215h-100z" />
<glyph unicode="a&#x303;" horiz-adv-x="778" d="M41 217q0 82 26.5 133t85 81t148.5 42t217 19v96q0 43 -15.5 71.5t-37 44t-46 21.5t-42.5 6q-78 0 -131 -38t-105 -99q-4 -6 -16 -2t-27.5 15t-31 25.5t-25.5 26.5q20 27 54 55.5t77 53.5t93 41t100 16q131 0 206.5 -55t75.5 -199v-327q0 -78 12.5 -135.5t30.5 -92.5 q-10 -6 -26.5 -11t-33 -8t-31.5 -5t-24 -2q-8 0 -17 3t-15 17q-4 10 -6 24.5t-7 28.5q-4 16 -6 35q-31 -31 -57.5 -52t-56 -34.5t-65.5 -20.5t-83 -7q-94 0 -157.5 65.5t-63.5 167.5zM168 199q0 -53 23.5 -86t87.5 -33q66 0 120 36t115 97v182q-129 -2 -198.5 -19.5 t-102.5 -44t-39 -61t-6 -71.5zM110 915q2 29 12.5 59t29 56.5t42 43t54.5 16.5q29 0 56.5 -11.5t53 -24t50 -23.5t42.5 -11q33 0 49.5 23.5t20.5 52.5h78q-4 -31 -13.5 -61.5t-26 -55.5t-40 -40t-57.5 -15q-25 0 -52.5 11t-55.5 23.5t-51.5 23.5t-39.5 11q-33 0 -50.5 -24.5 t-21.5 -53.5h-80z" />
<glyph unicode="e&#x300;" horiz-adv-x="786" d="M57 401v5q0 219 88 319t244 100q104 0 169 -35.5t98.5 -97t45 -144.5t11.5 -177h-523q0 -82 17.5 -136.5t46.5 -86t64.5 -45t70.5 -13.5q86 0 140.5 27.5t99.5 93.5q4 6 16 2t27.5 -14.5t31 -24.5t25.5 -27q-55 -72 -141 -118.5t-187 -46.5q-166 0 -255 104t-89 315z M190 467h398q0 135 -45 199.5t-152 64.5q-92 0 -146.5 -61.5t-54.5 -202.5zM203 1114h159l131 -215h-100z" />
<glyph unicode="e&#x301;" horiz-adv-x="786" d="M57 401v5q0 219 88 319t244 100q104 0 169 -35.5t98.5 -97t45 -144.5t11.5 -177h-523q0 -82 17.5 -136.5t46.5 -86t64.5 -45t70.5 -13.5q86 0 140.5 27.5t99.5 93.5q4 6 16 2t27.5 -14.5t31 -24.5t25.5 -27q-55 -72 -141 -118.5t-187 -46.5q-166 0 -255 104t-89 315z M190 467h398q0 135 -45 199.5t-152 64.5q-92 0 -146.5 -61.5t-54.5 -202.5zM359 899l133 215h162l-195 -215h-100z" />
<glyph unicode="i&#x300;" horiz-adv-x="346" d="M106 0v809h134v-809h-134zM-20 1114h159l131 -215h-100z" />
<glyph unicode="i&#x301;" horiz-adv-x="346" d="M106 0v809h134v-809h-134zM74 899l133 215h162l-195 -215h-100z" />
<glyph unicode="o&#x300;" horiz-adv-x="798" d="M57 406q0 98 18.5 175.5t58.5 132t105.5 83t159.5 28.5q96 0 161 -28.5t106 -83t58 -132t17 -175.5t-17 -176t-58 -133.5t-105.5 -84t-161.5 -28.5q-94 0 -159.5 28.5t-105.5 84t-58.5 133.5t-18.5 176zM190 406q0 -166 45.5 -246t163.5 -80q119 0 164 80t45 246 t-45 245.5t-164 79.5t-164 -79.5t-45 -245.5zM254 1114h159l131 -215h-100z" />
<glyph unicode="o&#x301;" horiz-adv-x="798" d="M57 406q0 98 18.5 175.5t58.5 132t105.5 83t159.5 28.5q96 0 161 -28.5t106 -83t58 -132t17 -175.5t-17 -176t-58 -133.5t-105.5 -84t-161.5 -28.5q-94 0 -159.5 28.5t-105.5 84t-58.5 133.5t-18.5 176zM190 406q0 -166 45.5 -246t163.5 -80q119 0 164 80t45 246 t-45 245.5t-164 79.5t-164 -79.5t-45 -245.5zM348 899l133 215h162l-195 -215h-100z" />
<glyph unicode="o&#x303;" horiz-adv-x="798" d="M57 406q0 98 18.5 175.5t58.5 132t105.5 83t159.5 28.5q96 0 161 -28.5t106 -83t58 -132t17 -175.5t-17 -176t-58 -133.5t-105.5 -84t-161.5 -28.5q-94 0 -159.5 28.5t-105.5 84t-58.5 133.5t-18.5 176zM190 406q0 -166 45.5 -246t163.5 -80q119 0 164 80t45 246 t-45 245.5t-164 79.5t-164 -79.5t-45 -245.5zM202 915q2 29 12.5 59t29 56.5t42 43t54.5 16.5q29 0 56.5 -11.5t53 -24t50 -23.5t42.5 -11q33 0 49.5 23.5t20.5 52.5h78q-4 -31 -13.5 -61.5t-26 -55.5t-40 -40t-57.5 -15q-25 0 -52.5 11t-55.5 23.5t-51.5 23.5t-39.5 11 q-33 0 -50.5 -24.5t-21.5 -53.5h-80z" />
<glyph unicode="u&#x300;" horiz-adv-x="866" d="M129 256v553h133v-543q0 -100 40 -143t104 -43q47 0 118.5 40t118.5 116v573h135v-600q0 -55 10.5 -113.5t16.5 -79.5q-16 -8 -51 -12t-52 -4q-8 0 -19 3t-17 13q-4 8 -6.5 22.5t-4.5 31.5q-2 18 -2 39q-20 -31 -53 -53.5t-69.5 -39t-73.5 -24.5t-68 -8 q-129 0 -194.5 70.5t-65.5 201.5zM207 1114h159l131 -215h-100z" />
<glyph unicode="u&#x301;" horiz-adv-x="866" d="M129 256v553h133v-543q0 -100 40 -143t104 -43q47 0 118.5 40t118.5 116v573h135v-600q0 -55 10.5 -113.5t16.5 -79.5q-16 -8 -51 -12t-52 -4q-8 0 -19 3t-17 13q-4 8 -6.5 22.5t-4.5 31.5q-2 18 -2 39q-20 -31 -53 -53.5t-69.5 -39t-73.5 -24.5t-68 -8 q-129 0 -194.5 70.5t-65.5 201.5zM398 899l133 215h162l-195 -215h-100z" />
<glyph unicode="y&#x301;" horiz-adv-x="731" d="M-19 -196q1 22 6 36.5t13 9.5q49 -23 98 -22q25 0 52.5 5t55 24.5t52.5 56.5t41 98l-279 797h142l203 -616h2l204 616h144l-303 -868q-41 -117 -125 -172.5t-195 -55.5q-49 0 -100 15q-6 12 -9 33q-2 16 -3 33q1 5 1 10zM301 899l133 215h162l-195 -215h-100z" />
<glyph unicode="I&#x303;" horiz-adv-x="565" d="M41 0v96h168v803h-162v96h477v-96h-174v-803h168v-96h-477zM37 1110q2 29 12.5 59t29 56.5t42 43t54.5 16.5q29 0 56.5 -11.5t53 -24t50 -23.5t42.5 -11q33 0 49.5 23.5t20.5 52.5h78q-4 -31 -13.5 -61.5t-26 -55.5t-40 -40t-57.5 -15q-25 0 -52.5 11t-55.5 23.5 t-51.5 23.5t-39.5 11q-33 0 -50.5 -24.5t-21.5 -53.5h-80z" />
<glyph unicode="i&#x303;" horiz-adv-x="346" d="M106 0v809h134v-809h-134zM-72 915q2 29 12.5 59t29 56.5t42 43t54.5 16.5q29 0 56.5 -11.5t53 -24t50 -23.5t42.5 -11q33 0 49.5 23.5t20.5 52.5h78q-4 -31 -13.5 -61.5t-26 -55.5t-40 -40t-57.5 -15q-25 0 -52.5 11t-55.5 23.5t-51.5 23.5t-39.5 11q-33 0 -50.5 -24.5 t-21.5 -53.5h-80z" />
<glyph unicode="U&#x303;" horiz-adv-x="1007" d="M123 418v577h143v-577q0 -104 13.5 -166t41 -95.5t73.5 -44t110 -10.5q63 0 108 10.5t74 44t42 95t13 166.5v577h144v-577q0 -119 -18.5 -202t-62.5 -133t-118 -72.5t-182 -22.5q-109 0 -182.5 22.5t-117.5 72.5t-62.5 133t-18.5 202zM274 1103q2 29 12.5 59t29 56.5 t42 43t54.5 16.5q29 0 56.5 -11.5t53 -24t50 -23.5t42.5 -11q33 0 49.5 23.5t20.5 52.5h78q-4 -31 -13.5 -61.5t-26 -55.5t-40 -40t-57.5 -15q-25 0 -52.5 11t-55.5 23.5t-51.5 23.5t-39.5 11q-33 0 -50.5 -24.5t-21.5 -53.5h-80z" />
<glyph unicode="u&#x303;" horiz-adv-x="866" d="M129 256v553h133v-543q0 -100 40 -143t104 -43q47 0 118.5 40t118.5 116v573h135v-600q0 -55 10.5 -113.5t16.5 -79.5q-16 -8 -51 -12t-52 -4q-8 0 -19 3t-17 13q-4 8 -6.5 22.5t-4.5 31.5q-2 18 -2 39q-20 -31 -53 -53.5t-69.5 -39t-73.5 -24.5t-68 -8 q-129 0 -194.5 70.5t-65.5 201.5zM204 915q2 29 12.5 59t29 56.5t42 43t54.5 16.5q29 0 56.5 -11.5t53 -24t50 -23.5t42.5 -11q33 0 49.5 23.5t20.5 52.5h78q-4 -31 -13.5 -61.5t-26 -55.5t-40 -40t-57.5 -15q-25 0 -52.5 11t-55.5 23.5t-51.5 23.5t-39.5 11 q-33 0 -50.5 -24.5t-21.5 -53.5h-80z" />
<glyph unicode="&#xe2f;&#xe2f;" horiz-adv-x="890" d="M33 694q0 70 41 101.5t86 31.5q47 0 77.5 -29.5t30.5 -88.5l-32 -60h-33v60q0 29 -13.5 40t-29.5 11q-49 0 -49 -55q0 -51 32.5 -74t73.5 -23q31 0 65.5 9.5t64.5 33t52.5 64.5t30.5 104h105q25 0 20.5 -13t-4.5 -46v-760h-127v637q-29 -45 -82 -81t-137 -36 q-76 0 -124 51t-48 123zM666 819h114q25 0 21 -13t-4 -46v-760h-127z" />
<glyph unicode="A&#x323;" horiz-adv-x="948" d="M41 0l354 993h160l352 -993h-147l-88 268h-396l-88 -268h-147zM309 379h332l-166 481zM403 -100h133v-142h-133v142z" />
<glyph unicode="a&#x323;" horiz-adv-x="778" d="M41 217q0 82 26.5 133t85 81t148.5 42t217 19v96q0 43 -15.5 71.5t-37 44t-46 21.5t-42.5 6q-78 0 -131 -38t-105 -99q-4 -6 -16 -2t-27.5 15t-31 25.5t-25.5 26.5q20 27 54 55.5t77 53.5t93 41t100 16q131 0 206.5 -55t75.5 -199v-327q0 -78 12.5 -135.5t30.5 -92.5 q-10 -6 -26.5 -11t-33 -8t-31.5 -5t-24 -2q-8 0 -17 3t-15 17q-4 10 -6 24.5t-7 28.5q-4 16 -6 35q-31 -31 -57.5 -52t-56 -34.5t-65.5 -20.5t-83 -7q-94 0 -157.5 65.5t-63.5 167.5zM168 199q0 -53 23.5 -86t87.5 -33q66 0 120 36t115 97v182q-129 -2 -198.5 -19.5 t-102.5 -44t-39 -61t-6 -71.5zM287 -100h133v-142h-133v142z" />
<glyph unicode="A&#x309;" horiz-adv-x="948" d="M41 0l354 993h160l352 -993h-147l-88 268h-396l-88 -268h-147zM309 379h332l-166 481zM340 1393q23 41 63 65.5t83 24.5q63 0 100 -41t37 -96q0 -35 -16.5 -67t-37 -56.5t-41 -43t-30.5 -24.5l-80 62q51 35 79 60.5t28 64.5q0 29 -14.5 41t-30.5 12q-35 0 -74 -58z" />
<glyph unicode="a&#x309;" horiz-adv-x="778" d="M41 217q0 82 26.5 133t85 81t148.5 42t217 19v96q0 43 -15.5 71.5t-37 44t-46 21.5t-42.5 6q-78 0 -131 -38t-105 -99q-4 -6 -16 -2t-27.5 15t-31 25.5t-25.5 26.5q20 27 54 55.5t77 53.5t93 41t100 16q131 0 206.5 -55t75.5 -199v-327q0 -78 12.5 -135.5t30.5 -92.5 q-10 -6 -26.5 -11t-33 -8t-31.5 -5t-24 -2q-8 0 -17 3t-15 17q-4 10 -6 24.5t-7 28.5q-4 16 -6 35q-31 -31 -57.5 -52t-56 -34.5t-65.5 -20.5t-83 -7q-94 0 -157.5 65.5t-63.5 167.5zM168 199q0 -53 23.5 -86t87.5 -33q66 0 120 36t115 97v182q-129 -2 -198.5 -19.5 t-102.5 -44t-39 -61t-6 -71.5zM280 1098q23 41 63 65.5t83 24.5q63 0 100 -41t37 -96q0 -35 -16.5 -67t-37 -56.5t-41 -43t-30.5 -24.5l-80 62q51 35 79 60.5t28 64.5q0 29 -14.5 41t-30.5 12q-35 0 -74 -58z" />
<glyph unicode="&#xc2;&#x301;" horiz-adv-x="948" d="M41 0l354 993h160l352 -993h-147l-88 268h-396l-88 -268h-147zM309 379h332l-166 481zM242 1106l180 215h104l178 -215h-124l-105 137l-108 -137h-125zM606 1239l133 215h162l-195 -215h-100z" />
<glyph unicode="&#xe2;&#x301;" horiz-adv-x="778" d="M41 217q0 82 26.5 133t85 81t148.5 42t217 19v96q0 43 -15.5 71.5t-37 44t-46 21.5t-42.5 6q-78 0 -131 -38t-105 -99q-4 -6 -16 -2t-27.5 15t-31 25.5t-25.5 26.5q20 27 54 55.5t77 53.5t93 41t100 16q131 0 206.5 -55t75.5 -199v-327q0 -78 12.5 -135.5t30.5 -92.5 q-10 -6 -26.5 -11t-33 -8t-31.5 -5t-24 -2q-8 0 -17 3t-15 17q-4 10 -6 24.5t-7 28.5q-4 16 -6 35q-31 -31 -57.5 -52t-56 -34.5t-65.5 -20.5t-83 -7q-94 0 -157.5 65.5t-63.5 167.5zM168 199q0 -53 23.5 -86t87.5 -33q66 0 120 36t115 97v182q-129 -2 -198.5 -19.5 t-102.5 -44t-39 -61t-6 -71.5zM152 917l180 215h104l178 -215h-124l-105 137l-108 -137h-125zM504 1104l133 215h162l-195 -215h-100z" />
<glyph unicode="&#xc2;&#x300;" horiz-adv-x="948" d="M41 0l354 993h160l352 -993h-147l-88 268h-396l-88 -268h-147zM309 379h332l-166 481zM244 1108l180 215h104l178 -215h-124l-105 137l-108 -137h-125zM558 1474h159l131 -215h-100z" />
<glyph unicode="&#xe2;&#x300;" horiz-adv-x="778" d="M41 217q0 82 26.5 133t85 81t148.5 42t217 19v96q0 43 -15.5 71.5t-37 44t-46 21.5t-42.5 6q-78 0 -131 -38t-105 -99q-4 -6 -16 -2t-27.5 15t-31 25.5t-25.5 26.5q20 27 54 55.5t77 53.5t93 41t100 16q131 0 206.5 -55t75.5 -199v-327q0 -78 12.5 -135.5t30.5 -92.5 q-10 -6 -26.5 -11t-33 -8t-31.5 -5t-24 -2q-8 0 -17 3t-15 17q-4 10 -6 24.5t-7 28.5q-4 16 -6 35q-31 -31 -57.5 -52t-56 -34.5t-65.5 -20.5t-83 -7q-94 0 -157.5 65.5t-63.5 167.5zM168 199q0 -53 23.5 -86t87.5 -33q66 0 120 36t115 97v182q-129 -2 -198.5 -19.5 t-102.5 -44t-39 -61t-6 -71.5zM138 913l180 215h104l178 -215h-124l-105 137l-108 -137h-125zM451 1278h159l131 -215h-100z" />
<glyph unicode="&#xc2;&#x309;" horiz-adv-x="948" d="M41 0l354 993h160l352 -993h-147l-88 268h-396l-88 -268h-147zM309 379h332l-166 481zM242 1106l180 215h104l178 -215h-124l-105 137l-108 -137h-125zM520 1528q23 41 63 65.5t83 24.5q63 0 100 -41t37 -96q0 -35 -16.5 -67t-37 -56.5t-41 -43t-30.5 -24.5l-80 62 q51 35 79 60.5t28 64.5q0 29 -14.5 41t-30.5 12q-35 0 -74 -58z" />
<glyph unicode="&#xe2;&#x309;" horiz-adv-x="778" d="M41 217q0 82 26.5 133t85 81t148.5 42t217 19v96q0 43 -15.5 71.5t-37 44t-46 21.5t-42.5 6q-78 0 -131 -38t-105 -99q-4 -6 -16 -2t-27.5 15t-31 25.5t-25.5 26.5q20 27 54 55.5t77 53.5t93 41t100 16q131 0 206.5 -55t75.5 -199v-327q0 -78 12.5 -135.5t30.5 -92.5 q-10 -6 -26.5 -11t-33 -8t-31.5 -5t-24 -2q-8 0 -17 3t-15 17q-4 10 -6 24.5t-7 28.5q-4 16 -6 35q-31 -31 -57.5 -52t-56 -34.5t-65.5 -20.5t-83 -7q-94 0 -157.5 65.5t-63.5 167.5zM168 199q0 -53 23.5 -86t87.5 -33q66 0 120 36t115 97v182q-129 -2 -198.5 -19.5 t-102.5 -44t-39 -61t-6 -71.5zM140 913l180 215h104l178 -215h-124l-105 137l-108 -137h-125zM430 1295q23 41 63 65.5t83 24.5q63 0 100 -41t37 -96q0 -35 -16.5 -67t-37 -56.5t-41 -43t-30.5 -24.5l-80 62q51 35 79 60.5t28 64.5q0 29 -14.5 41t-30.5 12q-35 0 -74 -58z " />
<glyph unicode="&#xc2;&#x303;" horiz-adv-x="948" d="M41 0l354 993h160l352 -993h-147l-88 268h-396l-88 -268h-147zM309 379h332l-166 481zM242 1044l180 215h104l178 -215h-124l-105 137l-108 -137h-125zM231 1304q2 29 12.5 59t29 56.5t42 43t54.5 16.5q29 0 56.5 -11.5t53 -24t50 -23.5t42.5 -11q33 0 49.5 23.5 t20.5 52.5h78q-4 -31 -13.5 -61.5t-26 -55.5t-40 -40t-57.5 -15q-25 0 -52.5 11t-55.5 23.5t-51.5 23.5t-39.5 11q-33 0 -50.5 -24.5t-21.5 -53.5h-80z" />
<glyph unicode="&#xe2;&#x303;" horiz-adv-x="778" d="M41 217q0 82 26.5 133t85 81t148.5 42t217 19v96q0 43 -15.5 71.5t-37 44t-46 21.5t-42.5 6q-78 0 -131 -38t-105 -99q-4 -6 -16 -2t-27.5 15t-31 25.5t-25.5 26.5q20 27 54 55.5t77 53.5t93 41t100 16q131 0 206.5 -55t75.5 -199v-327q0 -78 12.5 -135.5t30.5 -92.5 q-10 -6 -26.5 -11t-33 -8t-31.5 -5t-24 -2q-8 0 -17 3t-15 17q-4 10 -6 24.5t-7 28.5q-4 16 -6 35q-31 -31 -57.5 -52t-56 -34.5t-65.5 -20.5t-83 -7q-94 0 -157.5 65.5t-63.5 167.5zM168 199q0 -53 23.5 -86t87.5 -33q66 0 120 36t115 97v182q-129 -2 -198.5 -19.5 t-102.5 -44t-39 -61t-6 -71.5zM154 913l180 215h104l178 -215h-124l-105 137l-108 -137h-125zM141 1128q2 29 12.5 59t29 56.5t42 43t54.5 16.5q29 0 56.5 -11.5t53 -24t50 -23.5t42.5 -11q33 0 49.5 23.5t20.5 52.5h78q-4 -31 -13.5 -61.5t-26 -55.5t-40 -40t-57.5 -15 q-25 0 -52.5 11t-55.5 23.5t-51.5 23.5t-39.5 11q-33 0 -50.5 -24.5t-21.5 -53.5h-80z" />
<glyph unicode="&#xc2;&#x323;" horiz-adv-x="948" d="M41 0l354 993h160l352 -993h-147l-88 268h-396l-88 -268h-147zM309 379h332l-166 481zM364 -100h133v-142h-133v142zM242 1106l180 215h104l178 -215h-124l-105 137l-108 -137h-125z" />
<glyph unicode="&#xe2;&#x323;" horiz-adv-x="778" d="M41 217q0 82 26.5 133t85 81t148.5 42t217 19v96q0 43 -15.5 71.5t-37 44t-46 21.5t-42.5 6q-78 0 -131 -38t-105 -99q-4 -6 -16 -2t-27.5 15t-31 25.5t-25.5 26.5q20 27 54 55.5t77 53.5t93 41t100 16q131 0 206.5 -55t75.5 -199v-327q0 -78 12.5 -135.5t30.5 -92.5 q-10 -6 -26.5 -11t-33 -8t-31.5 -5t-24 -2q-8 0 -17 3t-15 17q-4 10 -6 24.5t-7 28.5q-4 16 -6 35q-31 -31 -57.5 -52t-56 -34.5t-65.5 -20.5t-83 -7q-94 0 -157.5 65.5t-63.5 167.5zM168 199q0 -53 23.5 -86t87.5 -33q66 0 120 36t115 97v182q-129 -2 -198.5 -19.5 t-102.5 -44t-39 -61t-6 -71.5zM287 -100h133v-142h-133v142zM123 913l180 215h104l178 -215h-124l-105 137l-108 -137h-125z" />
<glyph unicode="&#x102;&#x301;" horiz-adv-x="948" d="M41 0l354 993h160l352 -993h-147l-88 268h-396l-88 -268h-147zM309 379h332l-166 481zM252 1299h110q4 -47 28 -69.5t87 -22.5q59 0 84 22.5t29 69.5h110q-6 -92 -58 -144.5t-165 -52.5q-115 0 -167 52.5t-58 144.5zM420 1259l133 215h162l-195 -215h-100z" />
<glyph unicode="&#x103;&#x301;" horiz-adv-x="778" d="M41 217q0 82 26.5 133t85 81t148.5 42t217 19v96q0 43 -15.5 71.5t-37 44t-46 21.5t-42.5 6q-78 0 -131 -38t-105 -99q-4 -6 -16 -2t-27.5 15t-31 25.5t-25.5 26.5q20 27 54 55.5t77 53.5t93 41t100 16q131 0 206.5 -55t75.5 -199v-327q0 -78 12.5 -135.5t30.5 -92.5 q-10 -6 -26.5 -11t-33 -8t-31.5 -5t-24 -2q-8 0 -17 3t-15 17q-4 10 -6 24.5t-7 28.5q-4 16 -6 35q-31 -31 -57.5 -52t-56 -34.5t-65.5 -20.5t-83 -7q-94 0 -157.5 65.5t-63.5 167.5zM168 199q0 -53 23.5 -86t87.5 -33q66 0 120 36t115 97v182q-129 -2 -198.5 -19.5 t-102.5 -44t-39 -61t-6 -71.5zM162 1127h110q4 -47 28 -69.5t87 -22.5q59 0 84 22.5t29 69.5h110q-6 -92 -58 -144.5t-165 -52.5q-115 0 -167 52.5t-58 144.5zM303 1063l133 215h162l-195 -215h-100z" />
<glyph unicode="&#x102;&#x300;" horiz-adv-x="948" d="M41 0l354 993h160l352 -993h-147l-88 268h-396l-88 -268h-147zM309 379h332l-166 481zM250 1284h110q4 -47 28 -69.5t87 -22.5q59 0 84 22.5t29 69.5h110q-6 -92 -58 -144.5t-165 -52.5q-115 0 -167 52.5t-58 144.5zM244 1493h159l131 -215h-100z" />
<glyph unicode="&#x103;&#x300;" horiz-adv-x="778" d="M41 217q0 82 26.5 133t85 81t148.5 42t217 19v96q0 43 -15.5 71.5t-37 44t-46 21.5t-42.5 6q-78 0 -131 -38t-105 -99q-4 -6 -16 -2t-27.5 15t-31 25.5t-25.5 26.5q20 27 54 55.5t77 53.5t93 41t100 16q131 0 206.5 -55t75.5 -199v-327q0 -78 12.5 -135.5t30.5 -92.5 q-10 -6 -26.5 -11t-33 -8t-31.5 -5t-24 -2q-8 0 -17 3t-15 17q-4 10 -6 24.5t-7 28.5q-4 16 -6 35q-31 -31 -57.5 -52t-56 -34.5t-65.5 -20.5t-83 -7q-94 0 -157.5 65.5t-63.5 167.5zM168 199q0 -53 23.5 -86t87.5 -33q66 0 120 36t115 97v182q-129 -2 -198.5 -19.5 t-102.5 -44t-39 -61t-6 -71.5zM142 1133h110q4 -47 28 -69.5t87 -22.5q59 0 84 22.5t29 69.5h110q-6 -92 -58 -144.5t-165 -52.5q-115 0 -167 52.5t-58 144.5zM138 1339h159l131 -215h-100z" />
<glyph unicode="&#x102;&#x309;" horiz-adv-x="948" d="M41 0l354 993h160l352 -993h-147l-88 268h-396l-88 -268h-147zM309 379h332l-166 481zM250 1284h110q4 -47 28 -69.5t87 -22.5q59 0 84 22.5t29 69.5h110q-6 -92 -58 -144.5t-165 -52.5q-115 0 -167 52.5t-58 144.5zM336 1536q23 41 63 65.5t83 24.5q63 0 100 -41t37 -96 q0 -35 -16.5 -67t-37 -56.5t-41 -43t-30.5 -24.5l-80 62q51 35 79 60.5t28 64.5q0 29 -14.5 41t-30.5 12q-35 0 -74 -58z" />
<glyph unicode="&#x103;&#x309;" horiz-adv-x="778" d="M41 217q0 82 26.5 133t85 81t148.5 42t217 19v96q0 43 -15.5 71.5t-37 44t-46 21.5t-42.5 6q-78 0 -131 -38t-105 -99q-4 -6 -16 -2t-27.5 15t-31 25.5t-25.5 26.5q20 27 54 55.5t77 53.5t93 41t100 16q131 0 206.5 -55t75.5 -199v-327q0 -78 12.5 -135.5t30.5 -92.5 q-10 -6 -26.5 -11t-33 -8t-31.5 -5t-24 -2q-8 0 -17 3t-15 17q-4 10 -6 24.5t-7 28.5q-4 16 -6 35q-31 -31 -57.5 -52t-56 -34.5t-65.5 -20.5t-83 -7q-94 0 -157.5 65.5t-63.5 167.5zM168 199q0 -53 23.5 -86t87.5 -33q66 0 120 36t115 97v182q-129 -2 -198.5 -19.5 t-102.5 -44t-39 -61t-6 -71.5zM150 1129h110q4 -47 28 -69.5t87 -22.5q59 0 84 22.5t29 69.5h110q-6 -92 -58 -144.5t-165 -52.5q-115 0 -167 52.5t-58 144.5zM231 1377q23 41 63 65.5t83 24.5q63 0 100 -41t37 -96q0 -35 -16.5 -67t-37 -56.5t-41 -43t-30.5 -24.5l-80 62 q51 35 79 60.5t28 64.5q0 29 -14.5 41t-30.5 12q-35 0 -74 -58z" />
<glyph unicode="&#x102;&#x303;" horiz-adv-x="948" d="M41 0l354 993h160l352 -993h-147l-88 268h-396l-88 -268h-147zM309 379h332l-166 481zM252 1280h110q4 -47 28 -69.5t87 -22.5q59 0 84 22.5t29 69.5h110q-6 -92 -58 -144.5t-165 -52.5q-115 0 -167 52.5t-58 144.5zM229 1337q2 29 12.5 59t29 56.5t42 43t54.5 16.5 q29 0 56.5 -11.5t53 -24t50 -23.5t42.5 -11q33 0 49.5 23.5t20.5 52.5h78q-4 -31 -13.5 -61.5t-26 -55.5t-40 -40t-57.5 -15q-25 0 -52.5 11t-55.5 23.5t-51.5 23.5t-39.5 11q-33 0 -50.5 -24.5t-21.5 -53.5h-80z" />
<glyph unicode="&#x103;&#x303;" horiz-adv-x="778" d="M41 217q0 82 26.5 133t85 81t148.5 42t217 19v96q0 43 -15.5 71.5t-37 44t-46 21.5t-42.5 6q-78 0 -131 -38t-105 -99q-4 -6 -16 -2t-27.5 15t-31 25.5t-25.5 26.5q20 27 54 55.5t77 53.5t93 41t100 16q131 0 206.5 -55t75.5 -199v-327q0 -78 12.5 -135.5t30.5 -92.5 q-10 -6 -26.5 -11t-33 -8t-31.5 -5t-24 -2q-8 0 -17 3t-15 17q-4 10 -6 24.5t-7 28.5q-4 16 -6 35q-31 -31 -57.5 -52t-56 -34.5t-65.5 -20.5t-83 -7q-94 0 -157.5 65.5t-63.5 167.5zM168 199q0 -53 23.5 -86t87.5 -33q66 0 120 36t115 97v182q-129 -2 -198.5 -19.5 t-102.5 -44t-39 -61t-6 -71.5zM156 1129h110q4 -47 28 -69.5t87 -22.5q59 0 84 22.5t29 69.5h110q-6 -92 -58 -144.5t-165 -52.5q-115 0 -167 52.5t-58 144.5zM139 1198q2 29 12.5 59t29 56.5t42 43t54.5 16.5q29 0 56.5 -11.5t53 -24t50 -23.5t42.5 -11q33 0 49.5 23.5 t20.5 52.5h78q-4 -31 -13.5 -61.5t-26 -55.5t-40 -40t-57.5 -15q-25 0 -52.5 11t-55.5 23.5t-51.5 23.5t-39.5 11q-33 0 -50.5 -24.5t-21.5 -53.5h-80z" />
<glyph unicode="&#x102;&#x323;" horiz-adv-x="948" d="M41 0l354 993h160l352 -993h-147l-88 268h-396l-88 -268h-147zM309 379h332l-166 481zM411 -100h133v-142h-133v142zM252 1301h110q4 -47 28 -69.5t87 -22.5q59 0 84 22.5t29 69.5h110q-6 -92 -58 -144.5t-165 -52.5q-115 0 -167 52.5t-58 144.5z" />
<glyph unicode="&#x103;&#x323;" horiz-adv-x="778" d="M41 217q0 82 26.5 133t85 81t148.5 42t217 19v96q0 43 -15.5 71.5t-37 44t-46 21.5t-42.5 6q-78 0 -131 -38t-105 -99q-4 -6 -16 -2t-27.5 15t-31 25.5t-25.5 26.5q20 27 54 55.5t77 53.5t93 41t100 16q131 0 206.5 -55t75.5 -199v-327q0 -78 12.5 -135.5t30.5 -92.5 q-10 -6 -26.5 -11t-33 -8t-31.5 -5t-24 -2q-8 0 -17 3t-15 17q-4 10 -6 24.5t-7 28.5q-4 16 -6 35q-31 -31 -57.5 -52t-56 -34.5t-65.5 -20.5t-83 -7q-94 0 -157.5 65.5t-63.5 167.5zM168 199q0 -53 23.5 -86t87.5 -33q66 0 120 36t115 97v182q-129 -2 -198.5 -19.5 t-102.5 -44t-39 -61t-6 -71.5zM287 -100h133v-142h-133v142zM133 1129h110q4 -47 28 -69.5t87 -22.5q59 0 84 22.5t29 69.5h110q-6 -92 -58 -144.5t-165 -52.5q-115 0 -167 52.5t-58 144.5z" />
<glyph unicode="E&#x323;" horiz-adv-x="749" d="M123 0v995h586v-106h-443v-316h381v-106h-381v-361h436v-106h-579zM293 -100h133v-142h-133v142z" />
<glyph unicode="e&#x323;" horiz-adv-x="786" d="M57 401v5q0 219 88 319t244 100q104 0 169 -35.5t98.5 -97t45 -144.5t11.5 -177h-523q0 -82 17.5 -136.5t46.5 -86t64.5 -45t70.5 -13.5q86 0 140.5 27.5t99.5 93.5q4 6 16 2t27.5 -14.5t31 -24.5t25.5 -27q-55 -72 -141 -118.5t-187 -46.5q-166 0 -255 104t-89 315z M190 467h398q0 135 -45 199.5t-152 64.5q-92 0 -146.5 -61.5t-54.5 -202.5zM317 -100h133v-142h-133v142z" />
<glyph unicode="E&#x309;" horiz-adv-x="749" d="M123 0v995h586v-106h-443v-316h381v-106h-381v-361h436v-106h-579zM266 1377q23 41 63 65.5t83 24.5q63 0 100 -41t37 -96q0 -35 -16.5 -67t-37 -56.5t-41 -43t-30.5 -24.5l-80 62q51 35 79 60.5t28 64.5q0 29 -14.5 41t-30.5 12q-35 0 -74 -58z" />
<glyph unicode="e&#x309;" horiz-adv-x="786" d="M57 401v5q0 219 88 319t244 100q104 0 169 -35.5t98.5 -97t45 -144.5t11.5 -177h-523q0 -82 17.5 -136.5t46.5 -86t64.5 -45t70.5 -13.5q86 0 140.5 27.5t99.5 93.5q4 6 16 2t27.5 -14.5t31 -24.5t25.5 -27q-55 -72 -141 -118.5t-187 -46.5q-166 0 -255 104t-89 315z M190 467h398q0 135 -45 199.5t-152 64.5q-92 0 -146.5 -61.5t-54.5 -202.5zM260 1180q23 41 63 65.5t83 24.5q63 0 100 -41t37 -96q0 -35 -16.5 -67t-37 -56.5t-41 -43t-30.5 -24.5l-80 62q51 35 79 60.5t28 64.5q0 29 -14.5 41t-30.5 12q-35 0 -74 -58z" />
<glyph unicode="E&#x303;" horiz-adv-x="749" d="M123 0v995h586v-106h-443v-316h381v-106h-381v-361h436v-106h-579zM176 1146q2 29 12.5 59t29 56.5t42 43t54.5 16.5q29 0 56.5 -11.5t53 -24t50 -23.5t42.5 -11q33 0 49.5 23.5t20.5 52.5h78q-4 -31 -13.5 -61.5t-26 -55.5t-40 -40t-57.5 -15q-25 0 -52.5 11t-55.5 23.5 t-51.5 23.5t-39.5 11q-33 0 -50.5 -24.5t-21.5 -53.5h-80z" />
<glyph unicode="e&#x303;" horiz-adv-x="786" d="M57 401v5q0 219 88 319t244 100q104 0 169 -35.5t98.5 -97t45 -144.5t11.5 -177h-523q0 -82 17.5 -136.5t46.5 -86t64.5 -45t70.5 -13.5q86 0 140.5 27.5t99.5 93.5q4 6 16 2t27.5 -14.5t31 -24.5t25.5 -27q-55 -72 -141 -118.5t-187 -46.5q-166 0 -255 104t-89 315z M190 467h398q0 135 -45 199.5t-152 64.5q-92 0 -146.5 -61.5t-54.5 -202.5zM151 915q2 29 12.5 59t29 56.5t42 43t54.5 16.5q29 0 56.5 -11.5t53 -24t50 -23.5t42.5 -11q33 0 49.5 23.5t20.5 52.5h78q-4 -31 -13.5 -61.5t-26 -55.5t-40 -40t-57.5 -15q-25 0 -52.5 11 t-55.5 23.5t-51.5 23.5t-39.5 11q-33 0 -50.5 -24.5t-21.5 -53.5h-80z" />
<glyph unicode="&#xca;&#x301;" horiz-adv-x="749" d="M123 0v995h586v-106h-443v-316h381v-106h-381v-361h436v-106h-579zM195 1096l180 215h104l178 -215h-124l-105 137l-108 -137h-125zM539 1321l133 215h162l-195 -215h-100z" />
<glyph unicode="&#xea;&#x301;" horiz-adv-x="786" d="M57 401v5q0 219 88 319t244 100q104 0 169 -35.5t98.5 -97t45 -144.5t11.5 -177h-523q0 -82 17.5 -136.5t46.5 -86t64.5 -45t70.5 -13.5q86 0 140.5 27.5t99.5 93.5q4 6 16 2t27.5 -14.5t31 -24.5t25.5 -27q-55 -72 -141 -118.5t-187 -46.5q-166 0 -255 104t-89 315z M190 467h398q0 135 -45 199.5t-152 64.5q-92 0 -146.5 -61.5t-54.5 -202.5zM189 899l180 215h104l178 -215h-124l-105 137l-108 -137h-125zM510 1063l133 215h162l-195 -215h-100z" />
<glyph unicode="&#xca;&#x300;" horiz-adv-x="749" d="M123 0v995h586v-106h-443v-316h381v-106h-381v-361h436v-106h-579zM185 1145l180 215h104l178 -215h-124l-105 137l-108 -137h-125zM504 1495h159l131 -215h-100z" />
<glyph unicode="&#xea;&#x300;" horiz-adv-x="786" d="M57 401v5q0 219 88 319t244 100q104 0 169 -35.5t98.5 -97t45 -144.5t11.5 -177h-523q0 -82 17.5 -136.5t46.5 -86t64.5 -45t70.5 -13.5q86 0 140.5 27.5t99.5 93.5q4 6 16 2t27.5 -14.5t31 -24.5t25.5 -27q-55 -72 -141 -118.5t-187 -46.5q-166 0 -255 104t-89 315z M190 467h398q0 135 -45 199.5t-152 64.5q-92 0 -146.5 -61.5t-54.5 -202.5zM148 899l180 215h104l178 -215h-124l-105 137l-108 -137h-125zM465 1257h159l131 -215h-100z" />
<glyph unicode="&#xca;&#x309;" horiz-adv-x="749" d="M123 0v995h586v-106h-443v-316h381v-106h-381v-361h436v-106h-579zM170 1116l180 215h104l178 -215h-124l-105 137l-108 -137h-125zM460 1528q23 41 63 65.5t83 24.5q63 0 100 -41t37 -96q0 -35 -16.5 -67t-37 -56.5t-41 -43t-30.5 -24.5l-80 62q51 35 79 60.5t28 64.5 q0 29 -14.5 41t-30.5 12q-35 0 -74 -58z" />
<glyph unicode="&#xea;&#x309;" horiz-adv-x="786" d="M57 401v5q0 219 88 319t244 100q104 0 169 -35.5t98.5 -97t45 -144.5t11.5 -177h-523q0 -82 17.5 -136.5t46.5 -86t64.5 -45t70.5 -13.5q86 0 140.5 27.5t99.5 93.5q4 6 16 2t27.5 -14.5t31 -24.5t25.5 -27q-55 -72 -141 -118.5t-187 -46.5q-166 0 -255 104t-89 315z M190 467h398q0 135 -45 199.5t-152 64.5q-92 0 -146.5 -61.5t-54.5 -202.5zM168 911l180 215h104l178 -215h-124l-105 137l-108 -137h-125zM471 1258q23 41 63 65.5t83 24.5q63 0 100 -41t37 -96q0 -35 -16.5 -67t-37 -56.5t-41 -43t-30.5 -24.5l-80 62q51 35 79 60.5 t28 64.5q0 29 -14.5 41t-30.5 12q-35 0 -74 -58z" />
<glyph unicode="&#xca;&#x303;" horiz-adv-x="749" d="M123 0v995h586v-106h-443v-316h381v-106h-381v-361h436v-106h-579zM185 1094l180 215h104l178 -215h-124l-105 137l-108 -137h-125zM153 1370q2 29 12.5 59t29 56.5t42 43t54.5 16.5q29 0 56.5 -11.5t53 -24t50 -23.5t42.5 -11q33 0 49.5 23.5t20.5 52.5h78 q-4 -31 -13.5 -61.5t-26 -55.5t-40 -40t-57.5 -15q-25 0 -52.5 11t-55.5 23.5t-51.5 23.5t-39.5 11q-33 0 -50.5 -24.5t-21.5 -53.5h-80z" />
<glyph unicode="&#xea;&#x303;" horiz-adv-x="786" d="M57 401v5q0 219 88 319t244 100q104 0 169 -35.5t98.5 -97t45 -144.5t11.5 -177h-523q0 -82 17.5 -136.5t46.5 -86t64.5 -45t70.5 -13.5q86 0 140.5 27.5t99.5 93.5q4 6 16 2t27.5 -14.5t31 -24.5t25.5 -27q-55 -72 -141 -118.5t-187 -46.5q-166 0 -255 104t-89 315z M190 467h398q0 135 -45 199.5t-152 64.5q-92 0 -146.5 -61.5t-54.5 -202.5zM168 899l180 215h104l178 -215h-124l-105 137l-108 -137h-125zM151 1189q2 29 12.5 59t29 56.5t42 43t54.5 16.5q29 0 56.5 -11.5t53 -24t50 -23.5t42.5 -11q33 0 49.5 23.5t20.5 52.5h78 q-4 -31 -13.5 -61.5t-26 -55.5t-40 -40t-57.5 -15q-25 0 -52.5 11t-55.5 23.5t-51.5 23.5t-39.5 11q-33 0 -50.5 -24.5t-21.5 -53.5h-80z" />
<glyph unicode="&#xca;&#x323;" horiz-adv-x="749" d="M123 0v995h586v-106h-443v-316h381v-106h-381v-361h436v-106h-579zM293 -100h133v-142h-133v142zM205 1178l180 215h104l178 -215h-124l-105 137l-108 -137h-125z" />
<glyph unicode="&#xea;&#x323;" horiz-adv-x="786" d="M57 401v5q0 219 88 319t244 100q104 0 169 -35.5t98.5 -97t45 -144.5t11.5 -177h-523q0 -82 17.5 -136.5t46.5 -86t64.5 -45t70.5 -13.5q86 0 140.5 27.5t99.5 93.5q4 6 16 2t27.5 -14.5t31 -24.5t25.5 -27q-55 -72 -141 -118.5t-187 -46.5q-166 0 -255 104t-89 315z M190 467h398q0 135 -45 199.5t-152 64.5q-92 0 -146.5 -61.5t-54.5 -202.5zM317 -100h133v-142h-133v142zM168 899l180 215h104l178 -215h-124l-105 137l-108 -137h-125z" />
<glyph unicode="I&#x309;" horiz-adv-x="565" d="M41 0v96h168v803h-162v96h477v-96h-174v-803h168v-96h-477zM145 1360q23 41 63 65.5t83 24.5q63 0 100 -41t37 -96q0 -35 -16.5 -67t-37 -56.5t-41 -43t-30.5 -24.5l-80 62q51 35 79 60.5t28 64.5q0 29 -14.5 41t-30.5 12q-35 0 -74 -58z" />
<glyph unicode="i&#x309;" horiz-adv-x="309" d="M18 1098q23 41 63 65.5t83 24.5q63 0 100 -41t37 -96q0 -35 -16.5 -67t-37 -56.5t-41 -43t-30.5 -24.5l-80 62q51 35 79 60.5t28 64.5q0 29 -14.5 41t-30.5 12q-35 0 -74 -58zM106 0v809h134v-809h-134z" />
<glyph unicode="I&#x323;" horiz-adv-x="565" d="M41 0v96h168v803h-162v96h477v-96h-174v-803h168v-96h-477zM219 -100h133v-142h-133v142z" />
<glyph unicode="i&#x323;" horiz-adv-x="346" d="M117 0v809h133v-809h-133zM117 987v137h133v-137h-133zM108 -100h133v-142h-133v142z" />
<glyph unicode="O&#x323;" horiz-adv-x="966" d="M82 485q0 256 91 386t310 130q109 0 185.5 -32.5t125 -97t70 -162t21.5 -224.5q0 -119 -21.5 -212t-70 -156.5t-125 -96t-185.5 -32.5q-217 0 -309 128.5t-92 368.5zM229 485q0 -104 12.5 -175.5t42 -118t79 -67t120.5 -20.5q72 0 120 20.5t78 67t43 118t13 175.5 q0 115 -13 192t-43 124t-78 67.5t-120 20.5t-121 -20.5t-78.5 -67.5t-42 -124t-12.5 -192zM420 -100h133v-142h-133v142z" />
<glyph unicode="o&#x323;" horiz-adv-x="798" d="M57 406q0 98 18.5 175.5t58.5 132t105.5 83t159.5 28.5q96 0 161 -28.5t106 -83t58 -132t17 -175.5t-17 -176t-58 -133.5t-105.5 -84t-161.5 -28.5q-94 0 -159.5 28.5t-105.5 84t-58.5 133.5t-18.5 176zM190 406q0 -166 45.5 -246t163.5 -80q119 0 164 80t45 246 t-45 245.5t-164 79.5t-164 -79.5t-45 -245.5zM325 -100h133v-142h-133v142z" />
<glyph unicode="O&#x309;" horiz-adv-x="966" d="M82 485q0 256 91 386t310 130q109 0 185.5 -32.5t125 -97t70 -162t21.5 -224.5q0 -119 -21.5 -212t-70 -156.5t-125 -96t-185.5 -32.5q-217 0 -309 128.5t-92 368.5zM229 485q0 -104 12.5 -175.5t42 -118t79 -67t120.5 -20.5q72 0 120 20.5t78 67t43 118t13 175.5 q0 115 -13 192t-43 124t-78 67.5t-120 20.5t-121 -20.5t-78.5 -67.5t-42 -124t-12.5 -192zM397 1377q23 41 63 65.5t83 24.5q63 0 100 -41t37 -96q0 -35 -16.5 -67t-37 -56.5t-41 -43t-30.5 -24.5l-80 62q51 35 79 60.5t28 64.5q0 29 -14.5 41t-30.5 12q-35 0 -74 -58z" />
<glyph unicode="o&#x309;" horiz-adv-x="798" d="M57 406q0 98 18.5 175.5t58.5 132t105.5 83t159.5 28.5q96 0 161 -28.5t106 -83t58 -132t17 -175.5t-17 -176t-58 -133.5t-105.5 -84t-161.5 -28.5q-94 0 -159.5 28.5t-105.5 84t-58.5 133.5t-18.5 176zM190 406q0 -166 45.5 -246t163.5 -80q119 0 164 80t45 246 t-45 245.5t-164 79.5t-164 -79.5t-45 -245.5zM280 1098q23 41 63 65.5t83 24.5q63 0 100 -41t37 -96q0 -35 -16.5 -67t-37 -56.5t-41 -43t-30.5 -24.5l-80 62q51 35 79 60.5t28 64.5q0 29 -14.5 41t-30.5 12q-35 0 -74 -58z" />
<glyph unicode="&#xd4;&#x301;" horiz-adv-x="966" d="M82 485q0 256 91 386t310 130q109 0 185.5 -32.5t125 -97t70 -162t21.5 -224.5q0 -119 -21.5 -212t-70 -156.5t-125 -96t-185.5 -32.5q-217 0 -309 128.5t-92 368.5zM229 485q0 -104 12.5 -175.5t42 -118t79 -67t120.5 -20.5q72 0 120 20.5t78 67t43 118t13 175.5 q0 115 -13 192t-43 124t-78 67.5t-120 20.5t-121 -20.5t-78.5 -67.5t-42 -124t-12.5 -192zM263 1116l180 215h104l178 -215h-124l-105 137l-108 -137h-125zM729 1280l133 215h162l-195 -215h-100z" />
<glyph unicode="&#xf4;&#x301;" horiz-adv-x="798" d="M57 406q0 98 18.5 175.5t58.5 132t105.5 83t159.5 28.5q96 0 161 -28.5t106 -83t58 -132t17 -175.5t-17 -176t-58 -133.5t-105.5 -84t-161.5 -28.5q-94 0 -159.5 28.5t-105.5 84t-58.5 133.5t-18.5 176zM190 406q0 -166 45.5 -246t163.5 -80q119 0 164 80t45 246 t-45 245.5t-164 79.5t-164 -79.5t-45 -245.5zM164 899l180 215h104l178 -215h-124l-105 137l-108 -137h-125zM559 1079l133 215h162l-195 -215h-100z" />
<glyph unicode="&#xd4;&#x300;" horiz-adv-x="966" d="M82 485q0 256 91 386t310 130q109 0 185.5 -32.5t125 -97t70 -162t21.5 -224.5q0 -119 -21.5 -212t-70 -156.5t-125 -96t-185.5 -32.5q-217 0 -309 128.5t-92 368.5zM229 485q0 -104 12.5 -175.5t42 -118t79 -67t120.5 -20.5q72 0 120 20.5t78 67t43 118t13 175.5 q0 115 -13 192t-43 124t-78 67.5t-120 20.5t-121 -20.5t-78.5 -67.5t-42 -124t-12.5 -192zM256 1116l180 215h104l178 -215h-124l-105 137l-108 -137h-125zM574 1540h159l131 -215h-100z" />
<glyph unicode="&#xf4;&#x300;" horiz-adv-x="798" d="M57 406q0 98 18.5 175.5t58.5 132t105.5 83t159.5 28.5q96 0 161 -28.5t106 -83t58 -132t17 -175.5t-17 -176t-58 -133.5t-105.5 -84t-161.5 -28.5q-94 0 -159.5 28.5t-105.5 84t-58.5 133.5t-18.5 176zM190 406q0 -166 45.5 -246t163.5 -80q119 0 164 80t45 246 t-45 245.5t-164 79.5t-164 -79.5t-45 -245.5zM168 899l180 215h104l178 -215h-124l-105 137l-108 -137h-125zM467 1292h159l131 -215h-100z" />
<glyph unicode="&#xd4;&#x309;" horiz-adv-x="966" d="M82 485q0 256 91 386t310 130q109 0 185.5 -32.5t125 -97t70 -162t21.5 -224.5q0 -119 -21.5 -212t-70 -156.5t-125 -96t-185.5 -32.5q-217 0 -309 128.5t-92 368.5zM229 485q0 -104 12.5 -175.5t42 -118t79 -67t120.5 -20.5q72 0 120 20.5t78 67t43 118t13 175.5 q0 115 -13 192t-43 124t-78 67.5t-120 20.5t-121 -20.5t-78.5 -67.5t-42 -124t-12.5 -192zM260 1130l180 215h104l178 -215h-124l-105 137l-108 -137h-125zM635 1487q23 41 63 65.5t83 24.5q63 0 100 -41t37 -96q0 -35 -16.5 -67t-37 -56.5t-41 -43t-30.5 -24.5l-80 62 q51 35 79 60.5t28 64.5q0 29 -14.5 41t-30.5 12q-35 0 -74 -58z" />
<glyph unicode="&#xf4;&#x309;" horiz-adv-x="798" d="M57 406q0 98 18.5 175.5t58.5 132t105.5 83t159.5 28.5q96 0 161 -28.5t106 -83t58 -132t17 -175.5t-17 -176t-58 -133.5t-105.5 -84t-161.5 -28.5q-94 0 -159.5 28.5t-105.5 84t-58.5 133.5t-18.5 176zM190 406q0 -166 45.5 -246t163.5 -80q119 0 164 80t45 246 t-45 245.5t-164 79.5t-164 -79.5t-45 -245.5zM166 899l180 215h104l178 -215h-124l-105 137l-108 -137h-125zM526 1243q23 41 63 65.5t83 24.5q63 0 100 -41t37 -96q0 -35 -16.5 -67t-37 -56.5t-41 -43t-30.5 -24.5l-80 62q51 35 79 60.5t28 64.5q0 29 -14.5 41t-30.5 12 q-35 0 -74 -58z" />
<glyph unicode="&#xd4;&#x303;" horiz-adv-x="966" d="M82 485q0 256 91 386t310 130q109 0 185.5 -32.5t125 -97t70 -162t21.5 -224.5q0 -119 -21.5 -212t-70 -156.5t-125 -96t-185.5 -32.5q-217 0 -309 128.5t-92 368.5zM229 485q0 -104 12.5 -175.5t42 -118t79 -67t120.5 -20.5q72 0 120 20.5t78 67t43 118t13 175.5 q0 115 -13 192t-43 124t-78 67.5t-120 20.5t-121 -20.5t-78.5 -67.5t-42 -124t-12.5 -192zM263 1116l180 215h104l178 -215h-124l-105 137l-108 -137h-125zM245 1427q2 29 12.5 59t29 56.5t42 43t54.5 16.5q29 0 56.5 -11.5t53 -24t50 -23.5t42.5 -11q33 0 49.5 23.5 t20.5 52.5h78q-4 -31 -13.5 -61.5t-26 -55.5t-40 -40t-57.5 -15q-25 0 -52.5 11t-55.5 23.5t-51.5 23.5t-39.5 11q-33 0 -50.5 -24.5t-21.5 -53.5h-80z" />
<glyph unicode="&#xf4;&#x303;" horiz-adv-x="798" d="M57 406q0 98 18.5 175.5t58.5 132t105.5 83t159.5 28.5q96 0 161 -28.5t106 -83t58 -132t17 -175.5t-17 -176t-58 -133.5t-105.5 -84t-161.5 -28.5q-94 0 -159.5 28.5t-105.5 84t-58.5 133.5t-18.5 176zM190 406q0 -166 45.5 -246t163.5 -80q119 0 164 80t45 246 t-45 245.5t-164 79.5t-164 -79.5t-45 -245.5zM148 899l180 215h104l178 -215h-124l-105 137l-108 -137h-125zM131 1183q2 29 12.5 59t29 56.5t42 43t54.5 16.5q29 0 56.5 -11.5t53 -24t50 -23.5t42.5 -11q33 0 49.5 23.5t20.5 52.5h78q-4 -31 -13.5 -61.5t-26 -55.5t-40 -40 t-57.5 -15q-25 0 -52.5 11t-55.5 23.5t-51.5 23.5t-39.5 11q-33 0 -50.5 -24.5t-21.5 -53.5h-80z" />
<glyph unicode="&#xd4;&#x323;" horiz-adv-x="966" d="M82 485q0 256 91 386t310 130q109 0 185.5 -32.5t125 -97t70 -162t21.5 -224.5q0 -119 -21.5 -212t-70 -156.5t-125 -96t-185.5 -32.5q-217 0 -309 128.5t-92 368.5zM229 485q0 -104 12.5 -175.5t42 -118t79 -67t120.5 -20.5q72 0 120 20.5t78 67t43 118t13 175.5 q0 115 -13 192t-43 124t-78 67.5t-120 20.5t-121 -20.5t-78.5 -67.5t-42 -124t-12.5 -192zM473 -100h133v-142h-133v142zM263 1178l180 215h104l178 -215h-124l-105 137l-108 -137h-125z" />
<glyph unicode="&#xf4;&#x323;" horiz-adv-x="798" d="M57 406q0 98 18.5 175.5t58.5 132t105.5 83t159.5 28.5q96 0 161 -28.5t106 -83t58 -132t17 -175.5t-17 -176t-58 -133.5t-105.5 -84t-161.5 -28.5q-94 0 -159.5 28.5t-105.5 84t-58.5 133.5t-18.5 176zM190 406q0 -166 45.5 -246t163.5 -80q119 0 164 80t45 246 t-45 245.5t-164 79.5t-164 -79.5t-45 -245.5zM358 -100h133v-142h-133v142zM150 899l180 215h104l178 -215h-124l-105 137l-108 -137h-125z" />
<glyph unicode="&#x1a0;&#x301;" horiz-adv-x="1087" d="M82 485q0 256 91 386t310 130q190 0 289 -104q51 20 73.5 60t24.5 106l117 10q0 -47 -13 -89t-37 -76t-53.5 -57.5t-60.5 -33.5q33 -72 47.5 -145.5t14.5 -186.5q0 -119 -21.5 -212t-70 -156.5t-125 -96t-185.5 -32.5q-217 0 -309 128.5t-92 368.5zM229 485 q0 -104 12.5 -175.5t42 -118t79 -67t120.5 -20.5q72 0 120 20.5t78 67t43 118t13 175.5q0 115 -13 192t-43 124t-78 67.5t-120 20.5t-121 -20.5t-78.5 -67.5t-42 -124t-12.5 -192zM389 1178l133 215h162l-195 -215h-100z" />
<glyph unicode="&#x1a1;&#x301;" horiz-adv-x="856" d="M57 406q0 98 16.5 175.5t55.5 132t102.5 83t157.5 28.5q127 0 207 -57q49 16 70.5 53t23.5 99l107 8q0 -82 -43 -142.5t-97 -83.5q33 -53 48.5 -124.5t15.5 -171.5q0 -98 -16.5 -176t-54.5 -133.5t-101.5 -84t-159.5 -28.5q-94 0 -157.5 28.5t-102.5 84t-55.5 133.5 t-16.5 176zM190 406q0 -82 7.5 -143.5t29 -102.5t60.5 -60.5t102 -19.5t102 19.5t60.5 60.5t29 102.5t7.5 143.5t-7.5 143t-29 101t-60 60.5t-102.5 20.5q-63 0 -102 -20.5t-60.5 -60.5t-29 -101t-7.5 -143zM273 899l133 215h162l-195 -215h-100z" />
<glyph unicode="&#x1a0;&#x300;" horiz-adv-x="1087" d="M82 485q0 256 91 386t310 130q190 0 289 -104q51 20 73.5 60t24.5 106l117 10q0 -47 -13 -89t-37 -76t-53.5 -57.5t-60.5 -33.5q33 -72 47.5 -145.5t14.5 -186.5q0 -119 -21.5 -212t-70 -156.5t-125 -96t-185.5 -32.5q-217 0 -309 128.5t-92 368.5zM229 485 q0 -104 12.5 -175.5t42 -118t79 -67t120.5 -20.5q72 0 120 20.5t78 67t43 118t13 175.5q0 115 -13 192t-43 124t-78 67.5t-120 20.5t-121 -20.5t-78.5 -67.5t-42 -124t-12.5 -192zM310 1393h159l131 -215h-100z" />
<glyph unicode="&#x1a1;&#x300;" horiz-adv-x="856" d="M57 406q0 98 16.5 175.5t55.5 132t102.5 83t157.5 28.5q127 0 207 -57q49 16 70.5 53t23.5 99l107 8q0 -82 -43 -142.5t-97 -83.5q33 -53 48.5 -124.5t15.5 -171.5q0 -98 -16.5 -176t-54.5 -133.5t-101.5 -84t-159.5 -28.5q-94 0 -157.5 28.5t-102.5 84t-55.5 133.5 t-16.5 176zM190 406q0 -82 7.5 -143.5t29 -102.5t60.5 -60.5t102 -19.5t102 19.5t60.5 60.5t29 102.5t7.5 143.5t-7.5 143t-29 101t-60 60.5t-102.5 20.5q-63 0 -102 -20.5t-60.5 -60.5t-29 -101t-7.5 -143zM195 1114h159l131 -215h-100z" />
<glyph unicode="&#x1a0;&#x309;" horiz-adv-x="1087" d="M82 485q0 256 91 386t310 130q190 0 289 -104q51 20 73.5 60t24.5 106l117 10q0 -47 -13 -89t-37 -76t-53.5 -57.5t-60.5 -33.5q33 -72 47.5 -145.5t14.5 -186.5q0 -119 -21.5 -212t-70 -156.5t-125 -96t-185.5 -32.5q-217 0 -309 128.5t-92 368.5zM229 485 q0 -104 12.5 -175.5t42 -118t79 -67t120.5 -20.5q72 0 120 20.5t78 67t43 118t13 175.5q0 115 -13 192t-43 124t-78 67.5t-120 20.5t-121 -20.5t-78.5 -67.5t-42 -124t-12.5 -192zM401 1377q23 41 63 65.5t83 24.5q63 0 100 -41t37 -96q0 -35 -16.5 -67t-37 -56.5t-41 -43 t-30.5 -24.5l-80 62q51 35 79 60.5t28 64.5q0 29 -14.5 41t-30.5 12q-35 0 -74 -58z" />
<glyph unicode="&#x1a1;&#x309;" horiz-adv-x="856" d="M57 406q0 98 16.5 175.5t55.5 132t102.5 83t157.5 28.5q127 0 207 -57q49 16 70.5 53t23.5 99l107 8q0 -82 -43 -142.5t-97 -83.5q33 -53 48.5 -124.5t15.5 -171.5q0 -98 -16.5 -176t-54.5 -133.5t-101.5 -84t-159.5 -28.5q-94 0 -157.5 28.5t-102.5 84t-55.5 133.5 t-16.5 176zM190 406q0 -82 7.5 -143.5t29 -102.5t60.5 -60.5t102 -19.5t102 19.5t60.5 60.5t29 102.5t7.5 143.5t-7.5 143t-29 101t-60 60.5t-102.5 20.5q-63 0 -102 -20.5t-60.5 -60.5t-29 -101t-7.5 -143zM286 1098q23 41 63 65.5t83 24.5q63 0 100 -41t37 -96 q0 -35 -16.5 -67t-37 -56.5t-41 -43t-30.5 -24.5l-80 62q51 35 79 60.5t28 64.5q0 29 -14.5 41t-30.5 12q-35 0 -74 -58z" />
<glyph unicode="&#x1a0;&#x303;" horiz-adv-x="1087" d="M82 485q0 256 91 386t310 130q190 0 289 -104q51 20 73.5 60t24.5 106l117 10q0 -47 -13 -89t-37 -76t-53.5 -57.5t-60.5 -33.5q33 -72 47.5 -145.5t14.5 -186.5q0 -119 -21.5 -212t-70 -156.5t-125 -96t-185.5 -32.5q-217 0 -309 128.5t-92 368.5zM229 485 q0 -104 12.5 -175.5t42 -118t79 -67t120.5 -20.5q72 0 120 20.5t78 67t43 118t13 175.5q0 115 -13 192t-43 124t-78 67.5t-120 20.5t-121 -20.5t-78.5 -67.5t-42 -124t-12.5 -192zM250 1194q2 29 12.5 59t29 56.5t42 43t54.5 16.5q29 0 56.5 -11.5t53 -24t50 -23.5t42.5 -11 q33 0 49.5 23.5t20.5 52.5h78q-4 -31 -13.5 -61.5t-26 -55.5t-40 -40t-57.5 -15q-25 0 -52.5 11t-55.5 23.5t-51.5 23.5t-39.5 11q-33 0 -50.5 -24.5t-21.5 -53.5h-80z" />
<glyph unicode="&#x1a1;&#x303;" horiz-adv-x="856" d="M57 406q0 98 16.5 175.5t55.5 132t102.5 83t157.5 28.5q127 0 207 -57q49 16 70.5 53t23.5 99l107 8q0 -82 -43 -142.5t-97 -83.5q33 -53 48.5 -124.5t15.5 -171.5q0 -98 -16.5 -176t-54.5 -133.5t-101.5 -84t-159.5 -28.5q-94 0 -157.5 28.5t-102.5 84t-55.5 133.5 t-16.5 176zM190 406q0 -82 7.5 -143.5t29 -102.5t60.5 -60.5t102 -19.5t102 19.5t60.5 60.5t29 102.5t7.5 143.5t-7.5 143t-29 101t-60 60.5t-102.5 20.5q-63 0 -102 -20.5t-60.5 -60.5t-29 -101t-7.5 -143zM135 915q2 29 12.5 59t29 56.5t42 43t54.5 16.5q29 0 56.5 -11.5 t53 -24t50 -23.5t42.5 -11q33 0 49.5 23.5t20.5 52.5h78q-4 -31 -13.5 -61.5t-26 -55.5t-40 -40t-57.5 -15q-25 0 -52.5 11t-55.5 23.5t-51.5 23.5t-39.5 11q-33 0 -50.5 -24.5t-21.5 -53.5h-80z" />
<glyph unicode="&#x1a0;&#x323;" horiz-adv-x="1087" d="M82 485q0 256 91 386t310 130q190 0 289 -104q51 20 73.5 60t24.5 106l117 10q0 -47 -13 -89t-37 -76t-53.5 -57.5t-60.5 -33.5q33 -72 47.5 -145.5t14.5 -186.5q0 -119 -21.5 -212t-70 -156.5t-125 -96t-185.5 -32.5q-217 0 -309 128.5t-92 368.5zM229 485 q0 -104 12.5 -175.5t42 -118t79 -67t120.5 -20.5q72 0 120 20.5t78 67t43 118t13 175.5q0 115 -13 192t-43 124t-78 67.5t-120 20.5t-121 -20.5t-78.5 -67.5t-42 -124t-12.5 -192zM477 -100h133v-142h-133v142z" />
<glyph unicode="&#x1a1;&#x323;" horiz-adv-x="856" d="M57 406q0 98 16.5 175.5t55.5 132t102.5 83t157.5 28.5q127 0 207 -57q49 16 70.5 53t23.5 99l107 8q0 -82 -43 -142.5t-97 -83.5q33 -53 48.5 -124.5t15.5 -171.5q0 -98 -16.5 -176t-54.5 -133.5t-101.5 -84t-159.5 -28.5q-94 0 -157.5 28.5t-102.5 84t-55.5 133.5 t-16.5 176zM190 406q0 -82 7.5 -143.5t29 -102.5t60.5 -60.5t102 -19.5t102 19.5t60.5 60.5t29 102.5t7.5 143.5t-7.5 143t-29 101t-60 60.5t-102.5 20.5q-63 0 -102 -20.5t-60.5 -60.5t-29 -101t-7.5 -143zM362 -100h133v-142h-133v142z" />
<glyph unicode="U&#x323;" horiz-adv-x="974" d="M133 418v577h143v-577q0 -104 13.5 -166t41 -95.5t73.5 -44t110 -10.5q63 0 108 10.5t74 44t42 95t13 166.5v577h144v-577q0 -119 -18.5 -202t-62.5 -133t-118 -72.5t-182 -22.5q-109 0 -182.5 22.5t-117.5 72.5t-62.5 133t-18.5 202zM422 -100h133v-142h-133v142z" />
<glyph unicode="u&#x323;" horiz-adv-x="829" d="M129 256v553h133v-543q0 -100 40 -143t104 -43q47 0 118.5 40t118.5 116v573h135v-600q0 -55 10.5 -113.5t16.5 -79.5q-16 -8 -51 -12t-52 -4q-8 0 -19 3t-17 13q-4 8 -6.5 22.5t-4.5 31.5q-2 18 -2 39q-20 -31 -53 -53.5t-69.5 -39t-73.5 -24.5t-68 -8 q-129 0 -194.5 70.5t-65.5 201.5zM348 -100h133v-142h-133v142z" />
<glyph unicode="U&#x309;" horiz-adv-x="974" d="M133 418v577h143v-577q0 -104 13.5 -166t41 -95.5t73.5 -44t110 -10.5q63 0 108 10.5t74 44t42 95t13 166.5v577h144v-577q0 -119 -18.5 -202t-62.5 -133t-118 -72.5t-182 -22.5q-109 0 -182.5 22.5t-117.5 72.5t-62.5 133t-18.5 202zM346 1377q23 41 63 65.5t83 24.5 q63 0 100 -41t37 -96q0 -35 -16.5 -67t-37 -56.5t-41 -43t-30.5 -24.5l-80 62q51 35 79 60.5t28 64.5q0 29 -14.5 41t-30.5 12q-35 0 -74 -58z" />
<glyph unicode="u&#x309;" horiz-adv-x="829" d="M129 256v553h133v-543q0 -100 40 -143t104 -43q47 0 118.5 40t118.5 116v573h135v-600q0 -55 10.5 -113.5t16.5 -79.5q-16 -8 -51 -12t-52 -4q-8 0 -19 3t-17 13q-4 8 -6.5 22.5t-4.5 31.5q-2 18 -2 39q-20 -31 -53 -53.5t-69.5 -39t-73.5 -24.5t-68 -8 q-129 0 -194.5 70.5t-65.5 201.5zM272 1098q23 41 63 65.5t83 24.5q63 0 100 -41t37 -96q0 -35 -16.5 -67t-37 -56.5t-41 -43t-30.5 -24.5l-80 62q51 35 79 60.5t28 64.5q0 29 -14.5 41t-30.5 12q-35 0 -74 -58z" />
<glyph unicode="&#x1af;&#x301;" horiz-adv-x="1030" d="M123 418v577h143v-577q0 -104 13.5 -166t41 -95.5t73.5 -44t110 -10.5q63 0 108 10.5t74 44t42 95t13 166.5v577h144v-114q39 2 59.5 19.5t29.5 43t7 57t-8 62.5l117 31q8 -61 -5.5 -115.5t-42 -97.5t-69.5 -69t-88 -28v-366q0 -119 -18.5 -202t-62.5 -133t-118 -72.5 t-182 -22.5q-109 0 -182.5 22.5t-117.5 72.5t-62.5 133t-18.5 202zM443 1137l133 215h162l-195 -215h-100z" />
<glyph unicode="&#x1b0;&#x301;" horiz-adv-x="907" d="M129 256v553h133v-543q0 -100 40 -143t104 -43q47 0 118.5 40t118.5 116v573h135v-125q39 10 59.5 28.5t28.5 43t5 52.5t-9 54l107 29q12 -51 5 -101.5t-31.5 -90.5t-65.5 -68.5t-99 -38.5v-592h-135v109q-20 -31 -52 -53.5t-65.5 -39t-69.5 -24.5t-67 -8 q-129 0 -194.5 70.5t-65.5 201.5zM330 899l133 215h162l-195 -215h-100z" />
<glyph unicode="&#x1af;&#x300;" horiz-adv-x="1030" d="M123 418v577h143v-577q0 -104 13.5 -166t41 -95.5t73.5 -44t110 -10.5q63 0 108 10.5t74 44t42 95t13 166.5v577h144v-114q39 2 59.5 19.5t29.5 43t7 57t-8 62.5l117 31q8 -61 -5.5 -115.5t-42 -97.5t-69.5 -69t-88 -28v-366q0 -119 -18.5 -202t-62.5 -133t-118 -72.5 t-182 -22.5q-109 0 -182.5 22.5t-117.5 72.5t-62.5 133t-18.5 202zM281 1352h159l131 -215h-100z" />
<glyph unicode="&#x1b0;&#x300;" horiz-adv-x="907" d="M129 256v553h133v-543q0 -100 40 -143t104 -43q47 0 118.5 40t118.5 116v573h135v-125q39 10 59.5 28.5t28.5 43t5 52.5t-9 54l107 29q12 -51 5 -101.5t-31.5 -90.5t-65.5 -68.5t-99 -38.5v-592h-135v109q-20 -31 -52 -53.5t-65.5 -39t-69.5 -24.5t-67 -8 q-129 0 -194.5 70.5t-65.5 201.5zM209 1114h159l131 -215h-100z" />
<glyph unicode="&#x1af;&#x309;" horiz-adv-x="1030" d="M123 418v577h143v-577q0 -104 13.5 -166t41 -95.5t73.5 -44t110 -10.5q63 0 108 10.5t74 44t42 95t13 166.5v577h144v-114q39 2 59.5 19.5t29.5 43t7 57t-8 62.5l117 31q8 -61 -5.5 -115.5t-42 -97.5t-69.5 -69t-88 -28v-366q0 -119 -18.5 -202t-62.5 -133t-118 -72.5 t-182 -22.5q-109 0 -182.5 22.5t-117.5 72.5t-62.5 133t-18.5 202zM372 1336q23 41 63 65.5t83 24.5q63 0 100 -41t37 -96q0 -35 -16.5 -67t-37 -56.5t-41 -43t-30.5 -24.5l-80 62q51 35 79 60.5t28 64.5q0 29 -14.5 41t-30.5 12q-35 0 -74 -58z" />
<glyph unicode="&#x1b0;&#x309;" horiz-adv-x="907" d="M129 256v553h133v-543q0 -100 40 -143t104 -43q47 0 118.5 40t118.5 116v573h135v-125q39 10 59.5 28.5t28.5 43t5 52.5t-9 54l107 29q12 -51 5 -101.5t-31.5 -90.5t-65.5 -68.5t-99 -38.5v-592h-135v109q-20 -31 -52 -53.5t-65.5 -39t-69.5 -24.5t-67 -8 q-129 0 -194.5 70.5t-65.5 201.5zM321 1211q23 41 63 65.5t83 24.5q63 0 100 -41t37 -96q0 -35 -16.5 -67t-37 -56.5t-41 -43t-30.5 -24.5l-80 62q51 35 79 60.5t28 64.5q0 29 -14.5 41t-30.5 12q-35 0 -74 -58z" />
<glyph unicode="&#x1af;&#x303;" horiz-adv-x="1030" d="M123 418v577h143v-577q0 -104 13.5 -166t41 -95.5t73.5 -44t110 -10.5q63 0 108 10.5t74 44t42 95t13 166.5v577h144v-114q39 2 59.5 19.5t29.5 43t7 57t-8 62.5l117 31q8 -61 -5.5 -115.5t-42 -97.5t-69.5 -69t-88 -28v-366q0 -119 -18.5 -202t-62.5 -133t-118 -72.5 t-182 -22.5q-109 0 -182.5 22.5t-117.5 72.5t-62.5 133t-18.5 202zM262 1136q2 29 12.5 59t29 56.5t42 43t54.5 16.5q29 0 56.5 -11.5t53 -24t50 -23.5t42.5 -11q33 0 49.5 23.5t20.5 52.5h78q-4 -31 -13.5 -61.5t-26 -55.5t-40 -40t-57.5 -15q-25 0 -52.5 11t-55.5 23.5 t-51.5 23.5t-39.5 11q-33 0 -50.5 -24.5t-21.5 -53.5h-80z" />
<glyph unicode="&#x1b0;&#x303;" horiz-adv-x="907" d="M129 256v553h133v-543q0 -100 40 -143t104 -43q47 0 118.5 40t118.5 116v573h135v-125q39 10 59.5 28.5t28.5 43t5 52.5t-9 54l107 29q12 -51 5 -101.5t-31.5 -90.5t-65.5 -68.5t-99 -38.5v-592h-135v109q-20 -31 -52 -53.5t-65.5 -39t-69.5 -24.5t-67 -8 q-129 0 -194.5 70.5t-65.5 201.5zM227 915q2 29 12.5 59t29 56.5t42 43t54.5 16.5q29 0 56.5 -11.5t53 -24t50 -23.5t42.5 -11q33 0 49.5 23.5t20.5 52.5h78q-4 -31 -13.5 -61.5t-26 -55.5t-40 -40t-57.5 -15q-25 0 -52.5 11t-55.5 23.5t-51.5 23.5t-39.5 11 q-33 0 -50.5 -24.5t-21.5 -53.5h-80z" />
<glyph unicode="&#x1af;&#x323;" horiz-adv-x="1030" d="M123 418v577h143v-577q0 -104 13.5 -166t41 -95.5t73.5 -44t110 -10.5q63 0 108 10.5t74 44t42 95t13 166.5v577h144v-114q39 2 59.5 19.5t29.5 43t7 57t-8 62.5l117 31q8 -61 -5.5 -115.5t-42 -97.5t-69.5 -69t-88 -28v-366q0 -119 -18.5 -202t-62.5 -133t-118 -72.5 t-182 -22.5q-109 0 -182.5 22.5t-117.5 72.5t-62.5 133t-18.5 202zM448 -100h133v-142h-133v142z" />
<glyph unicode="&#x1b0;&#x323;" horiz-adv-x="907" d="M129 256v553h133v-543q0 -100 40 -143t104 -43q47 0 118.5 40t118.5 116v573h135v-125q39 10 59.5 28.5t28.5 43t5 52.5t-9 54l107 29q12 -51 5 -101.5t-31.5 -90.5t-65.5 -68.5t-99 -38.5v-592h-135v109q-20 -31 -52 -53.5t-65.5 -39t-69.5 -24.5t-67 -8 q-129 0 -194.5 70.5t-65.5 201.5zM377 -100h133v-142h-133v142z" />
<glyph unicode="Y&#x300;" horiz-adv-x="866" d="M41 995h162l231 -471l230 471h161l-321 -606v-389h-144v389zM183 1352h159l131 -215h-100z" />
<glyph unicode="y&#x300;" horiz-adv-x="731" d="M-19 -196q1 22 6 36.5t13 9.5q49 -23 98 -22q25 0 52.5 5t55 24.5t52.5 56.5t41 98l-279 797h142l203 -616h2l204 616h144l-303 -868q-41 -117 -125 -172.5t-195 -55.5q-49 0 -100 15q-6 12 -9 33q-2 16 -3 33q1 5 1 10zM152 1114h159l131 -215h-100z" />
<glyph unicode="Y&#x323;" horiz-adv-x="866" d="M41 995h162l231 -471l230 471h161l-321 -606v-389h-144v389zM368 -100h133v-142h-133v142z" />
<glyph unicode="y&#x323;" horiz-adv-x="731" d="M-19 -196q1 22 6 36.5t13 9.5q49 -23 98 -22q25 0 52.5 5t55 24.5t52.5 56.5t41 98l-279 797h142l203 -616h2l204 616h144l-303 -868q-41 -117 -125 -172.5t-195 -55.5q-49 0 -100 15q-6 12 -9 33q-2 16 -3 33q1 5 1 10zM452 -100h133v-142h-133v142z" />
<glyph unicode="Y&#x309;" horiz-adv-x="866" d="M41 995h162l231 -471l230 471h161l-321 -606v-389h-144v389zM295 1336q23 41 63 65.5t83 24.5q63 0 100 -41t37 -96q0 -35 -16.5 -67t-37 -56.5t-41 -43t-30.5 -24.5l-80 62q51 35 79 60.5t28 64.5q0 29 -14.5 41t-30.5 12q-35 0 -74 -58z" />
<glyph unicode="y&#x309;" horiz-adv-x="731" d="M-19 -196q1 22 6 36.5t13 9.5q49 -23 98 -22q25 0 52.5 5t55 24.5t52.5 56.5t41 98l-279 797h142l203 -616h2l204 616h144l-303 -868q-41 -117 -125 -172.5t-195 -55.5q-49 0 -100 15q-6 12 -9 33q-2 16 -3 33q1 5 1 10zM204 1209q23 41 63 65.5t83 24.5q63 0 100 -41 t37 -96q0 -35 -16.5 -67t-37 -56.5t-41 -43t-30.5 -24.5l-80 62q51 35 79 60.5t28 64.5q0 29 -14.5 41t-30.5 12q-35 0 -74 -58z" />
<glyph unicode="Y&#x303;" horiz-adv-x="866" d="M41 995h162l231 -471l230 471h161l-321 -606v-389h-144v389zM190 1140q2 29 12.5 59t29 56.5t42 43t54.5 16.5q29 0 56.5 -11.5t53 -24t50 -23.5t42.5 -11q33 0 49.5 23.5t20.5 52.5h78q-4 -31 -13.5 -61.5t-26 -55.5t-40 -40t-57.5 -15q-25 0 -52.5 11t-55.5 23.5 t-51.5 23.5t-39.5 11q-33 0 -50.5 -24.5t-21.5 -53.5h-80z" />
<glyph unicode="y&#x303;" horiz-adv-x="731" d="M-19 -196q1 22 6 36.5t13 9.5q49 -23 98 -22q25 0 52.5 5t55 24.5t52.5 56.5t41 98l-279 797h142l203 -616h2l204 616h144l-303 -868q-41 -117 -125 -172.5t-195 -55.5q-49 0 -100 15q-6 12 -9 33q-2 16 -3 33q1 5 1 10zM104 915q2 29 12.5 59t29 56.5t42 43t54.5 16.5 q29 0 56.5 -11.5t53 -24t50 -23.5t42.5 -11q33 0 49.5 23.5t20.5 52.5h78q-4 -31 -13.5 -61.5t-26 -55.5t-40 -40t-57.5 -15q-25 0 -52.5 11t-55.5 23.5t-51.5 23.5t-39.5 11q-33 0 -50.5 -24.5t-21.5 -53.5h-80z" />
<glyph unicode="&#xe4f;&#x22;" horiz-adv-x="985" d="M74 412q0 92 34.5 167.5t92 131t134.5 85t159 29.5t156.5 -29.5t133 -85t93 -131t34.5 -167.5q0 -90 -34.5 -166t-93 -130.5t-133.5 -84t-156 -29.5q-82 0 -159 29.5t-134.5 84t-92 130.5t-34.5 166zM170 412q0 -68 25.5 -127.5t68.5 -102.5t102.5 -68.5t127.5 -25.5 q66 0 124 25.5t101 68.5t68.5 102.5t25.5 127.5t-25.5 127t-68.5 104t-101.5 70.5t-123.5 25.5q-68 0 -127.5 -25.5t-102.5 -70.5t-68.5 -104t-25.5 -127zM297 418q0 41 15.5 76.5t43 62.5t63.5 42t77 15t76.5 -15t63.5 -42t43 -62.5t15 -76.5q0 -43 -15 -79t-43 -62.5 t-63.5 -42t-76.5 -15.5t-77 15.5t-63.5 42t-43 62.5t-15.5 79zM328 1114h125l-9 -215h-94zM391 418q0 -45 31 -76t74 -31t73.5 31t30.5 76q0 41 -30.5 71.5t-73.5 30.5t-74 -30.5t-31 -71.5zM524 1114h125l-22 -215h-95z" />
<glyph unicode="&#xe24;&#xe32;" horiz-adv-x="1544" d="M92 653q0 18 31 49t81 60t117.5 49t141.5 20q70 0 132 -14t110.5 -51t76 -99.5t27.5 -156.5v-817h-123v817q0 80 -13.5 125t-41 68.5t-69.5 29.5t-99 6q-51 0 -96 -9t-79 -22.5t-54.5 -26.5t-20.5 -24q0 -6 6 -16t14.5 -21.5t17.5 -18.5t15 -7q16 0 34.5 13.5t37.5 13.5 q6 0 17.5 -13.5t21.5 -30t14 -29.5t-4 -13q-31 0 -54.5 -5.5t-40 -23t-25.5 -51t-9 -90.5v-207q0 -47 18.5 -73t49.5 -26q35 0 53 22.5t18 53.5t-17.5 52.5t-47.5 21.5h-58v33l58 39q59 0 99 -42t40 -104q0 -61 -42 -104t-103 -43q-35 0 -69 12t-61.5 36.5t-44 61.5 t-16.5 86v181q0 78 15.5 113.5t50.5 70.5q-8 4 -25.5 16.5t-36 27.5t-33 31.5t-14.5 28.5zM838 668q18 27 56 55.5t84 53t94 39.5t87 15q57 0 110.5 -14t95.5 -45t66.5 -81t24.5 -122q0 -66 -1 -124t-1 -121q0 -14 1 -62.5t2 -112t2 -134t3 -132t4 -106.5t4 -56 q4 -20 -1 -24t-13 -4h-121q0 150 -2 276q0 53 -1 107.5t-2 101.5t-1 83v52q0 66 2 115t2 121q0 68 -20.5 105.5t-48 56t-54 23.5t-39.5 5q-72 0 -127 -36.5t-108 -98.5q-4 -6 -16.5 -2t-27.5 14.5t-29.5 25t-24.5 26.5z" />
<glyph unicode="&#xe26;&#xe32;" horiz-adv-x="1605" d="M61 135q0 61 37 102.5t95 41.5l47 -35v-33h-47q-31 0 -44.5 -22.5t-13.5 -53.5t18.5 -53.5t53.5 -22.5q31 0 51.5 23.5t20.5 71.5q0 23 -5.5 55.5t-10.5 68t-10 70.5t-5 62q0 39 5 72.5t38 66.5q-8 4 -25.5 16.5t-36 27.5t-33 31.5t-14.5 28.5q0 18 25.5 49t71 60t108 49 t135.5 20q70 0 134.5 -14t113.5 -51t79 -99.5t30 -156.5v-817h-123v817q0 80 -15.5 125t-45 68.5t-72.5 29.5t-101 6q-51 0 -91 -9t-68.5 -22.5t-44 -26.5t-15.5 -24q0 -6 7 -18t18.5 -23.5t21.5 -20.5t17 -9q16 0 34.5 13t36.5 13q6 0 15.5 -13t17.5 -29.5t11 -30t-5 -13.5 q-37 0 -59.5 -5t-32.5 -19.5t-13 -40t-3 -68.5q0 -35 2 -62l4 -56q2 -28 4 -57.5t2 -67.5q0 -78 -46 -120t-118 -42t-114 43t-42 104zM899 668q18 27 56 55.5t84 53t94.5 39.5t87.5 15q57 0 110 -14t95 -45t67 -81t25 -122q0 -66 -1 -124t-1 -121q0 -14 1 -62.5t2 -112 t2 -134t3 -132t4 -106.5t4 -56q4 -20 -1 -24t-13 -4h-121q0 150 -2 276q0 53 -1 107.5t-2 101.5t-1 83v52q0 66 2 115t2 121q0 68 -20.5 105.5t-48.5 56t-54.5 23.5t-38.5 5q-72 0 -127 -36.5t-109 -98.5q-4 -6 -16 -2t-27.5 14.5t-30 25t-24.5 26.5z" />
<glyph unicode="&#xfb01;" horiz-adv-x="849" d="M16 715v94h134v115q0 106 55 161.5t160 55.5q25 0 59.5 -5.5t62.5 -9.5v-118q-23 8 -55.5 12t-56.5 4q-41 0 -65.5 -28.5t-24.5 -100.5v-86h166v-94h-166v-715h-135v715h-134zM600 0v809h133v-809h-133zM600 987v137h133v-137h-133z" />
<glyph unicode="&#xfb02;" horiz-adv-x="849" d="M16 715v94h134v115q0 106 55 161.5t160 55.5q25 0 59.5 -5.5t62.5 -9.5v-118q-23 8 -55.5 12t-56.5 4q-41 0 -65.5 -28.5t-24.5 -100.5v-86h166v-94h-166v-715h-135v715h-134zM600 0v1124h133v-1124h-133z" />
<glyph unicode="B&#x35;&#x31;&#x33;DS&#x21;GN" horiz-adv-x="6897" d="M123 0v995h354q78 0 131.5 -17t86 -47t47 -70t14.5 -87q0 -82 -34 -131t-87 -68q39 -8 71.5 -34.5t56 -62.5t37 -78t13.5 -83q0 -68 -18.5 -126t-58.5 -100t-104.5 -66.5t-158.5 -24.5h-350zM266 106h187q113 0 165 45.5t52 165.5q0 49 -10.5 87t-37 64t-72.5 39t-118 13 h-166v-414zM270 623h166q98 0 137 41t39 110q0 59 -30.5 84t-104.5 25h-207v-260zM928 162l88 61q39 -78 93 -106.5t128 -28.5q63 0 106 17.5t69 48t37 74.5t11 98q0 125 -45 183t-151 58q-59 0 -124 -27.5t-91 -86.5l-88 10l43 532l997 2v-899q66 0 144.5 -2t154.5 -3 t138.5 -3t94.5 -2q102 0 143.5 53.5t41.5 122.5q0 102 -55.5 151.5t-186.5 49.5h-86v100h72q125 0 176 47t51 140q0 59 -37 105t-131 46q-51 0 -101 -25.5t-100 -86.5l-82 67q66 78 139.5 110.5t151.5 32.5q131 0 210 -62t79 -179q0 -94 -38 -156.5t-105 -85.5 q31 -8 61.5 -27.5t55 -50t40 -73.5t15.5 -99q0 -133 -70 -207.5t-248 -74.5l-815 14v98h154v797h-750l-26 -295q43 41 90 55.5t96 14.5q68 0 124 -21.5t98 -63.5t65.5 -105.5t23.5 -147.5q0 -90 -26.5 -155.5t-74.5 -107.5t-113.5 -62.5t-145.5 -20.5q-43 0 -88 11t-85 32.5 t-74 55.5t-54 77zM3070 0v995h330q219 0 320.5 -128t101.5 -384q0 -242 -101.5 -362.5t-320.5 -120.5h-330zM3213 106h187q86 0 140 20.5t84 65t40 116t10 175.5q0 115 -10 192t-40 125t-84 68.5t-140 20.5h-187v-783zM3942 295q47 -160 145.5 -233.5t272.5 -73.5 q160 0 246 77.5t86 196.5q0 80 -43 131t-106.5 86t-138.5 59.5t-138.5 51t-106.5 60.5t-43 89q0 61 49.5 103.5t135.5 42.5q94 0 148.5 -44t84.5 -141l131 27q-41 133 -135 202.5t-229 69.5q-160 0 -244 -71.5t-84 -188.5q0 -82 43 -135t106.5 -88t138.5 -58.5t138.5 -51 t106.5 -63.5t43 -95t-54.5 -101.5t-132.5 -42.5q-43 0 -87 10.5t-82 35t-67.5 66.5t-45.5 108zM4833 0h178v162h-178v-162zM4833 995l29 -682h121l28 682h-178zM5165 496q0 135 18.5 231t62.5 158.5t116.5 91.5t179.5 29q68 0 144.5 -21.5t131.5 -64.5l-63 -99 q-47 41 -100.5 57.5t-114.5 16.5q-72 0 -118 -20.5t-71.5 -67.5t-36 -123t-10.5 -188q0 -113 10.5 -189t36 -123t71.5 -67.5t118 -20.5q31 0 79 16.5t95 57.5v252h-43q-39 0 -61.5 -4t-35 -6t-17.5 0t-11 14q-10 20 -12 56t4 48h313v-419q-41 -43 -117.5 -84t-191.5 -41 q-106 0 -179 28.5t-117 91t-62.5 159t-18.5 231.5zM6044 0v995h190l395 -759v759h144v-995h-164l-422 827v-827h-143z" />
<glyph unicode=" "  horiz-adv-x="563" />
<glyph unicode="&#x09;" horiz-adv-x="563" />
<glyph unicode="&#xa0;" horiz-adv-x="563" />
<glyph unicode="!" horiz-adv-x="391" d="M106 0v162h179v-162h-179zM106 995h179l-29 -682h-121z" />
<glyph unicode="&#x22;" horiz-adv-x="460" d="M72 719v330h112v-330h-112zM276 719v330h113v-330h-113z" />
<glyph unicode="#" horiz-adv-x="737" d="M35 293v84h143l31 186h-137v84h143l45 311h109l-45 -311h153l43 311h109l-43 -311h119v-84h-132l-28 -186h123v-84h-131l-45 -293h-107l45 293h-154l-45 -293h-106l45 293h-135zM285 377h153l31 186h-156z" />
<glyph unicode="$" horiz-adv-x="866" d="M45 227l94 72q18 -41 43 -79t56.5 -65.5t70.5 -44t88 -16.5v371q-55 16 -111.5 36.5t-100.5 51.5t-71.5 78t-27.5 114q0 72 23.5 120t65.5 78t99.5 43t122.5 15v150h74v-150q53 -2 100 -19t86 -44t67 -58.5t42 -62.5q-2 0 -14.5 -11t-27.5 -24.5t-28.5 -25t-17.5 -13.5 q-37 68 -83 109t-124 51v-346q59 -16 118.5 -37.5t107.5 -56.5t79 -86t31 -125q0 -72 -27.5 -120t-75 -76.5t-107.5 -42t-126 -13.5v-184h-74v184q-115 4 -209 63.5t-143 163.5zM211 752q0 -43 13.5 -72t38 -47.5t58 -30.5t76.5 -22v325q-92 0 -139 -36.5t-47 -116.5z M471 94q98 2 154.5 42t56.5 120q0 51 -17.5 82t-46 50.5t-66.5 31.5t-81 26v-352z" />
<glyph unicode="%" horiz-adv-x="1222" d="M113 768q0 47 17 88t48 71.5t72 49t86 18.5q47 0 89 -18.5t72.5 -49t48 -71.5t17.5 -88t-17.5 -88t-48 -71.5t-72.5 -48t-89 -17.5q-45 0 -86 17.5t-72 48t-48 71.5t-17 88zM209 768q-2 -53 36 -91t91 -38q55 0 93 38t38 91q0 55 -38 92t-93 37q-53 0 -91 -37t-36 -92z M285 -14l549 1024h106l-551 -1024h-104zM657 225q0 47 18.5 88t49.5 72t72 48.5t86 17.5q47 0 88 -17.5t71.5 -48.5t49 -72t18.5 -88q0 -45 -18.5 -86t-49 -71.5t-71.5 -49t-88 -18.5q-45 0 -86 18.5t-72 49t-49.5 71.5t-18.5 86zM756 225q-2 -53 35.5 -91t91.5 -38 q55 0 94 38t37 91q2 53 -37 92t-94 39q-53 0 -91 -39t-36 -92z" />
<glyph unicode="&#x26;" horiz-adv-x="976" d="M57 244q0 94 52.5 169.5t179.5 147.5q-35 53 -56.5 115.5t-21.5 124.5q0 100 54 154.5t149 54.5q86 0 141 -54.5t55 -146.5q0 -100 -45 -167t-121 -120q59 -82 103.5 -151.5t107.5 -137.5q29 41 47.5 104.5t18.5 129.5l106 -16q-4 -78 -31.5 -153t-72.5 -140 q41 -29 80 -46.5t92 -21.5l-21 -104q-68 4 -122 32.5t-103 75.5q-55 -53 -133 -80.5t-158 -27.5q-57 0 -112.5 16t-96 48t-66.5 81.5t-26 112.5zM180 238q0 -72 52.5 -110t129.5 -38q88 0 140.5 27.5t77.5 54.5q-25 25 -56.5 61.5t-62.5 78.5t-59.5 84t-51.5 77 q-82 -47 -126 -98t-44 -137zM319 791q0 -47 18.5 -90.5t47.5 -84.5q59 37 87 84.5t28 98.5q0 16 -3 33.5t-13.5 34t-28 26.5t-45.5 10q-49 0 -70 -33.5t-21 -78.5z" />
<glyph unicode="'" horiz-adv-x="327" d="M102 719v330h123v-330h-123z" />
<glyph unicode="(" horiz-adv-x="552" d="M113 541q0 80 8 167t29.5 174t57.5 172t93 160h160q-63 -76 -104.5 -160.5t-64 -171.5t-30.5 -174t-8 -167q0 -82 8 -169t30.5 -174t63.5 -173t105 -162h-160q-57 76 -93 162t-57.5 173t-29.5 174t-8 169z" />
<glyph unicode=")" horiz-adv-x="552" d="M92 -137q66 76 106 162t63.5 173t31.5 174t8 169q0 80 -8 167t-31.5 174t-63.5 172t-106 160h160q57 -76 93 -160.5t57.5 -171.5t29.5 -174t8 -167q0 -82 -8 -169t-29.5 -174t-57.5 -173t-93 -162h-160z" />
<glyph unicode="*" horiz-adv-x="1024" d="M178 1184l45 125l242 -101l-21 271h140l-17 -271l238 105l41 -121l-258 -70l172 -196l-105 -86l-139 225l-143 -225l-107 75l176 207z" />
<glyph unicode="+" horiz-adv-x="1044" d="M102 375v110h355v334h131v-334h354v-110h-354v-334h-131v334h-355z" />
<glyph unicode="," horiz-adv-x="438" d="M127 -238l70 238h-68v162h180v-162l-102 -238h-80z" />
<glyph unicode="-" horiz-adv-x="681" d="M86 416v123h510v-123h-510z" />
<glyph unicode="." horiz-adv-x="438" d="M129 0v162h180v-162h-180z" />
<glyph unicode="/" horiz-adv-x="460" d="M0 -78l371 1231h131l-363 -1231h-139z" />
<glyph unicode="0" horiz-adv-x="870" d="M72 455q0 231 83 357t281 126q98 0 168 -33t113 -94t62.5 -151.5t19.5 -204.5q0 -109 -19.5 -195t-63.5 -146.5t-112.5 -92t-167.5 -31.5q-98 0 -167.5 31.5t-113.5 92t-63.5 146.5t-19.5 195zM201 455q0 -94 8 -163t33.5 -114t71.5 -66.5t122 -21.5t122 21.5t71.5 66.5 t34 113.5t8.5 163.5q0 102 -8.5 174.5t-34 119t-71.5 67t-122 20.5t-122 -20.5t-71.5 -67t-33.5 -119t-8 -174.5z" />
<glyph unicode="1" horiz-adv-x="661" d="M92 0v94h182v703l-172 -41v90l215 88h76v-840h176v-94h-477z" />
<glyph unicode="2" horiz-adv-x="776" d="M82 0v76q0 47 6 92t34 89t85 89t160 88q70 29 109.5 58.5t59 59.5t24.5 60.5t5 63.5q0 72 -35.5 118t-128.5 46q-66 0 -120 -37t-76 -139l-113 18q23 127 111 192.5t207 65.5q141 0 212.5 -74.5t71.5 -195.5q0 -113 -70.5 -191t-201.5 -135q-82 -35 -129 -66.5 t-69.5 -61.5t-28 -58.5t-5.5 -57.5h488v-100h-596z" />
<glyph unicode="3" horiz-adv-x="813" d="M72 172l94 59q57 -90 117.5 -116.5t124.5 -26.5q102 0 143 53.5t41 122.5q0 102 -55.5 141t-186.5 39h-86v101h72q125 0 176 36.5t51 129.5q0 59 -37 95t-131 36q-51 0 -101 -25.5t-99 -87.5l-82 68q66 78 139.5 110.5t150.5 32.5q131 0 210 -52t79 -169 q0 -94 -38 -146.5t-105 -74.5q31 -8 61.5 -24.5t55 -44.5t40 -66.5t15.5 -94.5q0 -133 -69.5 -207.5t-248.5 -74.5q-227 0 -331 186z" />
<glyph unicode="4" horiz-adv-x="757" d="M41 182v99l408 653h147v-649h141v-103h-141v-182h-119v182h-436zM172 285h305v514h-10z" />
<glyph unicode="5" horiz-adv-x="845" d="M92 162l88 61q39 -78 93.5 -106.5t127.5 -28.5q127 0 175.5 55.5t48.5 161.5q0 125 -45 173t-152 48q-59 0 -123.5 -27.5t-91.5 -86.5l-88 10l43 512h516v-100h-401l-27 -275q43 41 90 55.5t96 14.5q68 0 124.5 -18.5t98.5 -56.5t65.5 -98.5t23.5 -144.5 q0 -90 -27 -152.5t-75 -100.5t-113.5 -55t-145.5 -17q-43 0 -88 11t-85 32.5t-74 55.5t-54 77z" />
<glyph unicode="6" horiz-adv-x="835" d="M92 430q0 244 83 377t280 133q61 0 130.5 -19.5t116.5 -56.5l-55 -90q-39 35 -90 51.5t-104 16.5q-70 0 -115 -20.5t-71.5 -65.5t-37 -117t-10.5 -172q47 53 111.5 83t142.5 30q86 0 141.5 -24t89 -64.5t47 -96t13.5 -121.5q0 -135 -80 -211.5t-235 -76.5 q-195 0 -276 107.5t-81 336.5zM223 330q0 -76 15.5 -123t45 -74t71.5 -35t96 -8q109 0 146.5 45t37.5 154q0 96 -38 143t-146 47q-51 0 -93.5 -18.5t-72 -44t-46 -50t-16.5 -36.5z" />
<glyph unicode="7" horiz-adv-x="694" d="M61 834v100h592v-84l-395 -850h-141l397 834h-453z" />
<glyph unicode="8" horiz-adv-x="866" d="M92 248q0 72 46 132t167 114q-88 31 -133 86t-45 116q0 119 80 182.5t227 63.5t226 -63.5t79 -182.5q0 -61 -46 -116.5t-132 -85.5q121 -53 167 -114t46 -132q0 -127 -83 -194.5t-257 -67.5t-258 67.5t-84 194.5zM221 248q0 -160 213 -160q102 0 156.5 40t54.5 120 q0 37 -12 64.5t-38 49t-66 42t-95 42.5q-57 -23 -98 -43t-66.5 -41.5t-37 -49t-11.5 -64.5zM254 700q0 -115 180 -161q86 23 132 62.5t46 98.5q0 143 -178 144q-180 -1 -180 -144z" />
<glyph unicode="9" horiz-adv-x="833" d="M72 653q0 135 79.5 212t233.5 77q195 0 275.5 -106.5t80.5 -335.5q0 -123 -14 -218.5t-54 -161t-109.5 -99t-182.5 -33.5q-31 0 -68 5t-72.5 15t-69.5 24.5t-58 33.5l57 90q37 -35 97.5 -51.5t113.5 -16.5q70 0 115 20.5t71.5 65.5t36.5 116.5t10 172.5 q-47 -53 -110.5 -84t-141.5 -31q-86 0 -141 23.5t-89 64.5t-47 97.5t-13 119.5zM201 639q0 -94 36.5 -141t145.5 -47q53 0 95 18t72 43t46 49.5t16 36.5q0 78 -16 125t-46 72.5t-72 35t-95 9.5q-109 0 -145.5 -46t-36.5 -155z" />
<glyph unicode=":" horiz-adv-x="460" d="M137 0v170h187v-170h-187zM137 506v170h187v-170h-187z" />
<glyph unicode=";" horiz-adv-x="460" d="M133 -250l76 250h-72v170h187v-170l-107 -250h-84zM137 506v170h187v-170h-187z" />
<glyph unicode="&#x3c;" horiz-adv-x="995" d="M66 375v112l864 385v-127l-731 -313l731 -315v-127z" />
<glyph unicode="=" horiz-adv-x="995" d="M66 221v109h864v-109h-864zM66 553v109h864v-109h-864z" />
<glyph unicode="&#x3e;" horiz-adv-x="995" d="M66 -10v127l731 315l-731 313v127l864 -374v-133z" />
<glyph unicode="?" horiz-adv-x="706" d="M47 1010q35 94 122 149t196 55q61 0 114 -17t93 -51t62.5 -85t22.5 -117q0 -82 -41 -139t-90 -108.5t-90 -109t-41 -143.5v-79h-149v79q0 80 41 142.5t90 121t90 120t41 139.5q0 47 -38 87t-108 40q-82 0 -125.5 -46.5t-64.5 -99.5zM213 0v170h205v-170h-205z" />
<glyph unicode="@" horiz-adv-x="1124" d="M72 508q0 106 41 199.5t110.5 163t162.5 109.5t198 40q98 0 184 -32t149.5 -88t99.5 -135t36 -173q0 -82 -29 -151.5t-75 -121t-102 -81t-110 -29.5q-37 0 -64.5 22.5t-29.5 57.5h-2q-35 -35 -74 -57.5t-92 -22.5q-45 0 -79 17.5t-56.5 46t-34.5 65.5t-12 78 q0 76 20.5 144.5t59.5 120.5t98 83t135 31q47 0 84 -26t47 -77l29 74h94l-137 -356q-8 -23 -9 -38.5t-1 -31.5q0 -37 39 -37q41 0 77.5 22.5t64.5 62.5t44 93.5t16 112.5q0 84 -28.5 146.5t-77.5 105.5t-116.5 64.5t-145.5 21.5q-94 0 -172 -33t-131.5 -91t-83 -137 t-29.5 -173q0 -92 30.5 -170t86 -133.5t132.5 -87t169 -31.5q106 0 193 37t149 129h100q-33 -59 -80 -106.5t-105.5 -81.5t-124 -51t-132.5 -17q-111 0 -205 41t-162.5 112.5t-108.5 167t-40 201.5zM399 424q0 -66 20.5 -95.5t74.5 -29.5q43 0 76.5 26.5t56 68.5t35 93.5 t12.5 98.5q0 51 -16.5 83.5t-57.5 32.5q-55 0 -93 -23.5t-61.5 -62t-35 -89t-11.5 -103.5z" />
<glyph unicode="A" horiz-adv-x="948" d="M41 0l354 993h160l352 -993h-147l-88 268h-396l-88 -268h-147zM309 379h332l-166 481z" />
<glyph unicode="B" horiz-adv-x="874" d="M123 0v995h354q78 0 131.5 -18.5t86 -50t47 -73.5t14.5 -89q0 -82 -34 -136.5t-87 -72.5q39 -8 71.5 -33.5t56 -59.5t37 -74t13.5 -81q0 -68 -18.5 -124t-58.5 -97t-104.5 -63.5t-158.5 -22.5h-350zM262 106h191q113 0 165 41t52 160q0 49 -10.5 86t-37 60.5t-72.5 35 t-118 11.5h-170v-394zM262 602h174q98 0 137 46t39 116q0 59 -30.5 89t-104.5 30h-215v-281z" />
<glyph unicode="C" horiz-adv-x="776" d="M82 496q0 135 18.5 231t62.5 158.5t116.5 91.5t179.5 29q68 0 144.5 -21.5t131.5 -64.5l-63 -99q-47 41 -100.5 57.5t-114.5 16.5q-72 0 -118 -20.5t-71.5 -67.5t-36 -123t-10.5 -188q0 -113 10.5 -189t36 -123t71.5 -67.5t118 -20.5q61 0 114.5 16.5t100.5 57.5l63 -98 q-55 -43 -132 -64.5t-144 -21.5q-106 0 -179 28.5t-117 91t-62.5 159t-18.5 231.5z" />
<glyph unicode="D" horiz-adv-x="956" d="M123 0v995h330q219 0 320 -128t101 -384q0 -242 -101 -362.5t-320 -120.5h-330zM266 106h187q86 0 140 20.5t84 65t40 116t10 175.5q0 115 -10 192t-40 125t-84 68.5t-140 20.5h-187v-783z" />
<glyph unicode="E" horiz-adv-x="749" d="M123 0v995h586v-106h-443v-316h381v-106h-381v-361h436v-106h-579z" />
<glyph unicode="F" horiz-adv-x="749" d="M123 0v995h586v-106h-443v-316h381v-106h-381v-467h-143z" />
<glyph unicode="G" horiz-adv-x="890" d="M102 496q0 135 18.5 231t62.5 158.5t117 91.5t179 29q68 0 144.5 -21.5t132.5 -64.5l-64 -99q-47 41 -100 57.5t-115 16.5q-72 0 -118 -20.5t-71.5 -67.5t-35.5 -123t-10 -188q0 -113 10 -189t35.5 -123t72 -67.5t117.5 -20.5q31 0 79 16.5t95 57.5v252h-43 q-39 0 -61.5 -4t-34.5 -6t-17.5 0t-11.5 14q-10 20 -12 56t4 48h313v-419q-41 -43 -117.5 -84t-191.5 -41q-106 0 -179 28.5t-117 91t-62.5 159t-18.5 231.5z" />
<glyph unicode="H" horiz-adv-x="933" d="M123 0v995h143v-422h402v422h143v-995h-143v467h-402v-467h-143z" />
<glyph unicode="I" horiz-adv-x="565" d="M41 0v96h168v803h-162v96h477v-96h-174v-803h168v-96h-477z" />
<glyph unicode="J" horiz-adv-x="677" d="M20 72l64 98q47 -41 90 -57.5t105 -16.5q41 0 66.5 13.5t40.5 51.5t20.5 106.5t5.5 181.5v546h143v-546q0 -135 -12.5 -224.5t-43 -142.5t-85 -74.5t-138.5 -21.5q-68 0 -134.5 21.5t-121.5 64.5z" />
<glyph unicode="K" horiz-adv-x="888" d="M123 0v995h143v-422l361 422h182l-367 -417l371 -578h-172l-289 483l-86 -94v-389h-143z" />
<glyph unicode="L" horiz-adv-x="729" d="M123 0v995h143v-889h443v-106h-586z" />
<glyph unicode="M" horiz-adv-x="1191" d="M123 0v995h211l262 -831l262 831h211v-995h-139v827l-262 -827h-144l-262 827v-827h-139z" />
<glyph unicode="N" horiz-adv-x="974" d="M123 0v995h190l396 -759v759h143v-995h-164l-422 827v-827h-143z" />
<glyph unicode="O" horiz-adv-x="966" d="M82 485q0 256 91 386t310 130q109 0 185.5 -32.5t125 -97t70 -162t21.5 -224.5q0 -119 -21.5 -212t-70 -156.5t-125 -96t-185.5 -32.5q-217 0 -309 128.5t-92 368.5zM229 485q0 -104 12.5 -175.5t42 -118t79 -67t120.5 -20.5q72 0 120 20.5t78 67t43 118t13 175.5 q0 115 -13 192t-43 124t-78 67.5t-120 20.5t-121 -20.5t-78.5 -67.5t-42 -124t-12.5 -192z" />
<glyph unicode="P" horiz-adv-x="874" d="M123 0v995h330q102 0 170.5 -19.5t110.5 -58t60.5 -98t18.5 -141.5q0 -74 -21.5 -131.5t-69.5 -97t-125 -60t-185 -20.5h-146v-369h-143zM266 475h166q129 0 183.5 44t54.5 159q0 121 -52.5 166t-164.5 45h-187v-414z" />
<glyph unicode="Q" horiz-adv-x="1048" d="M123 485q0 256 91 386t310 130q109 0 185.5 -32.5t125 -97t70 -162t21.5 -224.5q0 -119 -21.5 -212t-70 -156.5t-125 -96t-185.5 -32.5q-217 0 -309 128.5t-92 368.5zM270 485q0 -104 12.5 -175.5t42 -118t79 -67t120.5 -20.5q72 0 120 20.5t78 67t43 118t13 175.5 q0 115 -13 192t-43 124t-78 67.5t-120 20.5t-121 -20.5t-78.5 -67.5t-42 -124t-12.5 -192zM512 268l106 31l308 -373l-144 -32z" />
<glyph unicode="R" horiz-adv-x="894" d="M123 0v995h330q102 0 170.5 -18.5t110.5 -55t60.5 -90t18.5 -122.5q0 -111 -63.5 -175.5t-155.5 -76.5l215 -457h-168l-192 451h-183v-451h-143zM266 557h207q82 0 137.5 34t55.5 118q0 90 -52.5 124.5t-160.5 34.5h-187v-311z" />
<glyph unicode="S" horiz-adv-x="913" d="M82 295l137 29q16 -66 46 -108t68 -66.5t82 -35t87 -10.5q78 0 132 42t54 102q0 59 -43 95t-106.5 63.5t-138 51t-138 58.5t-106.5 88t-43 135q0 117 84 188.5t243 71.5q135 0 229.5 -69.5t135.5 -202.5l-131 -27q-31 96 -85 140.5t-149 44.5q-86 0 -135 -42t-49 -104 q0 -55 43 -89t106.5 -60.5t138 -51t138 -59.5t106.5 -86t43 -131q0 -119 -86 -196.5t-245 -77.5q-174 0 -272.5 73.5t-145.5 233.5z" />
<glyph unicode="T" horiz-adv-x="757" d="M20 889v106h717v-106h-286v-889h-144v889h-287z" />
<glyph unicode="U" horiz-adv-x="1007" d="M123 418v577h143v-577q0 -104 13.5 -166t41 -95.5t73.5 -44t110 -10.5q63 0 108 10.5t74 44t42 95t13 166.5v577h144v-577q0 -119 -18.5 -202t-62.5 -133t-118 -72.5t-182 -22.5q-109 0 -182.5 22.5t-117.5 72.5t-62.5 133t-18.5 202z" />
<glyph unicode="V" horiz-adv-x="907" d="M41 995h152l262 -870l260 870h151l-338 -995h-147z" />
<glyph unicode="W" horiz-adv-x="1159" d="M41 995h152l118 -829l199 829h139l199 -829l119 829h151l-180 -995h-164l-194 852l-195 -852h-164z" />
<glyph unicode="X" horiz-adv-x="858" d="M20 0l322 494l-301 501h164l219 -403l217 403h164l-297 -501l330 -494h-166l-248 385l-242 -385h-162z" />
<glyph unicode="Y" horiz-adv-x="866" d="M41 995h162l231 -471l230 471h161l-321 -606v-389h-144v389z" />
<glyph unicode="Z" horiz-adv-x="811" d="M82 887v108h637v-114l-473 -775h483v-106h-643v106l479 781h-483z" />
<glyph unicode="[" horiz-adv-x="552" d="M145 -121v1319h310v-82h-168v-1155h168v-82h-310z" />
<glyph unicode="\" horiz-adv-x="460" d="M-20 1214h133l368 -1230h-139z" />
<glyph unicode="]" horiz-adv-x="552" d="M98 -39h168v1155h-168v82h310v-1319h-310v82z" />
<glyph unicode="^" horiz-adv-x="933" d="M88 461l315 663h125l318 -663h-144l-239 510l-232 -510h-143z" />
<glyph unicode="_" horiz-adv-x="972" d="M0 -125h973v-119h-973v119z" />
<glyph unicode="`" horiz-adv-x="346" d="M-20 1114h159l131 -215h-100z" />
<glyph unicode="a" horiz-adv-x="778" d="M41 217q0 82 26.5 133t85 81t148.5 42t217 19v96q0 43 -15.5 71.5t-37 44t-46 21.5t-42.5 6q-78 0 -131 -38t-105 -99q-4 -6 -16 -2t-27.5 15t-31 25.5t-25.5 26.5q20 27 54 55.5t77 53.5t93 41t100 16q131 0 206.5 -55t75.5 -199v-327q0 -78 12.5 -135.5t30.5 -92.5 q-10 -6 -26.5 -11t-33 -8t-31.5 -5t-24 -2q-8 0 -17 3t-15 17q-4 10 -6 24.5t-7 28.5q-4 16 -6 35q-31 -31 -57.5 -52t-56 -34.5t-65.5 -20.5t-83 -7q-94 0 -157.5 65.5t-63.5 167.5zM168 199q0 -53 23.5 -86t87.5 -33q66 0 120 36t115 97v182q-129 -2 -198.5 -19.5 t-102.5 -44t-39 -61t-6 -71.5z" />
<glyph unicode="b" horiz-adv-x="849" d="M106 10q4 12 10.5 37t12.5 57.5t10 70.5t4 75v874h129v-368q57 35 117 52t125 17q158 0 218.5 -110.5t60.5 -304.5q0 -223 -76 -324.5t-217 -101.5q-43 0 -74 7t-58.5 21.5t-53 38t-56.5 53.5l-4 -41q-2 -16 -5 -30.5t-7 -22.5q-10 -16 -29 -16q-16 0 -53.5 4t-53.5 12z M272 227q45 -63 105.5 -105t116.5 -42q92 0 128.5 79t36.5 234q0 86 -5 150.5t-23.5 105.5t-52 61.5t-89.5 20.5q-53 0 -108 -27.5t-109 -68.5v-408z" />
<glyph unicode="c" horiz-adv-x="741" d="M57 406q0 195 76 307t248 112q100 0 174 -47t129 -119q-10 -12 -25.5 -26.5t-30 -25.5t-26.5 -15t-18 2q-25 31 -47.5 56.5t-47 44t-53 27.5t-67.5 9q-31 0 -63 -7t-57.5 -40t-42 -98.5t-16.5 -179.5q0 -115 16.5 -180.5t42 -97.5t57.5 -40t63 -8q39 0 67.5 9t53 27.5 t47 44t47.5 56.5q6 6 18 2t26.5 -15t30 -25.5t25.5 -26.5q-55 -72 -129 -119t-174 -47q-172 0 -248 112.5t-76 307.5z" />
<glyph unicode="d" horiz-adv-x="849" d="M57 410q0 195 65.5 305t223.5 110q41 0 72 -4t56.5 -11t50 -18.5t53.5 -25.5v358h129v-874q0 -37 4 -75t10 -70.5t12 -57t10 -37.5q-16 -8 -53 -12t-53 -4q-18 0 -29 16q-4 8 -7 22.5t-5 30.5l-4 41q-31 -31 -56.5 -54t-53 -37.5t-58.5 -21.5t-74 -7q-141 0 -217 101.5 t-76 324.5zM190 393q0 -156 37 -234.5t129 -78.5q43 0 75 11t56.5 30.5t46 47.5t44.5 58v408q-41 41 -94.5 68.5t-123.5 27.5q-55 0 -88.5 -20.5t-52 -61.5t-24 -105.5t-5.5 -150.5z" />
<glyph unicode="e" horiz-adv-x="786" d="M57 401v5q0 219 88 319t244 100q104 0 169 -35.5t98.5 -97t45 -144.5t11.5 -177h-523q0 -82 17.5 -136.5t46.5 -86t64.5 -45t70.5 -13.5q86 0 140.5 27.5t99.5 93.5q4 6 16 2t27.5 -14.5t31 -24.5t25.5 -27q-55 -72 -141 -118.5t-187 -46.5q-166 0 -255 104t-89 315z M190 467h398q0 135 -45 199.5t-152 64.5q-92 0 -146.5 -61.5t-54.5 -202.5z" />
<glyph unicode="f" horiz-adv-x="434" d="M16 715v94h113v115q0 106 54.5 161.5t158.5 55.5q49 0 100 -15q6 -12 10 -32q2 -15 2 -30q0 -24 -7 -41q-5 -13 -13 -9q-43 20 -96 20q-25 0 -50.5 -21.5t-25.5 -76.5v-127h146v-94h-146v-715h-133v715h-113z" />
<glyph unicode="g" horiz-adv-x="778" d="M31 -96q0 53 28.5 97t114.5 75v4q-57 10 -82.5 42t-25.5 66q0 53 29.5 91t78.5 55q-41 23 -72.5 79t-31.5 119q0 135 87 214t234 79q59 0 104.5 -19.5t61.5 -29.5q33 35 80 61.5t90 26.5q25 0 25 -24q0 -14 -1 -29.5t-3 -28.5q-2 -14 -7 -26q-41 0 -67.5 -9.5 t-50.5 -29.5q29 -35 42 -72t13 -96q0 -74 -24.5 -128t-67.5 -88t-100.5 -50.5t-120.5 -16.5q-25 0 -54.5 7.5t-60.5 19.5q-39 -16 -54.5 -35.5t-15.5 -42.5q0 -35 50.5 -53.5t179.5 -18.5q182 0 263 -55t81 -154q0 -45 -18.5 -84.5t-61.5 -70.5t-114 -48.5t-175 -17.5 t-173 16.5t-109 43t-56 61.5t-16 70zM156 -78q0 -59 59 -87t156 -28q121 0 189.5 28t68.5 91q0 25 -7.5 46.5t-34 36t-79.5 22.5t-143 8q-109 0 -159 -32t-50 -85zM205 543q0 -51 16.5 -87t41 -56.5t54 -30t56.5 -9.5q68 0 119 39t51 144q0 106 -51.5 147t-118.5 41 q-66 0 -117 -46t-51 -142z" />
<glyph unicode="h" horiz-adv-x="886" d="M129 0v1124h133v-422q49 59 123 91t133 32q127 0 183.5 -70.5t56.5 -201.5v-553h-135v543q0 102 -30 145t-93 43q-59 0 -125 -41t-113 -94v-596h-133z" />
<glyph unicode="i" horiz-adv-x="366" d="M117 0v809h133v-809h-133zM117 987v137h133v-137h-133z" />
<glyph unicode="j" horiz-adv-x="346" d="M-108 -145q7 14 20 8q14 -8 52 -20.5t67 -12.5q33 0 54 14.5t21 57.5v907h134v-897q0 -98 -56.5 -148.5t-140.5 -50.5q-10 0 -30.5 1t-42 2t-40 3t-26.5 7q-12 16 -17 42q-3 20 -3 39q0 31 8 48zM106 987v137h134v-137h-134z" />
<glyph unicode="k" horiz-adv-x="815" d="M129 0v1124h129v-647l307 332h176l-356 -363l395 -446h-174l-305 365l-43 -50v-315h-129z" />
<glyph unicode="l" horiz-adv-x="366" d="M117 0v1124h133v-1124h-133z" />
<glyph unicode="m" horiz-adv-x="1316" d="M129 0v809h133v-102q61 66 126 92t112 26q164 0 196 -127q55 63 118 95t151 32q106 0 164.5 -56t58.5 -165v-604h-135v614q0 68 -36 87.5t-73 19.5q-70 0 -126 -43t-93 -103v-575h-133v614q0 53 -28.5 80t-82.5 27q-27 0 -57.5 -11.5t-60 -32t-56 -47t-45.5 -55.5v-575 h-133z" />
<glyph unicode="n" horiz-adv-x="907" d="M129 0v809h133v-107q49 68 126 95.5t151 27.5q47 0 91 -18.5t76.5 -53t52 -85t19.5 -115.5v-553h-135v543q0 102 -40 140t-103 38q-59 0 -125 -40t-113 -106v-575h-133z" />
<glyph unicode="o" horiz-adv-x="798" d="M57 406q0 98 18.5 175.5t58.5 132t105.5 83t159.5 28.5q96 0 161 -28.5t106 -83t58 -132t17 -175.5t-17 -176t-58 -133.5t-105.5 -84t-161.5 -28.5q-94 0 -159.5 28.5t-105.5 84t-58.5 133.5t-18.5 176zM190 406q0 -166 45.5 -246t163.5 -80q119 0 164 80t45 246 t-45 245.5t-164 79.5t-164 -79.5t-45 -245.5z" />
<glyph unicode="p" horiz-adv-x="843" d="M121 788q18 4 39 11q37 10 69 10q18 0 30.5 -18.5t12.5 -63.5v-22h2q47 72 108.5 96t127.5 24q72 0 124 -22.5t88 -72.5t53.5 -131t17.5 -200q0 -195 -90.5 -305t-249.5 -110q-100 0 -181 39v-310h-129v824q0 18 -1 54t-4 73.5t-7 72.5t-10 51zM272 143q37 -29 77 -47 t79 -18q129 0 180 82t51 256q0 86 -6 145.5t-23.5 96t-50 54t-85.5 17.5q-86 0 -135.5 -42t-86.5 -105v-439z" />
<glyph unicode="q" horiz-adv-x="849" d="M57 399q0 223 71 324.5t212 101.5q84 0 137 -27.5t107 -82.5q4 94 37 94q35 0 71 -10q20 -6 41 -11q-6 -16 -11 -47.5t-8 -68.5t-5 -73t-2 -62v-824h-129v330q-66 -37 -121.5 -48t-89.5 -11q-160 0 -235 110t-75 305zM190 416q0 -86 4.5 -150.5t25 -105.5t60 -61.5 t111.5 -20.5q39 0 95.5 21.5t91.5 64.5v418q-45 63 -97.5 105t-124.5 42q-92 0 -129 -78.5t-37 -234.5z" />
<glyph unicode="r" horiz-adv-x="589" d="M121 0v809h135v-133h2q33 76 94.5 112.5t139.5 36.5q10 0 33.5 -2t35.5 -8q5 -12 5 -33q0 -27 -6 -58q-5 -26 -12 -44t-11 -18q-31 18 -70 18t-77 -16.5t-67.5 -47t-48 -75.5t-18.5 -105v-436h-135z" />
<glyph unicode="s" horiz-adv-x="710" d="M39 147q14 16 29 29q12 10 23 21.5t20 15.5q23 10 36 -8q53 -68 105.5 -96.5t105.5 -28.5q23 0 47.5 9t45 25.5t34 42t13.5 58.5q0 53 -33 83t-81 49.5t-104.5 34.5t-104.5 41t-81 67.5t-33 113.5q0 57 21.5 99t56.5 69t82 40t98 13q86 0 161 -37.5t118 -107.5 q-12 -16 -27 -29q-12 -10 -25.5 -20t-27.5 -15q-10 -4 -15 0.5t-16 16.5q-37 47 -77.5 72.5t-94.5 25.5q-18 0 -38.5 -5t-39 -19.5t-29.5 -38t-11 -60.5q0 -45 32.5 -69.5t80.5 -42t104.5 -35t104.5 -46t81 -75.5t33 -125q0 -55 -23.5 -98t-62.5 -73t-89 -45t-106 -15 q-94 0 -175 38.5t-138 124.5z" />
<glyph unicode="t" horiz-adv-x="493" d="M16 715v94h121v264h133v-264h181v-94h-181v-533q0 -82 84 -82q47 0 97 23q8 4 13 -11.5t6 -36.5v-11q0 -16 -2 -33q-3 -23 -9 -35q-29 -8 -52.5 -9t-52.5 -3q-100 0 -158.5 33.5t-58.5 109.5v588h-121z" />
<glyph unicode="u" horiz-adv-x="907" d="M129 256v553h133v-543q0 -100 40 -143t104 -43q47 0 118.5 40t118.5 116v573h135v-600q0 -55 10.5 -113.5t16.5 -79.5q-16 -8 -51 -12t-52 -4q-8 0 -19 3t-17 13q-4 8 -6.5 22.5t-4.5 31.5q-2 18 -2 39q-20 -31 -53 -53.5t-69.5 -39t-73.5 -24.5t-68 -8 q-129 0 -194.5 70.5t-65.5 201.5z" />
<glyph unicode="v" horiz-adv-x="731" d="M20 809h142l200 -645h5l202 645h142l-279 -809h-133z" />
<glyph unicode="w" horiz-adv-x="1079" d="M12 809h133l160 -629h2l164 629h135l158 -629h4l162 629h137l-236 -809h-112l-180 629h-4l-183 -629h-114z" />
<glyph unicode="x" horiz-adv-x="733" d="M16 0l275 430l-244 379h154l166 -270l165 270h152l-242 -379l275 -430h-152l-198 319l-197 -319h-154z" />
<glyph unicode="y" horiz-adv-x="731" d="M-19 -196q1 22 6 36.5t13 9.5q49 -23 98 -22q25 0 52.5 5t55 24.5t52.5 56.5t41 98l-279 797h142l203 -616h2l204 616h144l-303 -868q-41 -117 -125 -172.5t-195 -55.5q-49 0 -100 15q-6 12 -9 33q-2 16 -3 33q1 5 1 10z" />
<glyph unicode="z" horiz-adv-x="690" d="M39 0v80l426 635h-389v94h555v-78l-426 -637h438v-94h-604z" />
<glyph unicode="{" horiz-adv-x="559" d="M68 469v74q53 0 73.5 33.5t20.5 93.5v293q0 86 35.5 132t101.5 46h137v-78h-78q-31 0 -47 -18.5t-16 -83.5v-287q0 -78 -28.5 -115t-82.5 -51v-4q53 -12 82 -50t29 -116v-287q0 -66 16.5 -84t46.5 -18h78v-78h-137q-66 0 -101.5 46t-35.5 132v293q0 59 -20.5 93t-73.5 34 z" />
<glyph unicode="|" horiz-adv-x="366" d="M121 -16v1157h125v-1157h-125z" />
<glyph unicode="}" horiz-adv-x="559" d="M123 -51h78q31 0 47 18.5t16 83.5v287q0 78 29 116t82 50v4q-53 14 -82 51t-29 115v287q0 66 -16.5 84t-46.5 18h-78v78h137q66 0 101.5 -46t35.5 -132v-293q0 -59 20.5 -93t74.5 -34v-74q-53 0 -74 -34t-21 -93v-293q0 -86 -35.5 -132t-101.5 -46h-137v78z" />
<glyph unicode="~" horiz-adv-x="933" d="M80 391q27 47 76 88t135 41q41 0 88 -14t96 -37q47 -18 92 -34.5t80 -16.5q51 0 76 23.5t53 64.5l78 -66q-27 -49 -75 -90t-136 -41q-41 0 -88 14.5t-96 36.5q-47 18 -92 35t-80 17q-51 0 -76 -23.5t-53 -64.5z" />
<glyph horiz-adv-x="811" d="M82 887v108h637v-114l-473 -775h483v-106h-643v106l479 781h-483zM211 1403h145l88 -137l84 137h145l-178 -215h-104z" />
<glyph unicode="&#x17d;" horiz-adv-x="811" d="M82 887v108h637v-114l-473 -775h483v-106h-643v106l479 781h-483zM211 1403h145l88 -137l84 137h145l-178 -215h-104z" />
<glyph horiz-adv-x="690" d="M39 0v80l426 635h-389v94h555v-78l-426 -637h438v-94h-604zM168 1114h145l88 -137l84 137h145l-178 -215h-104z" />
<glyph unicode="&#x17e;" horiz-adv-x="690" d="M39 0v80l426 635h-389v94h555v-78l-426 -637h438v-94h-604zM168 1114h145l88 -137l84 137h145l-178 -215h-104z" />
<glyph unicode="&#xa1;" horiz-adv-x="389" d="M106 -315l31 757h119l27 -757h-177zM106 649v160h177v-160h-177z" />
<glyph unicode="&#xa2;" horiz-adv-x="866" d="M86 379q0 109 22.5 183.5t63.5 120.5t98.5 67.5t126.5 21.5q43 0 82 -12l49 147h74l-59 -176q41 -27 69.5 -64.5t44.5 -91.5l-86 -40q-10 29 -21 52t-32 44l-180 -543q12 -4 27.5 -7t31.5 -3q47 0 78 8t52.5 24.5t36 41t26.5 59.5l88 -43q-31 -76 -96.5 -129t-184.5 -53 q-43 0 -80 10l-53 -162h-74l62 186q-82 45 -124 128.5t-42 230.5zM201 379q0 -106 19.5 -164.5t53.5 -95.5l185 551q-16 4 -30.5 8t-31.5 4q-43 0 -79.5 -13.5t-62.5 -47t-40 -93t-14 -149.5z" />
<glyph unicode="&#xa3;" horiz-adv-x="808" d="M20 463v82h146q-4 53 -11.5 94t-7.5 92q0 127 75 203t202 76q119 0 195.5 -69t97.5 -185l-96 -37q-20 92 -65.5 144t-131.5 52q-74 0 -117 -48t-43 -140q0 -51 7.5 -92t17.5 -90h162v-82h-158q4 -16 5 -35.5t1 -38.5q0 -68 -10 -120t-39 -113q49 -31 95 -54.5t106 -23.5 q57 0 110 39t80 147l96 -35q-23 -117 -90 -180t-182 -63q-49 0 -86 6t-67.5 17t-58.5 27.5t-58 37.5q-29 -37 -77 -57.5t-95 -30.5v104q51 18 82.5 48t48 67t22.5 79t6 87q0 23 -3 46t-5 46h-154z" />
<glyph unicode="&#xa4;" horiz-adv-x="866" d="M47 174l84 84q-45 51 -64.5 114.5t-19.5 129.5t19.5 127t64.5 114l-84 84l57 60l89 -86q51 43 112.5 64.5t126.5 21.5q137 0 242 -86l86 86l59 -60l-84 -84q45 -53 64.5 -114.5t19.5 -126.5q0 -66 -19.5 -129.5t-64.5 -114.5l84 -84l-59 -59l-86 84q-106 -84 -242 -84 q-66 0 -127 21.5t-112 62.5l-89 -84zM166 502q0 -55 20.5 -105.5t57.5 -88.5t85 -60.5t103 -22.5t104.5 22.5t86 60.5t57 88t20.5 106q0 55 -20.5 105t-57 88t-86 60.5t-104.5 22.5t-103 -22.5t-85 -60.5t-57.5 -88t-20.5 -105z" />
<glyph unicode="&#xa5;" horiz-adv-x="831" d="M51 995h127l230 -456l247 456h125l-213 -389h152v-84h-191l-53 -100v-19h244v-81h-244v-322h-129v322h-246v81h246v19l-51 100h-195v84h156z" />
<glyph unicode="&#xa6;" horiz-adv-x="387" d="M131 -16v415h125v-415h-125zM131 602v416h125v-416h-125z" />
<glyph unicode="&#xa7;" horiz-adv-x="749" d="M102 524q0 76 52.5 112t128.5 36l4 4q-41 29 -71 68.5t-30 101.5q0 80 52.5 121t144.5 41q80 0 143.5 -41t98.5 -113l-82 -59q-29 57 -68 90t-90 33q-53 0 -76.5 -25t-23.5 -59q0 -33 26.5 -62t67.5 -58.5t87 -62.5t87 -73.5t67.5 -92t26.5 -116.5q0 -80 -49 -119 t-121 -45q35 -41 60.5 -76t25.5 -90q0 -47 -17.5 -78t-46 -50.5t-65.5 -27.5t-78 -8q-37 0 -72.5 10.5t-68.5 29.5t-57.5 46t-38.5 59l84 62q20 -49 66 -84t87 -35q66 0 87.5 28.5t21.5 57.5t-26.5 58.5t-67.5 62.5l-87 70q-46 37 -87 81t-68 94t-27 109zM217 530 q0 -47 25.5 -91t61.5 -78.5t74 -55t64 -20.5q49 0 69.5 23.5t20.5 56.5q0 43 -23.5 82.5t-58 72.5t-74.5 52.5t-75 19.5t-59.5 -17.5t-24.5 -44.5z" />
<glyph unicode="&#xa8;" horiz-adv-x="428" d="M0 915v168h143v-168h-143zM285 915v168h143v-168h-143z" />
<glyph unicode="&#xa9;" horiz-adv-x="1245" d="M39 498q0 104 40 197t109.5 163t162.5 111t200 41q106 0 199.5 -41t163 -111t109.5 -163t40 -197t-40 -197.5t-109.5 -163t-163 -110.5t-199.5 -41t-199.5 41t-163 110.5t-109.5 163t-40 197.5zM141 498q0 -88 32 -164t87 -133.5t130 -90t161 -32.5q88 0 162.5 32.5 t130 90t86.5 133.5t31 164t-31 164.5t-86.5 133t-130 89.5t-162.5 33q-86 0 -161 -33t-130 -89.5t-87 -133t-32 -164.5zM293 500q0 147 65.5 226t202.5 79q111 0 169 -52.5t71 -152.5h-111q-10 57 -38.5 88t-88.5 31q-88 0 -121.5 -52.5t-33.5 -166.5q0 -111 36.5 -167.5 t122.5 -56.5q55 0 84 32t39 91h111q-10 -43 -26.5 -80.5t-44.5 -66.5t-67.5 -45.5t-95.5 -16.5q-137 0 -205.5 81.5t-68.5 228.5z" />
<glyph unicode="&#xaa;" horiz-adv-x="466" d="M20 764q0 61 32 97t78 56.5t97.5 30.5t87.5 21v39q0 59 -77 59q-35 0 -66 -13.5t-59 -54.5l-70 33q35 59 82 84t121 25q88 0 128 -36t40 -114v-243q0 -35 2 -54.5t8 -46.5h-90l-8 53q-25 -20 -63 -40.5t-97 -20.5q-63 0 -104.5 33t-41.5 92zM117 774q0 -29 18.5 -44 t40.5 -15q84 0 139 67v111q-33 -8 -67.5 -15.5t-64 -19.5t-48 -31.5t-18.5 -52.5z" />
<glyph unicode="&#xab;" horiz-adv-x="778" d="M129 410l145 233h144l-152 -233l152 -244h-144zM358 410l150 233h141l-153 -233l153 -244h-141z" />
<glyph unicode="&#xac;" horiz-adv-x="933" d="M61 498v106h811v-397h-124v291h-687z" />
<glyph unicode="&#xad;" horiz-adv-x="681" d="M86 416v123h510v-123h-510z" />
<glyph unicode="&#xae;" horiz-adv-x="1245" d="M39 498q0 104 40 197t109.5 163t162.5 111t200 41q106 0 199.5 -41t163 -111t109.5 -163t40 -197t-40 -197.5t-109.5 -163t-163 -110.5t-199.5 -41t-199.5 41t-163 110.5t-109.5 163t-40 197.5zM141 498q0 -88 32 -164t87 -133.5t130 -90t161 -32.5q88 0 162.5 32.5 t130 90t86.5 133.5t31 164t-31 164.5t-86.5 133t-130 89.5t-162.5 33q-86 0 -161 -33t-130 -89.5t-87 -133t-32 -164.5zM373 207v579h221q98 0 142 -46t44 -124q0 -76 -42 -117.5t-91 -52.5l141 -239h-116l-119 239h-72v-239h-108zM481 530h60h52q24 0 41 7.5t27.5 26 t10.5 54.5q0 59 -24.5 71.5t-72.5 12.5h-94v-172z" />
<glyph unicode="&#xaf;" horiz-adv-x="346" d="M-59 940v111h462v-111h-462z" />
<glyph unicode="&#xb0;" horiz-adv-x="622" d="M84 913q0 47 17.5 88t48 72t71.5 49.5t90 18.5t90 -18.5t72 -49.5t48.5 -71.5t17.5 -88.5q0 -47 -17.5 -89t-48.5 -72.5t-72 -49t-90 -18.5t-90 18.5t-71.5 49t-48 72.5t-17.5 89zM178 913q0 -59 37 -98t96 -39t96 39t37 98t-36.5 98.5t-96.5 39.5q-59 0 -96 -39.5 t-37 -98.5z" />
<glyph unicode="&#xb1;" horiz-adv-x="933" d="M61 0v104h811v-104h-811zM61 459v104h342v287h127v-287h342v-104h-342v-289h-127v289h-342z" />
<glyph unicode="&#xb2;" horiz-adv-x="473" d="M31 401v68q0 27 5 51.5t20.5 48t45 47t76.5 48.5q53 29 86 51t49.5 41.5t21.5 39t5 40.5q0 35 -22.5 63.5t-59.5 28.5q-47 0 -77.5 -18.5t-47.5 -82.5l-94 11q16 82 72.5 127t142.5 45t137 -47.5t51 -133.5q0 -43 -17 -76.5t-45 -60t-61.5 -48t-66.5 -40.5 q-41 -23 -64.5 -39t-35 -30.5t-14.5 -25.5t-3 -24h305v-84h-409z" />
<glyph unicode="&#xb3;" horiz-adv-x="499" d="M31 502l67 53q31 -37 68 -58.5t86 -21.5q41 0 78 20.5t37 73.5q0 63 -30 86t-114 23h-59v82h49q78 0 105.5 19.5t27.5 78.5q0 41 -20.5 55.5t-67.5 14.5q-37 0 -70.5 -11.5t-54.5 -48.5l-72 43q39 53 91.5 76t111.5 23q104 0 144.5 -36t40.5 -112q0 -51 -17.5 -85 t-75.5 -56q53 -16 83 -52t30 -100q0 -174 -221 -174q-78 0 -134 31t-83 76z" />
<glyph unicode="&#xb4;" horiz-adv-x="346" d="M74 899l133 215h162l-195 -215h-100z" />
<glyph unicode="&#xb5;" horiz-adv-x="866" d="M129 -287v1096h133v-543q0 -100 38 -143t85 -43t101.5 31.5t115.5 103.5v594h135v-809h-135v109q-43 -66 -106.5 -95.5t-116.5 -29.5q-31 0 -64.5 8t-52.5 28v-307h-133z" />
<glyph unicode="&#xb6;" horiz-adv-x="778" d="M25 819q0 147 91 226t255 79h411v-90h-75v-1159h-119v1159h-123v-1159h-119v649q-68 0 -126 23.5t-102 63.5t-68.5 93.5t-24.5 114.5z" />
<glyph unicode="&#xb7;" horiz-adv-x="432" d="M121 406q0 39 29.5 66.5t64.5 27.5q37 0 65.5 -28t28.5 -66q0 -39 -28.5 -67t-65.5 -28q-35 0 -64.5 28t-29.5 67z" />
<glyph unicode="&#xb8;" horiz-adv-x="346" d="M0 -293l20 55q20 -6 47 -14t46 -8q53 0 77.5 13.5t24.5 47.5q0 35 -21.5 49.5t-48.5 14.5q-39 0 -67 -12l-23 18l92 129h60l-68 -78l4 -4q14 10 47 10q57 0 90 -34.5t33 -96.5q0 -31 -16 -53.5t-41 -37.5t-53.5 -22.5t-52.5 -7.5q-39 0 -77 7.5t-73 23.5z" />
<glyph unicode="&#xb9;" horiz-adv-x="538" d="M113 893v70l125 47h88v-525h100v-84h-299v84h94v435z" />
<glyph unicode="&#xba;" horiz-adv-x="423" d="M20 786q0 43 9.5 84t32 72t59.5 49.5t92 18.5t91 -18.5t58.5 -49.5t31.5 -72t9 -84t-9 -82.5t-31.5 -70.5t-58.5 -49.5t-91 -18.5t-92 18.5t-59.5 49.5t-32 70.5t-9.5 82.5zM119 786q0 -66 20.5 -97.5t73.5 -31.5t73.5 32t20.5 97q0 66 -20.5 99t-73.5 33t-73.5 -33 t-20.5 -99z" />
<glyph unicode="&#xbb;" horiz-adv-x="778" d="M129 166l154 235l-154 242h141l150 -242l-150 -235h-141zM360 166l152 235l-152 242h144l145 -242l-145 -235h-144z" />
<glyph unicode="&#xbc;" horiz-adv-x="1261" d="M113 893v70l125 47h88v-525h100v-84h-299v84h94v435zM272 -14l590 1024h101l-590 -1024h-101zM680 133v88l248 377h123v-385h88v-80h-88v-133h-105v133h-266zM774 213h172v260h-4z" />
<glyph unicode="&#xbd;" horiz-adv-x="1255" d="M113 893v70l125 47h88v-525h100v-84h-299v84h94v435zM254 -14l592 1024h98l-588 -1024h-102zM721 0v68q0 27 5 51t20.5 47.5t45 47.5t76.5 48q53 29 86 51.5t49.5 42t21.5 39t5 39.5q0 35 -22.5 63.5t-59.5 28.5q-47 0 -77.5 -18.5t-47.5 -81.5l-94 10q16 82 72.5 127 t142.5 45t137.5 -47t51.5 -133q0 -43 -17.5 -77t-45.5 -60.5t-61.5 -48t-66.5 -39.5q-41 -23 -64.5 -39.5t-35 -30.5t-14.5 -25.5t-3 -23.5h305v-84h-409z" />
<glyph unicode="&#xbe;" horiz-adv-x="1259" d="M41 502l68 53q31 -37 67.5 -58.5t85.5 -21.5q41 0 78 20.5t37 73.5q0 63 -30 86t-114 23h-59v82h49q78 0 105.5 19.5t27.5 78.5q0 41 -20.5 55.5t-67.5 14.5q-37 0 -70.5 -11.5t-54.5 -48.5l-71 43q39 53 91 76t111 23q104 0 144.5 -36t40.5 -112q0 -51 -17.5 -85 t-74.5 -56q53 -16 82.5 -52t29.5 -100q0 -174 -221 -174q-78 0 -134 31t-83 76zM293 -14l590 1024h98l-586 -1024h-102zM680 133v88l248 377h123v-385h86v-80h-86v-133h-105v133h-266zM774 213h172v260h-4z" />
<glyph unicode="&#xbf;" horiz-adv-x="604" d="M47 -61q0 84 41 140t90 103t90 93.5t41 107.5v80h150v-80q0 -80 -41 -133t-90 -101.5t-90 -101.5t-41 -131q0 -47 37.5 -87t107.5 -40q41 0 72.5 13.5t54.5 34t38 46t25 51.5l125 -61q-35 -94 -121.5 -149.5t-195.5 -55.5q-61 0 -114.5 17.5t-93.5 51.5t-62.5 85 t-22.5 117zM287 637v170h205v-170h-205z" />
<glyph unicode="&#xc2;" horiz-adv-x="948" d="M41 0l354 993h160l352 -993h-147l-88 268h-396l-88 -268h-147zM309 379h332l-166 481zM242 1135l180 215h104l178 -215h-124l-105 137l-108 -137h-125z" />
<glyph unicode="&#xc4;" horiz-adv-x="948" d="M41 0l354 993h160l352 -993h-147l-88 268h-396l-88 -268h-147zM309 379h332l-166 481zM303 1130v168h143v-168h-143zM588 1130v168h143v-168h-143z" />
<glyph unicode="&#xc5;" horiz-adv-x="948" d="M41 0l354 993h160l352 -993h-147l-88 268h-396l-88 -268h-147zM309 379h332l-166 481zM319 1264q0 66 46.5 110.5t109.5 44.5q61 0 108.5 -45t47.5 -110q0 -66 -47 -111t-109 -45q-63 0 -109.5 45t-46.5 111zM399 1264q0 -31 22.5 -52.5t53.5 -21.5t52.5 21.5t21.5 52.5 q0 33 -21.5 53t-52.5 20t-53.5 -20t-22.5 -53z" />
<glyph unicode="&#xc6;" horiz-adv-x="1329" d="M41 0l551 995h696v-106h-442v-316h381v-106h-381v-361h436v-106h-569v268h-373l-137 -268h-162zM383 379h330v512h-54z" />
<glyph unicode="&#xc7;" horiz-adv-x="776" d="M82 496q0 135 18.5 231t62.5 158.5t116.5 91.5t179.5 29q68 0 144.5 -21.5t131.5 -64.5l-63 -99q-47 41 -100.5 57.5t-114.5 16.5q-72 0 -118 -20.5t-71.5 -67.5t-36 -123t-10.5 -188q0 -113 10.5 -189t36 -123t71.5 -67.5t118 -20.5q61 0 114.5 16.5t100.5 57.5l63 -98 q-55 -43 -132 -64.5t-144 -21.5q-106 0 -179 28.5t-117 91t-62.5 159t-18.5 231.5zM274 -293l20 55q20 -6 47 -14t46 -8q53 0 77.5 13.5t24.5 47.5q0 35 -21.5 49.5t-48.5 14.5q-39 0 -67 -12l-23 18l92 129h60l-68 -78l4 -4q14 10 47 10q57 0 90 -34.5t33 -96.5 q0 -31 -16 -53.5t-41 -37.5t-53.5 -22.5t-52.5 -7.5q-39 0 -77 7.5t-73 23.5z" />
<glyph unicode="&#xca;" horiz-adv-x="749" d="M123 0v995h586v-106h-443v-316h381v-106h-381v-361h436v-106h-579zM199 1135l180 215h104l178 -215h-124l-105 137l-108 -137h-125z" />
<glyph unicode="&#xcb;" horiz-adv-x="749" d="M123 0v995h586v-106h-443v-316h381v-106h-381v-361h436v-106h-579zM281 1130v168h143v-168h-143zM566 1130v168h143v-168h-143z" />
<glyph unicode="&#xce;" horiz-adv-x="565" d="M41 0v96h168v803h-162v96h477v-96h-174v-803h168v-96h-477zM47 1135l180 215h104l178 -215h-124l-105 137l-108 -137h-125z" />
<glyph unicode="&#xcf;" horiz-adv-x="565" d="M41 0v96h168v803h-162v96h477v-96h-174v-803h168v-96h-477zM111 1130v168h143v-168h-143zM396 1130v168h143v-168h-143z" />
<glyph unicode="&#xd0;" horiz-adv-x="956" d="M-41 455v102h164v438h371q109 0 182.5 -31.5t117.5 -96t62 -161t18 -223.5q0 -119 -18 -210t-62 -151.5t-118 -91t-182 -30.5h-371v455h-164zM266 106h228q72 0 117.5 20.5t72.5 65t37 116t10 175.5q0 115 -10 192t-37 125t-73 68.5t-117 20.5h-228v-332h269v-102h-269 v-349z" />
<glyph unicode="&#xd1;" horiz-adv-x="974" d="M123 0v995h190l396 -759v759h143v-995h-164l-422 827v-827h-143zM241 1130q2 29 12.5 59t29 56.5t42 43t54.5 16.5q29 0 56.5 -11.5t53 -24t50 -23.5t42.5 -11q33 0 49.5 23.5t20.5 52.5h78q-4 -31 -13.5 -61.5t-26 -55.5t-40 -40t-57.5 -15q-25 0 -52.5 11t-55.5 23.5 t-51.5 23.5t-39.5 11q-33 0 -50.5 -24.5t-21.5 -53.5h-80z" />
<glyph unicode="&#xd4;" horiz-adv-x="966" d="M82 485q0 256 91 386t310 130q109 0 185.5 -32.5t125 -97t70 -162t21.5 -224.5q0 -119 -21.5 -212t-70 -156.5t-125 -96t-185.5 -32.5q-217 0 -309 128.5t-92 368.5zM229 485q0 -104 12.5 -175.5t42 -118t79 -67t120.5 -20.5q72 0 120 20.5t78 67t43 118t13 175.5 q0 115 -13 192t-43 124t-78 67.5t-120 20.5t-121 -20.5t-78.5 -67.5t-42 -124t-12.5 -192zM252 1135l180 215h104l178 -215h-124l-105 137l-108 -137h-125z" />
<glyph unicode="&#xd6;" horiz-adv-x="966" d="M82 485q0 256 91 386t310 130q109 0 185.5 -32.5t125 -97t70 -162t21.5 -224.5q0 -119 -21.5 -212t-70 -156.5t-125 -96t-185.5 -32.5q-217 0 -309 128.5t-92 368.5zM229 485q0 -104 12.5 -175.5t42 -118t79 -67t120.5 -20.5q72 0 120 20.5t78 67t43 118t13 175.5 q0 115 -13 192t-43 124t-78 67.5t-120 20.5t-121 -20.5t-78.5 -67.5t-42 -124t-12.5 -192zM322 1130v168h143v-168h-143zM607 1130v168h143v-168h-143z" />
<glyph unicode="&#xd7;" horiz-adv-x="786" d="M25 150l282 282l-282 285l75 76l283 -285l283 285l75 -76l-282 -285l282 -282l-75 -76l-283 282l-283 -282z" />
<glyph unicode="&#xd8;" horiz-adv-x="966" d="M4 -123l160 252q-43 63 -62.5 151.5t-19.5 204.5q0 256 91 386t310 130q125 0 207 -43l119 181h102l-151 -230q66 -66 95.5 -171t29.5 -253q0 -119 -21.5 -212t-70 -156.5t-125 -96t-185.5 -32.5q-88 0 -153.5 20.5t-112.5 61.5l-123 -193h-90zM229 485q0 -84 6.5 -146.5 t10.5 -94.5l375 614q-31 16 -60 23.5t-78 7.5q-72 0 -121 -20.5t-78.5 -67.5t-42 -124t-12.5 -192zM291 172q35 -35 77 -51.5t115 -16.5q72 0 120 20.5t78 67t43 118t13 175.5q0 61 -3 106.5t-10 82.5t-16.5 67.5t-21.5 63.5z" />
<glyph unicode="&#xdb;" horiz-adv-x="1007" d="M123 418v577h143v-577q0 -104 13.5 -166t41 -95.5t73.5 -44t110 -10.5q63 0 108 10.5t74 44t42 95t13 166.5v577h144v-577q0 -119 -18.5 -202t-62.5 -133t-118 -72.5t-182 -22.5q-109 0 -182.5 22.5t-117.5 72.5t-62.5 133t-18.5 202zM281 1135l180 215h104l178 -215 h-124l-105 137l-108 -137h-125z" />
<glyph unicode="&#xdc;" horiz-adv-x="1007" d="M123 418v577h143v-577q0 -104 13.5 -166t41 -95.5t73.5 -44t110 -10.5q63 0 108 10.5t74 44t42 95t13 166.5v577h144v-577q0 -119 -18.5 -202t-62.5 -133t-118 -72.5t-182 -22.5q-109 0 -182.5 22.5t-117.5 72.5t-62.5 133t-18.5 202zM338 1130v168h143v-168h-143z M623 1130v168h143v-168h-143z" />
<glyph unicode="&#xde;" horiz-adv-x="952" d="M156 0v1124h143v-233h236q100 0 166.5 -22.5t105.5 -63.5t54.5 -98.5t15.5 -128.5q0 -70 -15.5 -128.5t-54.5 -99.5t-105.5 -63.5t-166.5 -22.5h-236v-264h-143zM299 369h236q74 0 113.5 12t58 36.5t21.5 64.5t3 96q0 55 -3 94t-21.5 64.5t-58.5 36.5t-113 11h-236v-415z " />
<glyph unicode="&#xdf;" horiz-adv-x="778" d="M119 0v727q0 133 67.5 203.5t206.5 70.5q119 0 192.5 -69.5t73.5 -188.5q0 -154 -141 -223q104 -33 157.5 -95.5t53.5 -172.5q0 -152 -68.5 -210t-197.5 -58q-33 0 -73 10t-68 26l43 101q23 -12 49 -21.5t55 -9.5q49 0 88 37t39 133q0 33 -12.5 67.5t-40 64.5t-73.5 48.5 t-116 18.5v94q49 2 82 11t52.5 30.5t27.5 58.5t8 95q0 47 -11 75.5t-30.5 45t-46 21.5t-59.5 5q-66 0 -94.5 -42t-28.5 -120v-733h-135z" />
<glyph unicode="&#xe2;" horiz-adv-x="778" d="M41 217q0 82 26.5 133t85 81t148.5 42t217 19v96q0 43 -15.5 71.5t-37 44t-46 21.5t-42.5 6q-78 0 -131 -38t-105 -99q-4 -6 -16 -2t-27.5 15t-31 25.5t-25.5 26.5q20 27 54 55.5t77 53.5t93 41t100 16q131 0 206.5 -55t75.5 -199v-327q0 -78 12.5 -135.5t30.5 -92.5 q-10 -6 -26.5 -11t-33 -8t-31.5 -5t-24 -2q-8 0 -17 3t-15 17q-4 10 -6 24.5t-7 28.5q-4 16 -6 35q-31 -31 -57.5 -52t-56 -34.5t-65.5 -20.5t-83 -7q-94 0 -157.5 65.5t-63.5 167.5zM168 199q0 -53 23.5 -86t87.5 -33q66 0 120 36t115 97v182q-129 -2 -198.5 -19.5 t-102.5 -44t-39 -61t-6 -71.5zM156 899l180 215h104l178 -215h-124l-105 137l-108 -137h-125z" />
<glyph unicode="&#xe4;" horiz-adv-x="778" d="M41 217q0 82 26.5 133t85 81t148.5 42t217 19v96q0 43 -15.5 71.5t-37 44t-46 21.5t-42.5 6q-78 0 -131 -38t-105 -99q-4 -6 -16 -2t-27.5 15t-31 25.5t-25.5 26.5q20 27 54 55.5t77 53.5t93 41t100 16q131 0 206.5 -55t75.5 -199v-327q0 -78 12.5 -135.5t30.5 -92.5 q-10 -6 -26.5 -11t-33 -8t-31.5 -5t-24 -2q-8 0 -17 3t-15 17q-4 10 -6 24.5t-7 28.5q-4 16 -6 35q-31 -31 -57.5 -52t-56 -34.5t-65.5 -20.5t-83 -7q-94 0 -157.5 65.5t-63.5 167.5zM168 199q0 -53 23.5 -86t87.5 -33q66 0 120 36t115 97v182q-129 -2 -198.5 -19.5 t-102.5 -44t-39 -61t-6 -71.5zM203 915v168h143v-168h-143zM488 915v168h143v-168h-143z" />
<glyph unicode="&#xe5;" horiz-adv-x="778" d="M41 217q0 82 26.5 133t85 81t148.5 42t217 19v96q0 43 -15.5 71.5t-37 44t-46 21.5t-42.5 6q-78 0 -131 -38t-105 -99q-4 -6 -16 -2t-27.5 15t-31 25.5t-25.5 26.5q20 27 54 55.5t77 53.5t93 41t100 16q131 0 206.5 -55t75.5 -199v-327q0 -78 12.5 -135.5t30.5 -92.5 q-10 -6 -26.5 -11t-33 -8t-31.5 -5t-24 -2q-8 0 -17 3t-15 17q-4 10 -6 24.5t-7 28.5q-4 16 -6 35q-31 -31 -57.5 -52t-56 -34.5t-65.5 -20.5t-83 -7q-94 0 -157.5 65.5t-63.5 167.5zM168 199q0 -53 23.5 -86t87.5 -33q66 0 120 36t115 97v182q-129 -2 -198.5 -19.5 t-102.5 -44t-39 -61t-6 -71.5zM208 1049q0 66 46.5 110.5t109.5 44.5q61 0 108.5 -45t47.5 -110q0 -66 -47 -111t-109 -45q-63 0 -109.5 45t-46.5 111zM288 1049q0 -31 22.5 -52.5t53.5 -21.5t52.5 21.5t21.5 52.5q0 33 -21.5 53t-52.5 20t-53.5 -20t-22.5 -53z" />
<glyph unicode="&#xe6;" horiz-adv-x="1275" d="M41 217q0 82 28.5 135.5t90 84t156 43t223.5 12.5v96q0 82 -46.5 112.5t-119.5 30.5q-72 0 -125 -39t-101 -108l-81 59q61 98 144 140t167 42q102 0 162.5 -38.5t87.5 -106.5q41 61 99 103t151 42q98 0 158.5 -32.5t95 -91t47 -137.5t12.5 -173h-522q0 -70 11 -127 t36.5 -98t67.5 -63.5t104 -22.5q39 0 70.5 6t58 23.5t50.5 47t46 76.5l86 -51q-49 -109 -126 -153.5t-193 -44.5q-94 0 -155.5 39.5t-107.5 113.5q-37 -39 -70.5 -67.5t-72.5 -48t-85 -28.5t-105 -9q-47 0 -90 14t-77 44t-54.5 74t-20.5 101zM168 219q0 -139 131 -139 q63 0 122.5 25.5t113.5 87.5v202q-135 0 -210 -13t-110 -36.5t-41 -56.5t-6 -70zM668 487h407q-6 61 -15 107.5t-30.5 77t-58.5 45t-99 14.5q-45 0 -82.5 -20.5t-64.5 -54t-42 -78t-15 -91.5z" />
<glyph unicode="&#xe7;" horiz-adv-x="741" d="M57 406q0 195 76 307t248 112q100 0 174 -47t129 -119q-10 -12 -25.5 -26.5t-30 -25.5t-26.5 -15t-18 2q-25 31 -47.5 56.5t-47 44t-53 27.5t-67.5 9q-31 0 -63 -7t-57.5 -40t-42 -98.5t-16.5 -179.5q0 -115 16.5 -180.5t42 -97.5t57.5 -40t63 -8q39 0 67.5 9t53 27.5 t47 44t47.5 56.5q6 6 18 2t26.5 -15t30 -25.5t25.5 -26.5q-55 -72 -129 -119t-174 -47q-172 0 -248 112.5t-76 307.5zM209 -293l20 55q20 -6 47 -14t46 -8q53 0 77.5 13.5t24.5 47.5q0 35 -21.5 49.5t-48.5 14.5q-39 0 -67 -12l-23 18l92 129h60l-68 -78l4 -4q14 10 47 10 q57 0 90 -34.5t33 -96.5q0 -31 -16 -53.5t-41 -37.5t-53.5 -22.5t-52.5 -7.5q-39 0 -77 7.5t-73 23.5z" />
<glyph unicode="&#xea;" horiz-adv-x="786" d="M57 401v5q0 219 88 319t244 100q104 0 169 -35.5t98.5 -97t45 -144.5t11.5 -177h-523q0 -82 17.5 -136.5t46.5 -86t64.5 -45t70.5 -13.5q86 0 140.5 27.5t99.5 93.5q4 6 16 2t27.5 -14.5t31 -24.5t25.5 -27q-55 -72 -141 -118.5t-187 -46.5q-166 0 -255 104t-89 315z M190 467h398q0 135 -45 199.5t-152 64.5q-92 0 -146.5 -61.5t-54.5 -202.5zM168 899l180 215h104l178 -215h-124l-105 137l-108 -137h-125z" />
<glyph unicode="&#xeb;" horiz-adv-x="786" d="M57 401v5q0 219 88 319t244 100q104 0 169 -35.5t98.5 -97t45 -144.5t11.5 -177h-523q0 -82 17.5 -136.5t46.5 -86t64.5 -45t70.5 -13.5q86 0 140.5 27.5t99.5 93.5q4 6 16 2t27.5 -14.5t31 -24.5t25.5 -27q-55 -72 -141 -118.5t-187 -46.5q-166 0 -255 104t-89 315z M190 467h398q0 135 -45 199.5t-152 64.5q-92 0 -146.5 -61.5t-54.5 -202.5zM223 915v168h143v-168h-143zM508 915v168h143v-168h-143z" />
<glyph unicode="&#xee;" horiz-adv-x="346" d="M106 0v809h134v-809h-134zM-59 899l180 215h104l178 -215h-124l-105 137l-108 -137h-125z" />
<glyph unicode="&#xef;" horiz-adv-x="346" d="M106 0v809h134v-809h-134zM0 915v168h143v-168h-143zM285 915v168h143v-168h-143z" />
<glyph unicode="&#xf0;" horiz-adv-x="737" d="M57 344q0 166 76 262t236 96q47 0 74.5 -9t58.5 -25l4 4q-23 39 -58.5 77.5t-68.5 73.5l-158 -84l-45 62l146 76q-25 25 -52.5 45t-60.5 39l104 40q29 -20 56.5 -40.5t52.5 -42.5l158 83l45 -61l-146 -78q61 -63 100 -124.5t62 -124t31 -129t8 -140.5q0 -166 -76 -263 t-235 -97q-160 0 -236 97t-76 263zM190 344q0 -59 7.5 -108.5t27 -84t54 -53t90.5 -18.5q55 0 90 18.5t54 53t26.5 84t7.5 108.5t-7.5 107.5t-26.5 83t-54 54t-90 19.5t-90 -19.5t-54.5 -54t-27 -83t-7.5 -107.5z" />
<glyph unicode="&#xf1;" horiz-adv-x="907" d="M129 0v809h133v-107q49 68 126 95.5t151 27.5q47 0 91 -18.5t76.5 -53t52 -85t19.5 -115.5v-553h-135v543q0 102 -40 140t-103 38q-59 0 -125 -40t-113 -106v-575h-133zM256 915q2 29 12.5 59t29 56.5t42 43t54.5 16.5q29 0 56.5 -11.5t53 -24t50 -23.5t42.5 -11 q33 0 49.5 23.5t20.5 52.5h78q-4 -31 -13.5 -61.5t-26 -55.5t-40 -40t-57.5 -15q-25 0 -52.5 11t-55.5 23.5t-51.5 23.5t-39.5 11q-33 0 -50.5 -24.5t-21.5 -53.5h-80z" />
<glyph unicode="&#xf4;" horiz-adv-x="798" d="M57 406q0 98 18.5 175.5t58.5 132t105.5 83t159.5 28.5q96 0 161 -28.5t106 -83t58 -132t17 -175.5t-17 -176t-58 -133.5t-105.5 -84t-161.5 -28.5q-94 0 -159.5 28.5t-105.5 84t-58.5 133.5t-18.5 176zM190 406q0 -166 45.5 -246t163.5 -80q119 0 164 80t45 246 t-45 245.5t-164 79.5t-164 -79.5t-45 -245.5zM215 899l180 215h104l178 -215h-124l-105 137l-108 -137h-125z" />
<glyph unicode="&#xf6;" horiz-adv-x="798" d="M57 406q0 98 18.5 175.5t58.5 132t105.5 83t159.5 28.5q96 0 161 -28.5t106 -83t58 -132t17 -175.5t-17 -176t-58 -133.5t-105.5 -84t-161.5 -28.5q-94 0 -159.5 28.5t-105.5 84t-58.5 133.5t-18.5 176zM190 406q0 -166 45.5 -246t163.5 -80q119 0 164 80t45 246 t-45 245.5t-164 79.5t-164 -79.5t-45 -245.5zM274 915v168h143v-168h-143zM559 915v168h143v-168h-143z" />
<glyph unicode="&#xf7;" horiz-adv-x="786" d="M53 367v112h680v-112h-680zM303 117q0 37 26.5 63.5t63.5 26.5t63.5 -26.5t26.5 -63.5q0 -35 -26.5 -61.5t-63.5 -26.5t-63.5 26.5t-26.5 61.5zM303 729q0 35 26.5 61.5t63.5 26.5t63.5 -26.5t26.5 -61.5q0 -37 -26.5 -63.5t-63.5 -26.5t-63.5 26.5t-26.5 63.5z" />
<glyph unicode="&#xf8;" horiz-adv-x="778" d="M4 -123l133 209q-43 53 -61.5 134t-18.5 186q0 98 16.5 175.5t55.5 132t102.5 83t157.5 28.5q117 0 193 -47l112 176h84l-143 -223q47 -53 66.5 -136t19.5 -189q0 -98 -16.5 -176t-54.5 -133.5t-101.5 -84t-159.5 -28.5q-66 0 -115 13t-86 38l-100 -158h-84zM190 406 q0 -76 6.5 -125.5t12.5 -94.5l307 502q-27 23 -53.5 33t-73.5 10q-70 0 -109.5 -20.5t-60 -60.5t-25 -101t-4.5 -143zM254 127q29 -23 56.5 -35t78.5 -12q72 0 111 19.5t59.5 60.5t24.5 102.5t4 143.5q0 78 -7.5 130t-17.5 95z" />
<glyph unicode="&#xfb;" horiz-adv-x="866" d="M129 256v553h133v-543q0 -100 40 -143t104 -43q47 0 118.5 40t118.5 116v573h135v-600q0 -55 10.5 -113.5t16.5 -79.5q-16 -8 -51 -12t-52 -4q-8 0 -19 3t-17 13q-4 8 -6.5 22.5t-4.5 31.5q-2 18 -2 39q-20 -31 -53 -53.5t-69.5 -39t-73.5 -24.5t-68 -8 q-129 0 -194.5 70.5t-65.5 201.5zM211 899l180 215h104l178 -215h-124l-105 137l-108 -137h-125z" />
<glyph unicode="&#xfc;" horiz-adv-x="866" d="M129 256v553h133v-543q0 -100 40 -143t104 -43q47 0 118.5 40t118.5 116v573h135v-600q0 -55 10.5 -113.5t16.5 -79.5q-16 -8 -51 -12t-52 -4q-8 0 -19 3t-17 13q-4 8 -6.5 22.5t-4.5 31.5q-2 18 -2 39q-20 -31 -53 -53.5t-69.5 -39t-73.5 -24.5t-68 -8 q-129 0 -194.5 70.5t-65.5 201.5zM266 915v168h143v-168h-143zM551 915v168h143v-168h-143z" />
<glyph unicode="&#xfe;" horiz-adv-x="866" d="M143 -287v1411h136v-389h2q37 31 96 60.5t139 29.5q72 0 126 -20.5t91 -69.5t56.5 -131t19.5 -203q0 -129 -22.5 -209.5t-60.5 -127t-89 -63.5t-107 -17q-66 0 -136 20.5t-115 69.5v-361h-136zM279 205q12 -20 35.5 -43t54 -41.5t66.5 -29.5t71 -11q82 0 126 84t44 252 q0 63 -6 120.5t-23.5 100.5t-50.5 68.5t-86 25.5q-78 0 -140.5 -40t-90.5 -87v-399z" />
<glyph unicode="&#xff;" horiz-adv-x="731" d="M-19 -196q1 22 6 36.5t13 9.5q49 -23 98 -22q25 0 52.5 5t55 24.5t52.5 56.5t41 98l-279 797h142l203 -616h2l204 616h144l-303 -868q-41 -117 -125 -172.5t-195 -55.5q-49 0 -100 15q-6 12 -9 33q-2 16 -3 33q1 5 1 10zM172 915v168h143v-168h-143zM457 915v168h143 v-168h-143z" />
<glyph unicode="&#x102;" horiz-adv-x="948" d="M41 0l354 993h160l352 -993h-147l-88 268h-396l-88 -268h-147zM309 379h332l-166 481zM252 1301h110q4 -47 28 -69.5t87 -22.5q59 0 84 22.5t29 69.5h110q-6 -92 -58 -144.5t-165 -52.5q-115 0 -167 52.5t-58 144.5z" />
<glyph unicode="&#x103;" horiz-adv-x="778" d="M41 217q0 82 26.5 133t85 81t148.5 42t217 19v96q0 43 -15.5 71.5t-37 44t-46 21.5t-42.5 6q-78 0 -131 -38t-105 -99q-4 -6 -16 -2t-27.5 15t-31 25.5t-25.5 26.5q20 27 54 55.5t77 53.5t93 41t100 16q131 0 206.5 -55t75.5 -199v-327q0 -78 12.5 -135.5t30.5 -92.5 q-10 -6 -26.5 -11t-33 -8t-31.5 -5t-24 -2q-8 0 -17 3t-15 17q-4 10 -6 24.5t-7 28.5q-4 16 -6 35q-31 -31 -57.5 -52t-56 -34.5t-65.5 -20.5t-83 -7q-94 0 -157.5 65.5t-63.5 167.5zM168 199q0 -53 23.5 -86t87.5 -33q66 0 120 36t115 97v182q-129 -2 -198.5 -19.5 t-102.5 -44t-39 -61t-6 -71.5zM170 1104h110q4 -47 28 -69.5t87 -22.5q59 0 84 22.5t29 69.5h110q-6 -92 -58 -144.5t-165 -52.5q-115 0 -167 52.5t-58 144.5z" />
<glyph unicode="&#x106;" horiz-adv-x="776" d="M82 496q0 135 18.5 231t62.5 158.5t116.5 91.5t179.5 29q68 0 144.5 -21.5t131.5 -64.5l-63 -99q-47 41 -100.5 57.5t-114.5 16.5q-72 0 -118 -20.5t-71.5 -67.5t-36 -123t-10.5 -188q0 -113 10.5 -189t36 -123t71.5 -67.5t118 -20.5q61 0 114.5 16.5t100.5 57.5l63 -98 q-55 -43 -132 -64.5t-144 -21.5q-106 0 -179 28.5t-117 91t-62.5 159t-18.5 231.5zM383 1067l133 215h162l-195 -215h-100z" />
<glyph unicode="&#x107;" horiz-adv-x="741" d="M57 406q0 195 76 307t248 112q100 0 174 -47t129 -119q-10 -12 -25.5 -26.5t-30 -25.5t-26.5 -15t-18 2q-25 31 -47.5 56.5t-47 44t-53 27.5t-67.5 9q-31 0 -63 -7t-57.5 -40t-42 -98.5t-16.5 -179.5q0 -115 16.5 -180.5t42 -97.5t57.5 -40t63 -8q39 0 67.5 9t53 27.5 t47 44t47.5 56.5q6 6 18 2t26.5 -15t30 -25.5t25.5 -26.5q-55 -72 -129 -119t-174 -47q-172 0 -248 112.5t-76 307.5zM316 899l133 215h162l-195 -215h-100z" />
<glyph unicode="&#x10c;" horiz-adv-x="776" d="M82 496q0 135 18.5 231t62.5 158.5t116.5 91.5t179.5 29q68 0 144.5 -21.5t131.5 -64.5l-63 -99q-47 41 -100.5 57.5t-114.5 16.5q-72 0 -118 -20.5t-71.5 -67.5t-36 -123t-10.5 -188q0 -113 10.5 -189t36 -123t71.5 -67.5t118 -20.5q61 0 114.5 16.5t100.5 57.5l63 -98 q-55 -43 -132 -64.5t-144 -21.5q-106 0 -179 28.5t-117 91t-62.5 159t-18.5 231.5zM228 1319h145l88 -137l84 137h145l-178 -215h-104z" />
<glyph unicode="&#x10d;" horiz-adv-x="741" d="M57 406q0 195 76 307t248 112q100 0 174 -47t129 -119q-10 -12 -25.5 -26.5t-30 -25.5t-26.5 -15t-18 2q-25 31 -47.5 56.5t-47 44t-53 27.5t-67.5 9q-31 0 -63 -7t-57.5 -40t-42 -98.5t-16.5 -179.5q0 -115 16.5 -180.5t42 -97.5t57.5 -40t63 -8q39 0 67.5 9t53 27.5 t47 44t47.5 56.5q6 6 18 2t26.5 -15t30 -25.5t25.5 -26.5q-55 -72 -129 -119t-174 -47q-172 0 -248 112.5t-76 307.5zM170 1114h145l88 -137l84 137h145l-178 -215h-104z" />
<glyph unicode="&#x110;" horiz-adv-x="956" d="M-41 455v102h164v438h371q109 0 182.5 -31.5t117.5 -96t62 -161t18 -223.5q0 -119 -18 -210t-62 -151.5t-118 -91t-182 -30.5h-371v455h-164zM266 106h228q72 0 117.5 20.5t72.5 65t37 116t10 175.5q0 115 -10 192t-37 125t-73 68.5t-117 20.5h-228v-332h269v-102h-269 v-349z" />
<glyph unicode="&#x111;" horiz-adv-x="856" d="M57 410q0 195 60.5 305t218.5 110q82 0 141.5 -26.5t100.5 -53.5v179h-164v92h164v108h135v-108h143v-92h-143v-924h-101l-14 94q-47 -47 -104.5 -78.5t-143.5 -31.5q-141 0 -217 101.5t-76 324.5zM190 393q0 -156 37 -234.5t129 -78.5q55 0 115.5 31.5t106.5 95.5v438 q-35 35 -91.5 60.5t-126.5 25.5q-55 0 -88.5 -20.5t-52 -61.5t-24 -105.5t-5.5 -150.5z" />
<glyph unicode="&#x11e;" horiz-adv-x="890" d="M102 496q0 135 18.5 231t62.5 158.5t117 91.5t179 29q68 0 144.5 -21.5t132.5 -64.5l-64 -99q-47 41 -100 57.5t-115 16.5q-72 0 -118 -20.5t-71.5 -67.5t-35.5 -123t-10 -188q0 -113 10 -189t35.5 -123t72 -67.5t117.5 -20.5q31 0 79 16.5t95 57.5v252h-43 q-39 0 -61.5 -4t-34.5 -6t-17.5 0t-11.5 14q-10 20 -12 56t4 48h313v-419q-41 -43 -117.5 -84t-191.5 -41q-106 0 -179 28.5t-117 91t-62.5 159t-18.5 231.5zM268 1321h110q4 -47 28 -69.5t87 -22.5q59 0 84 22.5t29 69.5h110q-6 -92 -58 -144.5t-165 -52.5 q-115 0 -167 52.5t-58 144.5z" />
<glyph unicode="&#x11f;" horiz-adv-x="778" d="M31 -96q0 53 28.5 97t114.5 75v4q-57 10 -82.5 42t-25.5 66q0 53 29.5 91t78.5 55q-41 23 -72.5 79t-31.5 119q0 135 87 214t234 79q59 0 104.5 -19.5t61.5 -29.5q33 35 80 61.5t90 26.5q25 0 25 -24q0 -14 -1 -29.5t-3 -28.5q-2 -14 -7 -26q-41 0 -67.5 -9.5 t-50.5 -29.5q29 -35 42 -72t13 -96q0 -74 -24.5 -128t-67.5 -88t-100.5 -50.5t-120.5 -16.5q-25 0 -54.5 7.5t-60.5 19.5q-39 -16 -54.5 -35.5t-15.5 -42.5q0 -35 50.5 -53.5t179.5 -18.5q182 0 263 -55t81 -154q0 -45 -18.5 -84.5t-61.5 -70.5t-114 -48.5t-175 -17.5 t-173 16.5t-109 43t-56 61.5t-16 70zM156 -78q0 -59 59 -87t156 -28q121 0 189.5 28t68.5 91q0 25 -7.5 46.5t-34 36t-79.5 22.5t-143 8q-109 0 -159 -32t-50 -85zM205 543q0 -51 16.5 -87t41 -56.5t54 -30t56.5 -9.5q68 0 119 39t51 144q0 106 -51.5 147t-118.5 41 q-66 0 -117 -46t-51 -142zM164 1104h110q4 -47 28 -69.5t87 -22.5q59 0 84 22.5t29 69.5h110q-6 -92 -58 -144.5t-165 -52.5q-115 0 -167 52.5t-58 144.5z" />
<glyph unicode="&#x130;" horiz-adv-x="565" d="M41 0v96h168v803h-162v96h477v-96h-174v-803h168v-96h-477zM209 1177v148h144v-148h-144z" />
<glyph unicode="&#x131;" horiz-adv-x="346" d="M106 0v809h134v-809h-134z" />
<glyph unicode="&#x141;" horiz-adv-x="778" d="M25 430v119l131 53v522h143v-460l266 106v-119l-266 -104v-443h461v-104h-604v483z" />
<glyph unicode="&#x142;" horiz-adv-x="387" d="M2 434v121l125 63v506h133v-456l125 63v-119l-125 -65v-547h-133v500z" />
<glyph unicode="&#x152;" horiz-adv-x="1347" d="M82 485q0 256 91 386t310 130q59 0 128 -3t110 -3h586v-106h-443v-316h381v-106h-381v-361h436v-106h-579q-27 0 -93.5 -6t-144.5 -6q-217 0 -309 128.5t-92 368.5zM225 485q0 -207 57.5 -295t200.5 -88q66 0 134.5 8.5t103.5 22.5v735q-39 8 -105.5 15.5t-132.5 7.5 q-72 0 -121 -20.5t-79.5 -68.5t-44 -125t-13.5 -192z" />
<glyph unicode="&#x153;" horiz-adv-x="1296" d="M57 406q0 211 74 315t258 104q123 0 183.5 -48t76.5 -107q12 31 29.5 59.5t49.5 50t80 33.5t120 12q162 0 232.5 -100t70.5 -334h-510q0 -139 49 -220t148 -81q47 0 106 28.5t119 123.5l98 -60q-66 -106 -136.5 -152t-184.5 -46q-98 0 -171 34.5t-102 122.5 q-8 -31 -23.5 -58.5t-45 -50t-74.5 -35.5t-115 -13q-84 0 -146.5 20.5t-103.5 69.5t-61.5 130t-20.5 202zM190 406q0 -82 8.5 -143.5t31 -102.5t60.5 -60.5t99 -19.5q113 0 155 80t42 246t-42 245.5t-155 79.5q-121 0 -160 -80.5t-39 -244.5zM721 487h377q0 125 -41 184.5 t-131 59.5q-63 0 -102.5 -17.5t-61 -49t-29.5 -77t-12 -100.5z" />
<glyph unicode="&#x15e;" horiz-adv-x="913" d="M82 295l137 29q16 -66 46 -108t68 -66.5t82 -35t87 -10.5q78 0 132 42t54 102q0 59 -43 95t-106.5 63.5t-138 51t-138 58.5t-106.5 88t-43 135q0 117 84 188.5t243 71.5q135 0 229.5 -69.5t135.5 -202.5l-131 -27q-31 96 -85 140.5t-149 44.5q-86 0 -135 -42t-49 -104 q0 -55 43 -89t106.5 -60.5t138 -51t138 -59.5t106.5 -86t43 -131q0 -119 -86 -196.5t-245 -77.5q-174 0 -272.5 73.5t-145.5 233.5zM350 -293l20 55q20 -6 47 -14t46 -8q53 0 77.5 13.5t24.5 47.5q0 35 -21.5 49.5t-48.5 14.5q-39 0 -67 -12l-23 18l92 129h60l-68 -78l4 -4 q14 10 47 10q57 0 90 -34.5t33 -96.5q0 -31 -16 -53.5t-41 -37.5t-53.5 -22.5t-52.5 -7.5q-39 0 -77 7.5t-73 23.5z" />
<glyph unicode="&#x15f;" horiz-adv-x="710" d="M39 147q14 16 29 29q12 10 23 21.5t20 15.5q23 10 36 -8q53 -68 105.5 -96.5t105.5 -28.5q23 0 47.5 9t45 25.5t34 42t13.5 58.5q0 53 -33 83t-81 49.5t-104.5 34.5t-104.5 41t-81 67.5t-33 113.5q0 57 21.5 99t56.5 69t82 40t98 13q86 0 161 -37.5t118 -107.5 q-12 -16 -27 -29q-12 -10 -25.5 -20t-27.5 -15q-10 -4 -15 0.5t-16 16.5q-37 47 -77.5 72.5t-94.5 25.5q-18 0 -38.5 -5t-39 -19.5t-29.5 -38t-11 -60.5q0 -45 32.5 -69.5t80.5 -42t104.5 -35t104.5 -46t81 -75.5t33 -125q0 -55 -23.5 -98t-62.5 -73t-89 -45t-106 -15 q-94 0 -175 38.5t-138 124.5zM190 -293l20 55q20 -6 47 -14t46 -8q53 0 77.5 13.5t24.5 47.5q0 35 -21.5 49.5t-48.5 14.5q-39 0 -67 -12l-23 18l92 129h60l-68 -78l4 -4q14 10 47 10q57 0 90 -34.5t33 -96.5q0 -31 -16 -53.5t-41 -37.5t-53.5 -22.5t-52.5 -7.5 q-39 0 -77 7.5t-73 23.5z" />
<glyph unicode="&#x160;" horiz-adv-x="913" d="M82 295l137 29q16 -66 46 -108t68 -66.5t82 -35t87 -10.5q78 0 132 42t54 102q0 59 -43 95t-106.5 63.5t-138 51t-138 58.5t-106.5 88t-43 135q0 117 84 188.5t243 71.5q135 0 229.5 -69.5t135.5 -202.5l-131 -27q-31 96 -85 140.5t-149 44.5q-86 0 -135 -42t-49 -104 q0 -55 43 -89t106.5 -60.5t138 -51t138 -59.5t106.5 -86t43 -131q0 -119 -86 -196.5t-245 -77.5q-174 0 -272.5 73.5t-145.5 233.5zM211 1403h145l88 -137l84 137h145l-178 -215h-104z" />
<glyph unicode="&#x161;" horiz-adv-x="710" d="M39 147q14 16 29 29q12 10 23 21.5t20 15.5q23 10 36 -8q53 -68 105.5 -96.5t105.5 -28.5q23 0 47.5 9t45 25.5t34 42t13.5 58.5q0 53 -33 83t-81 49.5t-104.5 34.5t-104.5 41t-81 67.5t-33 113.5q0 57 21.5 99t56.5 69t82 40t98 13q86 0 161 -37.5t118 -107.5 q-12 -16 -27 -29q-12 -10 -25.5 -20t-27.5 -15q-10 -4 -15 0.5t-16 16.5q-37 47 -77.5 72.5t-94.5 25.5q-18 0 -38.5 -5t-39 -19.5t-29.5 -38t-11 -60.5q0 -45 32.5 -69.5t80.5 -42t104.5 -35t104.5 -46t81 -75.5t33 -125q0 -55 -23.5 -98t-62.5 -73t-89 -45t-106 -15 q-94 0 -175 38.5t-138 124.5zM168 1114h145l88 -137l84 137h145l-178 -215h-104z" />
<glyph unicode="&#x178;" horiz-adv-x="866" d="M41 995h162l231 -471l230 471h161l-321 -606v-389h-144v389zM219 1089v168h143v-168h-143zM504 1089v168h143v-168h-143z" />
<glyph unicode="&#x192;" horiz-adv-x="784" d="M21.5 -248q-1.5 12 5 35t26.5 59q12 -4 25.5 -8t25.5 -4q72 0 105 51.5t53 173.5l74 508h-203v92h213q6 61 21.5 139.5t47 148t85 116.5t135.5 47q35 0 60.5 -4t47.5 -8q6 -8 11.5 -29.5t5.5 -41t-6 -34t-23 -12.5q-12 4 -34.5 9t-45.5 5q-47 0 -74.5 -30.5t-45 -78.5 t-25.5 -107.5t-19 -119.5h181v-92h-191l-86 -585q-8 -55 -26.5 -102.5t-53.5 -82.5t-86 -55.5t-125 -20.5q-16 0 -29.5 1.5t-29.5 5.5q-6 2 -12 7t-7.5 17z" />
<glyph unicode="&#x1a0;" horiz-adv-x="966" d="M82 485q0 256 91 386t310 130q190 0 289 -104q51 20 73.5 60t24.5 106l117 10q0 -47 -13 -89t-37 -76t-53.5 -57.5t-60.5 -33.5q33 -72 47.5 -145.5t14.5 -186.5q0 -119 -21.5 -212t-70 -156.5t-125 -96t-185.5 -32.5q-217 0 -309 128.5t-92 368.5zM229 485 q0 -104 12.5 -175.5t42 -118t79 -67t120.5 -20.5q72 0 120 20.5t78 67t43 118t13 175.5q0 115 -13 192t-43 124t-78 67.5t-120 20.5t-121 -20.5t-78.5 -67.5t-42 -124t-12.5 -192z" />
<glyph unicode="&#x1a1;" horiz-adv-x="778" d="M57 406q0 98 16.5 175.5t55.5 132t102.5 83t157.5 28.5q127 0 207 -57q49 16 70.5 53t23.5 99l107 8q0 -82 -43 -142.5t-97 -83.5q33 -53 48.5 -124.5t15.5 -171.5q0 -98 -16.5 -176t-54.5 -133.5t-101.5 -84t-159.5 -28.5q-94 0 -157.5 28.5t-102.5 84t-55.5 133.5 t-16.5 176zM190 406q0 -82 7.5 -143.5t29 -102.5t60.5 -60.5t102 -19.5t102 19.5t60.5 60.5t29 102.5t7.5 143.5t-7.5 143t-29 101t-60 60.5t-102.5 20.5q-63 0 -102 -20.5t-60.5 -60.5t-29 -101t-7.5 -143z" />
<glyph unicode="&#x1af;" horiz-adv-x="1007" d="M123 418v577h143v-577q0 -104 13.5 -166t41 -95.5t73.5 -44t110 -10.5q63 0 108 10.5t74 44t42 95t13 166.5v577h144v-114q39 2 59.5 19.5t29.5 43t7 57t-8 62.5l117 31q8 -61 -5.5 -115.5t-42 -97.5t-69.5 -69t-88 -28v-366q0 -119 -18.5 -202t-62.5 -133t-118 -72.5 t-182 -22.5q-109 0 -182.5 22.5t-117.5 72.5t-62.5 133t-18.5 202z" />
<glyph unicode="&#x1b0;" horiz-adv-x="907" d="M129 256v553h133v-543q0 -100 40 -143t104 -43q47 0 118.5 40t118.5 116v573h135v-125q39 10 59.5 28.5t28.5 43t5 52.5t-9 54l107 29q12 -51 5 -101.5t-31.5 -90.5t-65.5 -68.5t-99 -38.5v-592h-135v109q-20 -31 -52 -53.5t-65.5 -39t-69.5 -24.5t-67 -8 q-129 0 -194.5 70.5t-65.5 201.5z" />
<glyph unicode="&#x2c6;" horiz-adv-x="346" d="M-59 899l180 215h104l178 -215h-124l-105 137l-108 -137h-125z" />
<glyph unicode="&#x2c7;" horiz-adv-x="346" d="M-59 1114h145l88 -137l84 137h145l-178 -215h-104z" />
<glyph unicode="&#x2d8;" horiz-adv-x="346" d="M-51 1104h110q4 -47 28 -69.5t87 -22.5q59 0 84 22.5t29 69.5h110q-6 -92 -58 -144.5t-165 -52.5q-115 0 -167 52.5t-58 144.5z" />
<glyph unicode="&#x2d9;" horiz-adv-x="346" d="M100 915v148h144v-148h-144z" />
<glyph unicode="&#x2da;" horiz-adv-x="346" d="M18 1049q0 66 46.5 110.5t109.5 44.5q61 0 108.5 -45t47.5 -110q0 -66 -47 -111t-109 -45q-63 0 -109.5 45t-46.5 111zM98 1049q0 -31 22.5 -52.5t53.5 -21.5t52.5 21.5t21.5 52.5q0 33 -21.5 53t-52.5 20t-53.5 -20t-22.5 -53z" />
<glyph unicode="&#x2db;" horiz-adv-x="346" d="M4 -197q0 57 36 98.5t87 69t107.5 46t99.5 32.5v-53q-33 -10 -71 -27.5t-69.5 -40t-53 -49t-21.5 -53.5q0 -18 11 -33.5t46 -15.5q18 0 42 8t47.5 19.5t46 23.5t36.5 20l23 -88q-45 -29 -106.5 -55.5t-114.5 -26.5q-59 0 -102.5 27.5t-43.5 97.5z" />
<glyph unicode="&#x2dc;" horiz-adv-x="346" d="M-72 915q2 29 12.5 59t29 56.5t42 43t54.5 16.5q29 0 56.5 -11.5t53 -24t50 -23.5t42.5 -11q33 0 49.5 23.5t20.5 52.5h78q-4 -31 -13.5 -61.5t-26 -55.5t-40 -40t-57.5 -15q-25 0 -52.5 11t-55.5 23.5t-51.5 23.5t-39.5 11q-33 0 -50.5 -24.5t-21.5 -53.5h-80z" />
<glyph unicode="&#x2dd;" horiz-adv-x="346" d="M-12 899l133 215h162l-195 -215h-100zM176 899l174 215h162l-236 -215h-100z" />
<glyph unicode="&#x300;" horiz-adv-x="346" d="M-20 1114h159l131 -215h-100z" />
<glyph unicode="&#x301;" horiz-adv-x="346" d="M74 899l133 215h162l-195 -215h-100z" />
<glyph unicode="&#x303;" horiz-adv-x="346" d="M-72 915q2 29 12.5 59t29 56.5t42 43t54.5 16.5q29 0 56.5 -11.5t53 -24t50 -23.5t42.5 -11q33 0 49.5 23.5t20.5 52.5h78q-4 -31 -13.5 -61.5t-26 -55.5t-40 -40t-57.5 -15q-25 0 -52.5 11t-55.5 23.5t-51.5 23.5t-39.5 11q-33 0 -50.5 -24.5t-21.5 -53.5h-80z" />
<glyph unicode="&#x309;" horiz-adv-x="477" d="M100 1098q23 41 63 65.5t83 24.5q63 0 100 -41t37 -96q0 -35 -16.5 -67t-37 -56.5t-41 -43t-30.5 -24.5l-80 62q51 35 79 60.5t28 64.5q0 29 -14.5 41t-30.5 12q-35 0 -74 -58z" />
<glyph unicode="&#x323;" horiz-adv-x="317" d="M92 -100h133v-142h-133v142z" />
<glyph unicode="&#xe00;" horiz-adv-x="563" />
<glyph unicode="&#xe01;" horiz-adv-x="901" d="M92 653q0 18 32 49t85 60t121.5 49t142.5 20q70 0 128 -14t99 -51t64.5 -99.5t23.5 -156.5v-510h-122v510q0 80 -9.5 125t-31 68.5t-58.5 29.5t-94 6q-51 0 -98 -9t-83 -22.5t-57.5 -26.5t-21.5 -24q0 -6 6 -16t14.5 -21.5t17.5 -18.5t15 -7q16 0 34.5 13.5t37.5 13.5 q6 0 17.5 -13.5t21.5 -30t14 -29.5t-4 -13q-59 0 -94 -38t-35 -153v-344h-123v365q0 78 15.5 113.5t50.5 70.5q-8 4 -25.5 16.5t-36 27.5t-33 31.5t-14.5 28.5z" />
<glyph unicode="&#xe02;" horiz-adv-x="858" d="M82 649q0 41 18.5 74t47 56.5t67.5 35.5t78 12q41 0 79 -12t67.5 -36.5t48 -62.5t18.5 -89q0 -66 -33 -110t-73 -79t-73.5 -68.5t-33.5 -78.5v-70q0 -78 41 -109.5t119 -31.5q94 0 133 30.5t39 120.5q0 35 -2 78t-2 94v416h124v-577q0 -135 -82.5 -194.5t-211.5 -59.5 q-55 0 -106.5 12t-89.5 39t-61.5 69t-23.5 99v80q0 61 37 102t81 76t81 71.5t37 90.5q0 59 -29 85.5t-92 26.5q-14 0 -35 -3t-39 -12t-31.5 -27.5t-13.5 -47.5q0 -27 13.5 -46t37.5 -19q23 0 38 15t15 48v60h35l37 -60q0 -61 -34 -99t-95 -38t-96 40t-35 99z" />
<glyph unicode="&#xe03;" horiz-adv-x="886" d="M72 684q2 72 41 106.5t86 34.5q27 0 49 -11t39 -26q20 -16 35 -36l81 82q20 -8 42 -28t39.5 -44.5t28.5 -53t11 -57.5q0 -59 -15 -97t-37.5 -63.5t-48.5 -44t-48.5 -39t-37.5 -45t-15 -65.5v-96q0 -78 40.5 -99.5t118.5 -21.5q94 0 133 30.5t39 120.5q0 35 -2 78t-2 94 v416h125v-577q0 -135 -83 -194.5t-212 -59.5q-55 0 -106 9t-89 32.5t-61.5 61.5t-23.5 95v111q0 49 17 82t42 56.5t55.5 42t55 41t42 53t17.5 75.5q0 39 -8 55.5t-19 26.5l-84 -67q-25 25 -41 43t-27 28t-22.5 15.5t-27.5 5.5q-27 0 -42.5 -19.5t-15.5 -48.5 q0 -31 14.5 -51.5t45.5 -20.5q12 0 28.5 9.5t38.5 33.5l21 -24l-13 -47q-37 -43 -77 -43q-59 0 -93 41t-34 100z" />
<glyph unicode="&#xe04;" horiz-adv-x="911" d="M102 496q0 80 28 142t75 105t110.5 65.5t135.5 22.5q197 0 272.5 -84.5t75.5 -263.5v-483h-119v463q0 80 -11.5 133t-38 85t-67.5 45t-102 13q-109 0 -177.5 -54t-68.5 -189q0 -43 5 -84t18 -72q10 45 32.5 87t53 75t69.5 52t82 19q63 0 104.5 -38.5t43.5 -110.5 q0 -59 -42 -101t-102 -42q-57 0 -98 41l-8 63l20 25l39 -37q18 -20 45 -21q31 0 49.5 21.5t18.5 52.5q0 29 -17.5 48.5t-52.5 19.5q-39 0 -77 -37t-69.5 -102.5t-52 -155.5t-22.5 -199h-111q-8 0 -11 4t-3 25q0 18 5 42.5t12.5 51.5t16.5 51.5t15 42.5q12 33 0 47 q-31 39 -53.5 95.5t-22.5 136.5z" />
<glyph unicode="&#xe05;" horiz-adv-x="911" d="M102 496q0 131 57.5 213t168.5 122l133 -86l121 91q127 -20 172 -110.5t45 -242.5v-483h-119v508q0 53 -2 92t-11.5 66.5t-30 45t-58.5 27.5l-117 -86l-125 84q-70 -23 -95.5 -80t-25.5 -161q0 -43 5 -84t18 -72q10 45 32.5 87t53 75t69.5 52t82 19q63 0 104.5 -38.5 t43.5 -110.5q0 -59 -42 -101t-102 -42q-57 0 -98 41l-8 63l20 25l39 -37q18 -20 45 -21q31 0 49.5 21.5t18.5 52.5q0 29 -17.5 48.5t-52.5 19.5q-39 0 -77 -37t-69.5 -102.5t-52 -155.5t-22.5 -199h-111q-8 0 -11 4t-3 25q0 18 5 42.5t12.5 51.5t16.5 51.5t15 42.5 q12 33 0 47q-31 39 -53.5 95.5t-22.5 136.5z" />
<glyph unicode="&#xe06;" horiz-adv-x="1003" d="M72 664q2 72 41 116.5t86 44.5q27 0 52 -11t46 -26q23 -16 45 -36l102 82q20 -8 42 -28t39.5 -44.5t28.5 -53t11 -57.5q0 -49 -19.5 -84t-44 -65.5t-47 -62t-26.5 -74.5q104 -6 189 -57.5t145 -141.5q-2 25 -3 60.5t-2 72.5t-1 73v60v387h123v-364v-138q0 -70 2 -128 t4 -101t4 -59q4 -20 -1 -24.5t-14 -4.5h-120q-33 135 -116 205.5t-210 79.5l4 -82q0 -41 -6 -78t-23.5 -65.5t-47 -46t-76.5 -17.5q-61 0 -96.5 41t-35.5 125q0 92 52.5 140t117.5 60q0 57 21.5 90t46.5 60t45.5 56.5t20.5 78.5q0 35 -12.5 52.5t-18.5 27.5l-82 -76 q-51 51 -79 71.5t-60 20.5q-27 0 -42.5 -24.5t-15.5 -52.5q0 -31 14.5 -51.5t45.5 -20.5q29 0 47 18l37 39l20 -24l-10 -60q-45 -45 -96 -45q-59 0 -93 41.5t-34 100.5zM221 166q0 -45 17.5 -70.5t40.5 -25.5q18 0 27 10t12.5 27.5t2 41t-1.5 48.5q0 23 -1 37t-1 47 q-18 -6 -34.5 -12.5t-30.5 -18.5t-22.5 -32.5t-8.5 -51.5z" />
<glyph unicode="&#xe07;" horiz-adv-x="786" d="M66 502q-4 6 7 17t28.5 24.5t38 26t34.5 18.5q57 -57 110.5 -183t90.5 -315q0 -6 20.5 -10t45 -4t44 4t19.5 12q0 66 8 134.5t16.5 132t15.5 120t7 96.5v73q0 34 -8 58.5t-24.5 38t-51.5 13.5q-29 0 -48.5 -18.5t-19.5 -45.5q0 -25 16.5 -44t47.5 -19h61v-35l-61 -37 q-61 0 -99 37t-38 98q0 59 50 98t111 39q96 0 141.5 -68.5t45.5 -172.5q0 -33 -5 -83t-11.5 -102.5t-13.5 -101.5t-11 -82q-2 -25 -4 -53.5t-4 -56t-2 -50.5v-34q0 -10 -26 -17.5t-64.5 -10.5t-85 -2t-85 4t-65.5 10t-29 18q-16 98 -32.5 163.5t-39 116.5t-53 95.5 t-77.5 97.5z" />
<glyph unicode="&#xe08;" horiz-adv-x="876" d="M41 666q20 27 61 55.5t93.5 53t113 39.5t117.5 15q66 0 126 -14t107.5 -45t76 -81t28.5 -122q0 -33 -5 -79t-11.5 -95t-12.5 -94t-10 -78q-2 -25 -3 -53.5t-1 -56t1 -50t1 -34.5q0 -16 -55.5 -23.5t-122.5 -7.5q-35 0 -70 2t-62.5 6t-44 10t-16.5 15q4 84 5 160.5t-6 137 t-26.5 96.5t-56.5 36q-29 0 -48 -18.5t-19 -45.5q0 -23 16 -43t47 -20h62v-35l-62 -37q-61 0 -99 37t-38 98t40 99t101 38q117 0 161 -109.5t36 -332.5q0 -6 21.5 -10t50.5 -4t53 4t22 12q-4 68 0 134.5t10.5 126t12.5 108.5t6 86q0 68 -27.5 104.5t-62.5 54t-67.5 21.5 t-45.5 4q-94 0 -159.5 -39t-116.5 -100q-4 -6 -19.5 -3t-35 13t-38 27t-28.5 37z" />
<glyph unicode="&#xe09;" horiz-adv-x="962" d="M94 686q72 59 180.5 101t235.5 42q72 0 134.5 -14t108.5 -45t71.5 -81t25.5 -122v-168q0 -18 -8 -44.5t-25 -43.5q41 -23 62.5 -67.5t21.5 -98.5q0 -82 -51 -117.5t-113 -35.5q-61 0 -109 34.5t-48 108.5q0 47 19 75t44 48q-8 2 -20 2q-49 0 -90 -21.5t-70 -56.5 t-44.5 -82t-15.5 -100h-100q-8 0 -13 4t-1 25q6 33 16 87t10 154v70q0 47 -17 75.5t-48 28.5q-35 0 -54.5 -22.5t-19.5 -52.5q0 -31 17.5 -53.5t50.5 -22.5h51v-37l-57 -33q-59 0 -97.5 42t-38.5 104q0 61 43 104t105 43q80 0 127 -51t41 -137l-4 -58q0 -10 -2 -23.5 t-6 -27.5l-9 -33q35 78 104.5 119t137.5 41q29 0 50.5 -4t31.5 -8q4 10 5 28.5t1 36.5v168q0 59 -29.5 92t-66.5 49.5t-73 19.5t-48 3q-92 0 -173 -34.5t-132 -96.5q-6 -6 -18.5 -1t-28 17.5t-33 31t-31.5 38.5zM651 145q0 -33 15.5 -56t50.5 -23q72 0 71 84q0 33 -21.5 58 t-47.5 34q-35 -23 -51.5 -48.5t-16.5 -48.5z" />
<glyph unicode="&#xe0a;" horiz-adv-x="874" d="M61 655q0 74 56.5 123t150.5 49q98 0 150.5 -49t52.5 -135q0 -63 -27.5 -107t-59.5 -80t-59.5 -70t-27.5 -79v-96q0 -78 43 -104.5t121 -26.5q94 0 137 25.5t43 115.5v38q0 19 -1 48t-1 72v108q0 66 -21.5 87.5t-39.5 21.5q-12 0 -17.5 -5t-19.5 -5q-6 0 -15.5 11 t-18.5 24.5t-12 24.5t3 13q35 8 56 17.5t42 28.5q27 23 44 51t30 53q14 29 22 59q25 -4 47 -12q18 -6 36 -13t28 -18q6 -6 6 -12q0 -4 -2 -7t-4 -7q-29 -45 -62.5 -85t-72.5 -67q12 -8 27.5 -19.5t30.5 -28.5t25.5 -44t10.5 -63v-261q0 -68 -23.5 -113.5t-63.5 -75.5 t-95.5 -42t-120.5 -12q-55 0 -106.5 11t-91.5 35.5t-63.5 64.5t-23.5 98v90q0 66 33 106.5t71.5 75.5t71.5 72t33 96t-29.5 86t-93.5 27q-45 0 -82 -17.5t-37 -77.5q0 -27 13.5 -45t42.5 -18q23 0 39 14.5t16 46.5v60h35l37 -60q0 -61 -33 -99t-94 -38t-98.5 40t-37.5 99z " />
<glyph unicode="&#xe0b;" horiz-adv-x="886" d="M61 682q2 72 41 107.5t86 35.5q27 0 48.5 -11t37.5 -28q18 -18 33 -41l103 89q37 -29 50 -77t13 -106q0 -72 -26.5 -117t-58.5 -78.5t-56.5 -66.5t-22.5 -82v-96q0 -78 43 -104.5t121 -26.5q94 0 137 25.5t43 115.5v38q0 19 -1 48t-1 72v108q0 66 -21.5 87.5t-39.5 21.5 q-12 0 -17.5 -5t-19.5 -5q-6 0 -15.5 11t-18.5 24.5t-12 24.5t3 13q35 8 56.5 17.5t41.5 28.5q27 23 44.5 51t29.5 53q14 29 23 59q25 -4 47 -12q18 -6 35.5 -13t27.5 -18q6 -6 6 -12q0 -4 -2 -7t-4 -7q-29 -45 -62.5 -85t-72.5 -67q12 -8 27.5 -19.5t31 -28.5t25.5 -44 t10 -63v-261q0 -68 -23.5 -113.5t-63.5 -75.5t-95 -42t-121 -12q-55 0 -106.5 11t-91.5 35.5t-63.5 64.5t-23.5 98v100q0 74 32 116t69 73.5t68.5 66.5t31.5 94q0 23 -1 36t-3 24q-2 10 -6 16l-74 -61q-51 51 -74.5 69.5t-40.5 18.5q-27 0 -42 -18.5t-15 -47.5 q0 -31 14.5 -51.5t44.5 -20.5q12 0 29 9.5t39 33.5l21 -24l-13 -47q-37 -43 -78 -43q-59 0 -93 41t-34 100z" />
<glyph unicode="&#xe0c;" horiz-adv-x="1359" d="M92 653q0 18 29 49t78 60t114.5 49t139.5 20q70 0 134 -14t113.5 -51t79 -99.5t29.5 -156.5v-145q104 -6 185 -50.5t124 -148.5q-2 25 -3 60.5t-2 72.5t-1 73v60v387h123v-364v-138q0 -70 2 -128t4 -101t4 -59q4 -20 -1 -24.5t-13 -4.5h-121q-33 135 -102.5 204.5 t-196.5 80.5l2 -82q0 -41 -6 -78t-23.5 -65.5t-47 -46t-77.5 -17.5q-61 0 -96 41t-35 125q0 90 50.5 138t113.5 60q0 12 -1 34t-2 44.5t-2 43t-1 28.5q0 80 -15.5 125t-45 68.5t-72.5 29.5t-100 6q-51 0 -94.5 -9t-76 -22.5t-51 -26.5t-18.5 -24q0 -6 7 -16t18.5 -21.5 t21.5 -18.5t16 -7q16 0 35 13.5t37 13.5q6 0 17.5 -13.5t21.5 -30t14.5 -29.5t-4.5 -13q-31 0 -56.5 -5.5t-43.5 -23t-28.5 -51t-10.5 -90.5v-207q0 -47 18.5 -73t49.5 -26q35 0 53 22.5t18 53.5t-17.5 52.5t-47.5 21.5h-58v33l58 39q59 0 99 -42t40 -104q0 -61 -42 -104 t-103 -43q-35 0 -69 12t-61.5 36.5t-44 61.5t-16.5 86v181q0 78 15.5 113.5t50.5 70.5q-8 4 -25.5 16.5t-36 27.5t-33 31.5t-14.5 28.5zM602 166q0 -45 17.5 -70.5t39.5 -25.5q18 0 27.5 10t12.5 27.5t2 41t-1 48.5q0 14 -2 31.5t-4 52.5q-35 -10 -63.5 -32t-28.5 -83z" />
<glyph unicode="&#xe0d;" horiz-adv-x="1357" d="M92 653q0 18 25.5 49t70.5 60t107.5 49t136.5 20q70 0 132.5 -14t110.5 -51t75.5 -99.5t27.5 -156.5q0 -25 -1 -59l-2 -70q-1 -35 -2 -67.5t-1 -53.5q0 -49 5 -76.5t22 -48.5q49 -55 149 -55t150 55q16 20 22 40t6 61q0 35 -2 96t-2 112v375h123v-549q0 -78 -8 -122 t-37 -76q-25 -27 -56.5 -44.5t-66.5 -25.5t-67.5 -11t-61.5 -3q-27 0 -60.5 3t-68.5 11t-66.5 25.5t-56.5 44.5q-27 31 -34 82t-7 116v240q0 80 -13 125t-41 68.5t-70 29.5t-99 6q-51 0 -91 -9t-68.5 -22.5t-44 -26.5t-15.5 -24q0 -6 7 -16t18.5 -21.5t21.5 -18.5t16 -7 q16 0 35 13.5t37 13.5q6 0 17.5 -13.5t21.5 -30t14.5 -29.5t-4.5 -13q-31 0 -56.5 -5.5t-43.5 -23t-28.5 -51t-10.5 -90.5v-207q0 -47 18.5 -73t49.5 -26q35 0 53 22.5t18 53.5t-17.5 52.5t-47.5 21.5h-58v33l58 39q59 0 99 -42t40 -104q0 -61 -42 -104t-103 -43 q-35 0 -69 12t-61.5 36.5t-44 61.5t-16.5 86v181q0 78 15.5 113.5t50.5 70.5q-8 4 -25.5 16.5t-36 27.5t-33 31.5t-14.5 28.5zM678 -207q0 61 41 92t86 31q47 0 77.5 -29.5t30.5 -89.5l-32 -59h-33v59q0 29 -13.5 40t-29.5 11q-49 0 -49 -55q0 -51 35.5 -73.5t121.5 -22.5 q53 0 90 9t59.5 32.5t33 63.5t10.5 100h121q0 -59 -17.5 -111.5t-54.5 -91.5t-95.5 -61.5t-139.5 -22.5q-129 0 -185.5 53t-56.5 125z" />
<glyph unicode="&#xe0e;" horiz-adv-x="991" d="M61 135q0 61 37 102.5t95 41.5l47 -35v-33h-47q-31 0 -44.5 -22.5t-13.5 -53.5t18.5 -53.5t53.5 -22.5q31 0 51.5 23.5t20.5 71.5q0 23 -5.5 55.5t-10.5 68t-10 70.5t-5 62q0 39 5 72.5t38 66.5q-8 4 -25.5 16.5t-36 27.5t-33 31.5t-14.5 28.5q0 18 25.5 49t71 60t108 49 t135.5 20q70 0 134.5 -14t113.5 -51t79 -99.5t30 -156.5v-879h-140q-16 27 -50 68t-85 70q-25 -53 -79 -97.5t-124 -44.5q-59 0 -101 30t-42 107q0 139 166 140q39 0 70.5 -8.5t62.5 -20.5q6 14 9 27.5t7 23.5q4 12 5 25l32 -8q14 -4 27.5 -8.5t21.5 -10.5q4 -4 4.5 -11 t-1.5 -13q-4 -8 -12.5 -27.5t-14.5 -34.5q39 -23 71.5 -46t51.5 -46v68q0 43 -1 128t-1 221v347q0 80 -15.5 125t-45 68.5t-72.5 29.5t-101 6q-51 0 -91 -9t-68.5 -22.5t-44 -26.5t-15.5 -24q0 -6 7 -18t18.5 -23.5t21.5 -20.5t17 -9q16 0 34.5 13t36.5 13q6 0 15.5 -13 t17.5 -29.5t11 -30t-5 -13.5q-37 0 -59.5 -5t-32.5 -19.5t-13 -40t-3 -68.5q0 -35 2 -62l4 -56q2 -28 4 -57.5t2 -67.5q0 -78 -46 -120t-118 -42t-114 43t-42 104zM342 -240q0 -49 57 -49q47 0 78 26.5t53 63.5q-27 10 -48 15.5t-50 5.5q-49 0 -69.5 -14.5t-20.5 -47.5z" />
<glyph unicode="&#xe0f;" horiz-adv-x="991" d="M61 135q0 61 37 102.5t95 41.5l47 -35v-33h-47q-31 0 -44.5 -22.5t-13.5 -53.5t18.5 -53.5t53.5 -22.5q31 0 51.5 23.5t20.5 71.5q0 23 -5.5 55.5t-10.5 68t-10 70.5t-5 62q0 39 5 72.5t38 66.5q-8 4 -25.5 16.5t-36 27.5t-33 31.5t-14.5 28.5q0 18 25.5 49t71 60t108 49 t135.5 20q70 0 134.5 -14t113.5 -51t79 -99.5t30 -156.5l-2 -899h-129l-101 72l-96 -68l-74 78q-33 -35 -65.5 -54.5t-73.5 -19.5q-53 0 -93 34t-40 105q0 45 12 73t31.5 43t43 21.5t46.5 6.5q41 0 72.5 -22.5t50.5 -41.5q8 18 12 48t4 46q16 0 31 -2q12 -2 26.5 -6t22.5 -8 t8 -11t-2 -18q-2 -14 -9 -33.5t-13 -37.5q-8 -23 -17 -43l35 -43l86 57l113 -61v71q0 47 -1 135t-1 228v350q0 80 -15.5 125t-45 68.5t-72.5 29.5t-101 6q-51 0 -91 -9t-68.5 -22.5t-44 -26.5t-15.5 -24q0 -6 7 -18t18.5 -23.5t21.5 -20.5t17 -9q16 0 34.5 13t36.5 13 q6 0 15.5 -13t17.5 -29.5t11 -30t-5 -13.5q-37 0 -59.5 -5t-32.5 -19.5t-13 -40t-3 -68.5q0 -35 2 -62l4 -56q2 -28 4 -57.5t2 -67.5q0 -78 -46 -120t-118 -42t-114 43t-42 104zM289 -240q0 -57 55 -57q45 0 86 57q-27 29 -45 43.5t-43 14.5q-53 -1 -53 -58z" />
<glyph unicode="&#xe10;" horiz-adv-x="837" d="M98 -274q0 39 12.5 64.5t33 40.5t44 21.5t43.5 6.5q37 0 69 -23.5t50 -44.5q8 18 8 42v40q14 0 29 -2q12 -2 24.5 -5t20.5 -7t8 -11.5t-2 -17.5q-2 -14 -8 -33l-12 -37l-15 -43l29 -28l78 43l102 -54q0 20 7.5 38t16.5 34.5t16 32.5t7 39t-11 41t-36 18q-45 0 -45 -47 q0 -16 7.5 -25.5t15.5 -15.5l26 -20l-16 -23l-47 8q-16 14 -28.5 33t-12.5 39q0 51 29.5 80t74.5 29q59 0 90 -37t31 -78q0 -37 -17.5 -97.5t-17.5 -127.5h-112l-78 47l-88 -52l-68 70q-29 -37 -58.5 -52t-66.5 -15q-49 0 -91 29.5t-42 99.5zM109 647q0 84 46 128t121 44 q14 0 40 -2t58 -5t65.5 -5t62.5 -2q37 0 76.5 5t72.5 11l74 17q4 -20 10 -39q10 -35 10 -58q0 -12 -18 -20q-23 -6 -83 -12.5t-120 -6.5q-27 0 -56.5 4.5t-58 8.5t-52 8t-35.5 4q-59 0 -79 -18.5t-20 -65.5q0 -23 10.5 -34t51.5 -11t104.5 14.5t134.5 14.5q53 0 95.5 -18.5 t71 -48.5t43 -66.5t14.5 -75.5q0 -29 -6.5 -73t-15.5 -96t-17.5 -109.5t-12.5 -112.5q0 -10 -23.5 -17.5t-57 -10.5t-72.5 -2t-73 4t-55.5 10t-21.5 18q4 84 5 144t-6 101t-26.5 60.5t-56.5 19.5q-29 0 -48 -18.5t-19 -44.5q0 -23 16 -43.5t47 -20.5h62v-34l-62 -37 q-61 0 -99 36.5t-38 98.5q0 61 40 99t101 38q66 0 103 -22.5t54 -66.5t20 -106.5t-1 -142.5q0 -6 15.5 -10t35 -4t36 4t16.5 12q8 92 22.5 167t14.5 147q0 20 -6.5 40.5t-26 37t-59 26.5t-107.5 10q-63 0 -118.5 -8t-96.5 -8q-59 0 -80.5 44t-21.5 99zM176 -274 q0 -27 18.5 -39.5t41.5 -12.5t45 9.5t41 44.5q-47 51 -89 51q-23 0 -40 -13t-17 -40z" />
<glyph unicode="&#xe11;" horiz-adv-x="995" d="M61 684q0 72 40 106.5t83 34.5q27 0 47.5 -10t34.5 -24q16 -16 29 -37l84 80q31 -23 52.5 -60t21.5 -88q0 -47 -17.5 -76.5t-39 -60.5t-39 -74t-17.5 -119l-6 -112q29 78 73 178t96 190t111.5 151.5t116.5 61.5q84 -2 118 -38.5t34 -137.5v-649h-123v631q0 47 -13.5 58 t-33.5 11q-31 0 -66 -30.5t-68.5 -82.5t-67.5 -118t-64.5 -136.5t-57.5 -139t-47 -123.5l-2 -70h-111q-8 0 -13 4t-1 25q6 33 8 109.5t2 213.5q0 68 22.5 116t50.5 86t50.5 70.5t22.5 69.5q0 14 -4 27q-2 6 -5 6l-73 -61q-35 49 -53.5 68.5t-42.5 19.5q-31 0 -48.5 -19.5 t-17.5 -48.5q0 -27 18.5 -49.5t49.5 -22.5q12 0 26.5 8.5t36.5 32.5l21 -24l-13 -43q-35 -41 -78 -41q-55 0 -91 41t-36 96z" />
<glyph unicode="&#xe12;" horiz-adv-x="1370" d="M102 496q0 131 47.5 213t157.5 122l150 -86l145 91q127 -20 172 -110.5t45 -242.5v-112q104 -6 185 -52.5t124 -150.5q-2 25 -3 59.5t-2 72.5t-1 73v59v387h123v-364v-138q0 -70 2 -128t4 -101t4 -59q4 -20 -1 -24.5t-13 -4.5h-121q-33 135 -102.5 204.5t-196.5 80.5 l2 -82q0 -41 -6 -78t-23.5 -65.5t-47 -46t-76.5 -17.5q-61 0 -96 41t-35 125q0 92 50 142t113 63q-2 27 -4 60.5t-4 80.5q-2 109 -21.5 160t-74.5 71l-141 -86l-142 84q-70 -23 -90 -80t-20 -161q0 -76 10 -120t24.5 -69.5t30 -41t27.5 -34.5q8 12 30.5 31t49 37t50.5 34.5 t36 24.5q31 23 41 45.5t10 42.5q0 35 -19.5 55.5t-48.5 20.5q-31 0 -52 -21.5t-21 -51.5q0 -27 20 -46l37 -38l-24 -21l-64 8q-41 41 -41 99q0 59 42 101t101 42q35 0 61.5 -13.5t44 -33t27 -43t9.5 -47.5q0 -55 -19.5 -96.5t-64.5 -73.5q-43 -33 -84 -61.5t-73 -60.5 t-51.5 -72t-19.5 -93h-100q-8 0 -13 4t-1 25q6 33 21.5 67.5t35.5 63.5q12 18 4 28q-16 16 -36.5 36t-39 52.5t-31 85t-12.5 134.5zM612 166q0 -45 17.5 -70.5t40.5 -25.5q18 0 27.5 10t12.5 27.5t2 41t-1 48.5q0 14 -2 31.5t-4 52.5q-35 -10 -64 -32t-29 -83z" />
<glyph unicode="&#xe13;" horiz-adv-x="1349" d="M92 653q0 18 25.5 49t70.5 60t107.5 49t136.5 20q70 0 131.5 -14t106.5 -51t71.5 -99.5t26.5 -156.5v-148l-4 -135q49 78 116.5 109t135.5 31q29 0 46 -4.5t46 -14.5q6 18 6 51v420h123v-440q0 -37 -33 -74q41 -23 67.5 -61.5t26.5 -91.5q0 -41 -15 -71t-40.5 -48.5 t-56.5 -27.5t-62 -9q-61 0 -112 38t-51 111q0 47 25.5 79t49.5 52q-16 4 -47 5q-49 0 -91 -25t-70.5 -63.5t-45 -89t-16.5 -103.5h-111q-8 0 -13 4t-1 25q4 16 5 67t1 121t-1 147.5t-1 145.5q0 80 -12 125t-38 68.5t-66 29.5t-97 6q-51 0 -91 -9t-68.5 -22.5t-44 -26.5 t-15.5 -24q0 -6 7 -16t18.5 -21.5t21.5 -18.5t16 -7q16 0 35 13.5t37 13.5q6 0 17.5 -13.5t21.5 -30t14.5 -29.5t-4.5 -13q-31 0 -56.5 -5.5t-43.5 -23t-28.5 -51t-10.5 -90.5v-201q0 -47 17.5 -76t48.5 -29q35 0 54 22.5t19 53.5t-17.5 53.5t-47.5 22.5h-58v33l58 39 q59 0 99 -43t40 -105q0 -61 -43 -104t-104 -43q-78 0 -133.5 45t-55.5 131v201q0 78 15.5 113.5t50.5 70.5q-8 4 -25.5 16.5t-36 27.5t-33 31.5t-14.5 28.5zM1032 156q0 -86 72 -86q35 0 56.5 20.5t21.5 65.5q0 68 -86 100q-35 -23 -49.5 -50t-14.5 -50z" />
<glyph unicode="&#xe14;" horiz-adv-x="911" d="M102 496q0 80 28 142t75 105t110.5 65.5t135.5 22.5q197 0 272.5 -84.5t75.5 -263.5v-483h-123v463q0 80 -4 133t-25.5 85t-66.5 45t-129 13q-109 0 -177.5 -54t-68.5 -189q0 -76 10 -120t24.5 -69.5t30 -41t27.5 -34.5q8 12 32.5 31t52.5 38t53.5 35.5t37.5 24.5 q31 23 41 44.5t10 41.5q0 35 -19.5 55.5t-47.5 20.5q-31 0 -52.5 -21.5t-21.5 -51.5q0 -27 20 -46l37 -38l-24 -21l-64 8q-41 41 -41 99q0 59 42 104t102 45q72 -2 111.5 -45t39.5 -98t-24.5 -96.5t-69.5 -73.5q-43 -33 -86 -61.5t-77 -60.5t-54.5 -72t-20.5 -93h-100 q-8 0 -13 4t-1 25q6 33 21.5 67.5t35.5 63.5q12 18 4 28q-16 16 -36.5 36t-39 52.5t-31 85t-12.5 134.5z" />
<glyph unicode="&#xe15;" horiz-adv-x="931" d="M102 496q0 131 47.5 213t157.5 122l154 -86l141 91q127 -20 172 -110.5t45 -242.5v-483h-123v508q0 53 -2 92t-11 66.5t-29.5 45t-55.5 27.5l-137 -86l-146 84q-53 -23 -76.5 -80t-23.5 -161q0 -68 10.5 -114t24.5 -74.5t29.5 -43t27.5 -22.5q12 12 36 29.5t48.5 34 t47 31.5l34.5 23q31 23 41 44.5t10 41.5q0 35 -19.5 55.5t-47.5 20.5q-31 0 -52.5 -21.5t-21.5 -51.5q0 -27 20 -46l37 -38l-24 -21l-64 8q-41 41 -41 99q0 59 42 103t102 44q72 -2 111.5 -44t39.5 -97t-29.5 -99.5t-74.5 -76.5q-43 -33 -83 -60.5t-70 -58.5t-47 -70 t-17 -92h-111q-8 0 -13 4t-1 25q6 33 21.5 67.5t35.5 63.5q12 18 4 28q-16 16 -36.5 36t-39 52.5t-31 85t-12.5 134.5z" />
<glyph unicode="&#xe16;" horiz-adv-x="921" d="M92 653q0 18 31 49t81 60t117.5 49t141.5 20q70 0 132 -14t110.5 -51t76 -99.5t27.5 -156.5v-510h-123v510q0 80 -13.5 125t-41 68.5t-69.5 29.5t-99 6q-51 0 -96 -9t-79 -22.5t-54.5 -26.5t-20.5 -24q0 -6 6 -16t14.5 -21.5t17.5 -18.5t15 -7q16 0 34.5 13.5t37.5 13.5 q6 0 17.5 -13.5t21.5 -30t14 -29.5t-4 -13q-31 0 -54.5 -5.5t-40 -23t-25.5 -51t-9 -90.5v-207q0 -47 18.5 -73t49.5 -26q35 0 53 22.5t18 53.5t-17.5 52.5t-47.5 21.5h-58v33l58 39q59 0 99 -42t40 -104q0 -61 -42 -104t-103 -43q-35 0 -69 12t-61.5 36.5t-44 61.5 t-16.5 86v181q0 78 15.5 113.5t50.5 70.5q-8 4 -25.5 16.5t-36 27.5t-33 31.5t-14.5 28.5z" />
<glyph unicode="&#xe17;" horiz-adv-x="1019" d="M72 686q0 61 49 104.5t110 43.5q72 0 116 -42t44 -120q0 -45 -9 -92.5t-13 -130.5l-11 -160q25 104 56.5 201.5t74.5 171t95.5 118.5t115.5 45q37 0 74 -8t66.5 -28.5t48 -53.5t18.5 -82v-653h-123v633q0 49 -21.5 74.5t-53.5 25.5q-37 0 -77 -35.5t-76 -94t-68.5 -132.5 t-58.5 -152.5t-42 -153.5t-20 -134l-2 -31h-111q-8 0 -13 4t-1 25q4 16 5 59t3 101.5t2 127.5v138q0 39 6 68.5t13 54t13.5 46t6.5 44.5q0 47 -18.5 70.5t-49.5 23.5q-35 0 -55.5 -22.5t-20.5 -53.5t14.5 -53.5t45.5 -22.5h45v-32l-49 -37q-59 0 -94 42t-35 103z" />
<glyph unicode="&#xe18;" horiz-adv-x="864" d="M90 637q0 84 51.5 133t130.5 49q14 0 44 -3t65 -6t71.5 -6t65.5 -3q37 0 74 5t65 13q35 8 64 19q4 -20 10 -39q10 -35 10 -58q0 -12 -18 -20q-23 -6 -84 -14.5t-121 -8.5q-63 0 -118.5 12.5t-102.5 12.5q-53 0 -76.5 -19.5t-23.5 -58.5q0 -35 6 -44t18 -13q14 -4 58.5 -4 t102.5 -4.5t123.5 -15.5t120 -36.5t90.5 -68.5t36 -109v-80q0 -78 -8.5 -122t-36.5 -76q-25 -27 -58 -44.5t-68.5 -25.5t-69.5 -11t-62 -3q-27 0 -62 3t-70.5 11t-68.5 25.5t-58 44.5q-27 31 -33.5 82t-6.5 116v156l118 -6q0 -51 -1 -85t-1 -75q0 -49 5 -76.5t22 -48.5 q27 -29 59.5 -42t96.5 -13q63 0 96 13t59 42q16 20 20.5 40t4.5 61v114q0 47 -32 73t-82 39t-109.5 17t-113.5 7t-98 8.5t-61 19.5q-27 23 -35 52.5t-8 70.5z" />
<glyph unicode="&#xe19;" horiz-adv-x="974" d="M72 686q0 31 14 57.5t36.5 47t52.5 32t61 11.5q72 0 118.5 -42t46.5 -120q0 -23 -5 -44.5t-11 -47t-11 -57t-5 -74.5v-242q49 78 116.5 119t135.5 41q57 0 112 -19q6 18 6 51v420h123v-440q0 -37 -33 -74q41 -23 68 -61.5t27 -91.5q0 -41 -15.5 -71t-41 -48.5 t-56.5 -27.5t-61 -9q-61 0 -112.5 38t-51.5 111q0 47 24.5 78t51.5 49q-14 6 -46 7q-49 0 -94 -24t-78.5 -63.5t-53 -89t-19.5 -102.5h-111q-8 0 -13 4t-1 25q4 16 5 59t1 101.5t-1 128t-1 137.5q0 39 6 68.5t13 54t13.5 46t6.5 44.5q0 47 -18.5 70.5t-49.5 23.5 q-35 0 -55.5 -22.5t-20.5 -53.5t14.5 -53.5t45.5 -22.5h45v-32l-49 -37q-59 0 -94 42t-35 103zM657 156q0 -86 72 -86q35 0 56.5 20.5t21.5 65.5q0 68 -86 100q-35 -23 -49.5 -50t-14.5 -50z" />
<glyph unicode="&#xe1a;" horiz-adv-x="1013" d="M72 686q0 61 49 104.5t110 43.5q72 0 116 -42t44 -120q0 -23 -3 -44.5t-8 -47t-8 -57t-3 -74.5q0 -51 -1 -99.5t-1 -89.5q0 -49 5 -76.5t21 -48.5q49 -55 180 -55t181 55q16 20 22 40t6 61q0 35 -2 75.5t-2 91.5v416h123v-549q0 -78 -8 -122t-37 -76q-25 -27 -61.5 -44.5 t-76.5 -25.5t-78 -11t-67 -3q-27 0 -65.5 3t-78.5 11t-77 25.5t-61 44.5q-27 31 -34 82t-7 116v185q0 39 6 68.5t13 54t13.5 46t6.5 44.5q0 47 -18.5 70.5t-49.5 23.5q-35 0 -55.5 -22.5t-20.5 -53.5t16.5 -53.5t47.5 -22.5h47v-32l-47 -39q-59 0 -98 43t-39 104z" />
<glyph unicode="&#xe1b;" horiz-adv-x="1013" d="M72 686q0 61 49 104.5t110 43.5q72 0 116 -42t44 -120q0 -23 -3 -44.5t-8 -47t-8 -57t-3 -74.5q0 -51 -1 -99.5t-1 -89.5q0 -49 5 -76.5t21 -48.5q49 -55 180 -55t181 55q16 20 22 40t6 61q0 35 -2 75.5t-2 91.5v711h123v-844q0 -78 -8 -122t-37 -76q-25 -27 -61.5 -44.5 t-76.5 -25.5t-78 -11t-67 -3q-27 0 -65.5 3t-78.5 11t-77 25.5t-61 44.5q-27 31 -34 82t-7 116v185q0 39 6 68.5t13 54t13.5 46t6.5 44.5q0 47 -18.5 70.5t-49.5 23.5q-35 0 -55.5 -22.5t-20.5 -53.5t16.5 -53.5t47.5 -22.5h47v-32l-47 -39q-59 0 -98 43t-39 104z" />
<glyph unicode="&#xe1c;" horiz-adv-x="970" d="M104 29q4 16 6.5 30.5t3.5 38t2 64.5t1 108l-2 170q0 39 -2 65.5t-4.5 50.5t-3.5 47.5t-1 53.5q0 43 16.5 76t42 55.5t59.5 34t71 11.5q61 0 109.5 -43t48.5 -105q0 -61 -40 -104t-100 -43l-57 39v32h57q31 0 48.5 22.5t17.5 53.5t-19.5 53.5t-54.5 22.5 q-31 0 -53.5 -28.5t-22.5 -76.5q0 -23 2 -43t3 -43.5t3.5 -54.5t2.5 -76q0 -25 -1 -59.5t-3.5 -69.5t-3.5 -67.5t-1 -53.5q33 53 76 97.5t84 79.5q47 39 96 73q51 -33 99 -73q41 -35 83 -83t70 -104q0 16 -2 44t-3 59.5t-3 63.5t-2 56v416h123v-549q0 -70 1 -140.5t5 -100.5 q4 -20 -1 -24.5t-13 -4.5h-117v20q0 51 -37 106.5t-82 102.5q-53 55 -121 111q-70 -55 -125 -111q-47 -47 -85.5 -102t-38.5 -107v-20h-117q-8 0 -13.5 4.5t-1.5 24.5z" />
<glyph unicode="&#xe1d;" horiz-adv-x="970" d="M104 29q4 16 6.5 30.5t3.5 38t2 64.5t1 108l-2 170q0 39 -2 65.5t-4.5 50.5t-3.5 47.5t-1 53.5q0 43 16.5 76t42 55.5t59.5 34t71 11.5q61 0 109.5 -43t48.5 -105q0 -61 -40 -104t-100 -43l-57 39v32h57q31 0 48.5 22.5t17.5 53.5t-19.5 53.5t-54.5 22.5 q-31 0 -53.5 -28.5t-22.5 -76.5q0 -23 2 -43t3 -43.5t3.5 -54.5t2.5 -76q0 -25 -1 -59.5t-3.5 -69.5t-3.5 -67.5t-1 -53.5q33 53 76 97.5t84 79.5q47 39 96 73q51 -33 99 -73q41 -35 83 -83t70 -104q0 16 -2 44t-3 59.5t-3 63.5t-2 56v711h123v-844q0 -70 1 -140.5t5 -100.5 q4 -20 -1 -24.5t-13 -4.5h-117v20q0 51 -37 106.5t-82 102.5q-53 55 -121 111q-70 -55 -125 -111q-47 -47 -85.5 -102t-38.5 -107v-20h-117q-8 0 -13.5 4.5t-1.5 24.5z" />
<glyph unicode="&#xe1e;" horiz-adv-x="1103" d="M72 686q0 61 44 104.5t122 43.5q72 0 112.5 -42t40.5 -120q0 -45 -11 -101.5t-11 -142.5q0 -51 -3.5 -98t-3.5 -88q33 106 76 201.5t84 166.5q47 84 96 158q51 -74 99 -160q41 -74 83 -170t70 -207q0 35 -5 78t-5 94v416h123v-549q0 -70 1 -140.5t5 -100.5 q4 -20 -1 -24.5t-13 -4.5h-117v20q0 25 -10 64t-26.5 85t-38 95t-44.5 98q-53 113 -121 244q-70 -131 -124 -244q-25 -49 -47.5 -98t-40 -95t-27.5 -85t-10 -64v-20h-117q-8 0 -13.5 4t-0.5 25q4 16 6 30.5t3 38t2 64.5t1 108v164q0 78 19.5 133.5t19.5 100.5 q0 47 -18.5 70.5t-49.5 23.5q-35 0 -55.5 -22.5t-20.5 -53.5t16.5 -53.5t47.5 -22.5h47v-32l-47 -39q-59 0 -98 43t-39 104z" />
<glyph unicode="&#xe1f;" horiz-adv-x="1103" d="M72 686q0 61 44 104.5t122 43.5q72 0 112.5 -42t40.5 -120q0 -45 -11 -101.5t-11 -142.5q0 -51 -3.5 -98t-3.5 -88q33 106 76 201.5t84 166.5q47 84 96 158q51 -74 99 -160q41 -74 83 -170t70 -207q0 35 -5 78t-5 94v711h123v-844q0 -70 1 -140.5t5 -100.5 q4 -20 -1 -24.5t-13 -4.5h-117v20q0 25 -10 64t-26.5 85t-38 95t-44.5 98q-53 113 -121 244q-70 -131 -124 -244q-25 -49 -47.5 -98t-40 -95t-27.5 -85t-10 -64v-20h-117q-8 0 -13.5 4t-0.5 25q4 16 6 30.5t3 38t2 64.5t1 108v164q0 78 19.5 133.5t19.5 100.5 q0 47 -18.5 70.5t-49.5 23.5q-35 0 -55.5 -22.5t-20.5 -53.5t16.5 -53.5t47.5 -22.5h47v-32l-47 -39q-59 0 -98 43t-39 104z" />
<glyph unicode="&#xe20;" horiz-adv-x="991" d="M61 135q0 61 37 102.5t95 41.5l47 -35v-33h-47q-31 0 -44.5 -22.5t-13.5 -53.5t18.5 -53.5t53.5 -22.5q31 0 51.5 23.5t20.5 71.5q0 23 -5.5 55.5t-10.5 68t-10 70.5t-5 62q0 39 5 72.5t38 66.5q-8 4 -25.5 16.5t-36 27.5t-33 31.5t-14.5 28.5q0 18 25.5 49t71 60t108 49 t135.5 20q70 0 134.5 -14t113.5 -51t79 -99.5t30 -156.5v-510h-123v510q0 80 -15.5 125t-45 68.5t-72.5 29.5t-101 6q-51 0 -91 -9t-68.5 -22.5t-44 -26.5t-15.5 -24q0 -6 7 -18t18.5 -23.5t21.5 -20.5t17 -9q16 0 34.5 13t36.5 13q6 0 15.5 -13t17.5 -29.5t11 -30t-5 -13.5 q-37 0 -59.5 -5t-32.5 -19.5t-13 -40t-3 -68.5q0 -35 2 -62l4 -56q2 -28 4 -57.5t2 -67.5q0 -78 -46 -120t-118 -42t-114 43t-42 104z" />
<glyph unicode="&#xe21;" horiz-adv-x="974" d="M102 686q0 61 49.5 104.5t110.5 43.5q72 0 116 -42t44 -120q0 -45 -12.5 -98.5t-10.5 -137.5v-69q117 0 198 -52.5t136 -148.5q-2 25 -3 60.5t-2 72.5t-1 73v60v387h123v-364v-138q0 -70 2 -128t4 -101t4 -59q4 -20 -1 -24.5t-13 -4.5h-121q-33 135 -115 204.5t-209 80.5 l2 -82q0 -41 -6 -78t-23.5 -65.5t-47 -46t-76.5 -17.5q-61 0 -96 41t-35 125q0 90 50 138t114 60q-2 27 -2 46v36q0 39 6 71t13 58.5t13 50t6 46.5q0 47 -18 70.5t-49 23.5q-35 0 -55.5 -22.5t-20.5 -53.5t14.5 -53.5t45.5 -22.5h45v-32l-50 -37q-59 0 -94 42t-35 103z M193 166q0 -45 17 -70.5t40 -25.5q18 0 27.5 10t12.5 27.5t2 41t-1 48.5q0 14 -2 31.5t-4 52.5q-35 -10 -63.5 -32t-28.5 -83z" />
<glyph unicode="&#xe22;" horiz-adv-x="919" d="M102 635q0 37 13.5 72.5t38 63.5t60.5 45.5t83 17.5q61 0 106.5 -39t45.5 -101q0 -59 -38 -96t-100 -37l-59 35v37h59q33 0 47.5 18.5t14.5 40.5q0 29 -15.5 47.5t-44.5 18.5q-53 0 -72.5 -35t-19.5 -88q0 -59 20.5 -95t55.5 -56.5t84 -26.5t104 -6q8 0 4 -15.5t-13 -34 t-20.5 -34t-15.5 -15.5q-8 0 -26.5 5t-39 10.5t-40 10.5t-33.5 5q-18 0 -35.5 -28.5t-17.5 -78.5v-38q0 -49 5 -64.5t23 -38.5q27 -29 77 -42t114 -13q63 0 113.5 13t76.5 42q16 18 22.5 43t6.5 56.5t-2 72.5t-2 96v416h123v-416q0 -63 1 -113t-2 -90t-12.5 -72t-31.5 -56 q-25 -27 -64 -44.5t-80 -25.5t-80.5 -11t-68.5 -3q-27 0 -68 3t-82 11t-79.5 25.5t-63.5 44.5q-29 33 -37 68.5t-8 99.5v39q0 72 26.5 104.5t49.5 48.5q-14 8 -32.5 24.5t-34 41t-26 58.5t-10.5 79z" />
<glyph unicode="&#xe23;" horiz-adv-x="757" d="M61 627q0 84 50.5 138t130.5 54q14 0 39.5 -3t56.5 -8t63.5 -8t61.5 -3q37 0 70.5 6t62.5 14q33 8 59 21q6 -12 13 -29q10 -31 10 -76q0 -12 -19 -20q-37 -14 -77.5 -17.5t-100.5 -3.5q-25 0 -53.5 4t-58 9.5t-57 9.5t-50.5 4q-45 0 -63.5 -21.5t-18.5 -68.5 q0 -45 25 -56q16 -8 55 -9t88 -5t101.5 -14t96.5 -34t71.5 -64.5t27.5 -108.5v-154q0 -82 -51 -139t-137 -57q-84 0 -121 42t-37 101t35 94t106 35l56 -29v-32h-56q-63 0 -63 -68q0 -61 69 -61q43 0 59.5 36.5t16.5 83.5v138q0 47 -25.5 72.5t-66.5 39t-90 18.5t-94 8t-83 8 t-54 20q-27 23 -37.5 57.5t-10.5 75.5z" />
<glyph unicode="&#xe24;" horiz-adv-x="921" d="M92 653q0 18 31 49t81 60t117.5 49t141.5 20q70 0 132 -14t110.5 -51t76 -99.5t27.5 -156.5v-817h-123v817q0 80 -13.5 125t-41 68.5t-69.5 29.5t-99 6q-51 0 -96 -9t-79 -22.5t-54.5 -26.5t-20.5 -24q0 -6 6 -16t14.5 -21.5t17.5 -18.5t15 -7q16 0 34.5 13.5t37.5 13.5 q6 0 17.5 -13.5t21.5 -30t14 -29.5t-4 -13q-31 0 -54.5 -5.5t-40 -23t-25.5 -51t-9 -90.5v-207q0 -47 18.5 -73t49.5 -26q35 0 53 22.5t18 53.5t-17.5 52.5t-47.5 21.5h-58v33l58 39q59 0 99 -42t40 -104q0 -61 -42 -104t-103 -43q-35 0 -69 12t-61.5 36.5t-44 61.5 t-16.5 86v181q0 78 15.5 113.5t50.5 70.5q-8 4 -25.5 16.5t-36 27.5t-33 31.5t-14.5 28.5z" />
<glyph unicode="&#xe25;" horiz-adv-x="933" d="M102 666q20 27 64.5 55.5t98.5 53t113.5 39.5t108.5 15q66 0 123.5 -14t100.5 -45t68.5 -81t25.5 -122q0 -66 -9.5 -123t-9.5 -120q0 -23 4.5 -66t9.5 -89t11 -85t8 -55q4 -20 -1 -24.5t-13 -4.5h-121q0 115 -23.5 193.5t-61.5 130t-86 74t-97 22.5q-154 0 -154 -184 q0 -29 1 -59t9.5 -54.5t25.5 -39.5t48 -15q29 0 47.5 15t18.5 42q0 25 -15.5 44t-46.5 19h-61v37l61 35q59 0 97 -37t38 -98q0 -59 -36.5 -98t-106.5 -39q-195 0 -195 254q0 70 21.5 121t58.5 83.5t84 49t99 16.5q68 0 143.5 -34t130.5 -128q0 25 -1 75t-1 122 q0 68 -21.5 104.5t-51 54t-60.5 21.5t-51 4q-92 0 -163 -44t-122 -105q-6 -6 -19.5 -2t-31 16t-34 31t-26.5 39z" />
<glyph unicode="&#xe26;" horiz-adv-x="991" d="M61 135q0 61 37 102.5t95 41.5l47 -35v-33h-47q-31 0 -44.5 -22.5t-13.5 -53.5t18.5 -53.5t53.5 -22.5q31 0 51.5 23.5t20.5 71.5q0 23 -5.5 55.5t-10.5 68t-10 70.5t-5 62q0 39 5 72.5t38 66.5q-8 4 -25.5 16.5t-36 27.5t-33 31.5t-14.5 28.5q0 18 25.5 49t71 60t108 49 t135.5 20q70 0 134.5 -14t113.5 -51t79 -99.5t30 -156.5v-817h-123v817q0 80 -15.5 125t-45 68.5t-72.5 29.5t-101 6q-51 0 -91 -9t-68.5 -22.5t-44 -26.5t-15.5 -24q0 -6 7 -18t18.5 -23.5t21.5 -20.5t17 -9q16 0 34.5 13t36.5 13q6 0 15.5 -13t17.5 -29.5t11 -30t-5 -13.5 q-37 0 -59.5 -5t-32.5 -19.5t-13 -40t-3 -68.5q0 -35 2 -62l4 -56q2 -28 4 -57.5t2 -67.5q0 -78 -46 -120t-118 -42t-114 43t-42 104z" />
<glyph unicode="&#xe27;" horiz-adv-x="802" d="M41 666q18 27 61 55.5t94.5 53t104.5 39.5t92 15q57 0 110.5 -14t95.5 -45t66.5 -81t24.5 -122v-48q0 -15 -1 -44t-1 -89v-183q0 -117 -57.5 -167t-149.5 -50q-70 0 -113.5 43t-43.5 104t39.5 104.5t99.5 43.5l55 -39v-33h-55q-31 0 -48.5 -22.5t-17.5 -53.5t19.5 -53.5 t54.5 -22.5q31 0 53.5 26t22.5 79v385q0 68 -17.5 105.5t-41 56t-47 23.5t-35.5 5q-72 0 -142.5 -36.5t-124.5 -98.5q-4 -6 -16 -2t-27.5 14.5t-30 25t-24.5 26.5z" />
<glyph unicode="&#xe28;" horiz-adv-x="911" d="M102 496q0 80 28 142t75 105t110.5 65.5t135.5 22.5q66 0 105.5 -6t76.5 -22q29 14 66.5 40.5t70.5 55.5q20 -6 41 -14q16 -6 33.5 -13.5t25.5 -15.5q6 -6 7 -12q0 -8 -7 -15q-25 -25 -63.5 -49t-73.5 -35q37 -43 51.5 -107.5t14.5 -154.5v-483h-123v463q0 80 -4 133 t-25.5 85t-66.5 45t-129 13q-109 0 -167.5 -54t-58.5 -189q0 -82 21 -142q16 47 36.5 88t48 73t64.5 50.5t86 18.5q68 0 106 -42t38 -108q0 -27 -10.5 -54.5t-29 -49t-44 -35.5t-58.5 -14q-55 0 -94 38l-8 64l20 25l39 -37q16 -18 41 -19q31 0 45.5 21.5t14.5 52.5 q0 29 -15.5 48.5t-50.5 19.5q-39 0 -73.5 -39t-62.5 -106.5t-45.5 -158t-19.5 -190.5h-120q-8 0 -11.5 4t-3.5 25q0 18 3 43.5t9.5 53.5t13.5 53.5t13 43.5q12 33 0 47q-31 39 -53.5 92.5t-22.5 133.5z" />
<glyph unicode="&#xe29;" horiz-adv-x="1042" d="M100 686q0 61 49.5 104.5t110.5 43.5q72 0 116 -42t44 -120q0 -25 -3 -47.5t-7 -49t-8.5 -58.5t-4.5 -77l-2 -180q0 -49 5.5 -76.5t21.5 -48.5q27 -29 61.5 -42t98.5 -13q63 0 118.5 13t81.5 42q16 20 23.5 40t7.5 61v104q-20 -41 -68.5 -61.5t-89.5 -20.5q-98 0 -140 44 t-42 110q0 61 40 93t85 32q47 0 75.5 -28t28.5 -87l-32 -45h-33v45q0 29 -11.5 38t-27.5 9q-27 0 -36 -9t-9 -38q0 -47 21.5 -62.5t74.5 -15.5q78 0 118 43t40 96v336h123v-549q0 -78 -8.5 -122t-36.5 -76q-25 -27 -65 -44.5t-84 -25.5t-85 -11t-69 -3q-27 0 -63 3t-71.5 11 t-69.5 25.5t-59 44.5q-27 31 -33.5 82t-6.5 116v185q0 39 6 67.5t13 51t13 45t6 49.5q0 47 -18 70.5t-49 23.5q-35 0 -55.5 -22.5t-20.5 -53.5t16.5 -53.5t47.5 -22.5h47v-32l-47 -39q-59 0 -98.5 43t-39.5 104z" />
<glyph unicode="&#xe2a;" horiz-adv-x="907" d="M102 666q20 27 64.5 55.5t98.5 53t113.5 39.5t108.5 15q47 0 82 -8t76 -22q33 14 66.5 41.5t68.5 58.5q20 -6 41 -14q16 -6 33.5 -13.5t26.5 -15.5q6 -6 6 -12q0 -8 -6 -15q-25 -25 -64 -49t-74 -35q61 -61 62 -178q0 -66 -9.5 -123t-9.5 -120q0 -23 4.5 -66t9.5 -89 t11 -85t8 -55q4 -20 -1 -24.5t-13 -4.5h-121q0 115 -23.5 193.5t-61.5 130t-86 74t-97 22.5q-154 0 -154 -184q0 -29 1 -59t9.5 -54.5t25.5 -39.5t48 -15q29 0 47.5 15t18.5 42q0 25 -15.5 44t-46.5 19h-61v37l61 35q59 0 97 -37t38 -98q0 -59 -36.5 -98t-106.5 -39 q-195 0 -195 254q0 70 21.5 121t58.5 83.5t84 49t99 16.5q68 0 143.5 -34t130.5 -128q0 25 -1 75t-1 122q0 68 -21.5 104.5t-51 54t-60.5 21.5t-51 4q-92 0 -163 -44t-122 -105q-6 -6 -19.5 -2t-31 16t-34 31t-26.5 39z" />
<glyph unicode="&#xe2b;" horiz-adv-x="1005" d="M72 686q0 61 49 104.5t110 43.5q72 0 116 -42t44 -120q0 -23 -3 -44.5t-7 -47t-7 -57t-5 -74.5l-7 -226q29 61 68 110.5t82 87.5t88 64.5t86 44.5q-12 10 -27.5 23.5t-29 31t-23.5 41t-10 54.5q0 66 50 108.5t120 42.5q61 0 114.5 -39.5t53.5 -117.5q0 -53 -24.5 -86 t-61.5 -60q16 -10 30.5 -26.5t14.5 -34.5v-467h-123v444q0 10 -8 19.5t-25 3.5q-78 -33 -144.5 -84t-115.5 -110.5t-76.5 -124t-27.5 -123.5v-25h-111q-8 0 -13 4t-1 25q4 16 5 59t1 101.5t-1 128t-1 137.5q0 39 6 68.5t12 54t12.5 46t6.5 44.5q0 47 -18.5 70.5t-49.5 23.5 q-35 0 -55.5 -22.5t-20.5 -53.5t16.5 -53.5t47.5 -22.5h47v-32l-47 -39q-59 0 -98 43t-39 104zM670 680q0 -23 15 -54.5t54 -58.5q35 23 57.5 47.5t22.5 55.5q0 35 -16.5 61.5t-57.5 26.5q-35 0 -55 -23.5t-20 -54.5z" />
<glyph unicode="&#xe2c;" horiz-adv-x="1089" d="M72 686q0 61 49 104.5t110 43.5q72 0 116 -42t44 -120q0 -23 -3 -44.5t-8 -47t-8 -57t-3 -74.5q0 -25 -1 -58l-2 -65q-1 -33 -2.5 -64t-1.5 -51q33 68 76 131.5t84 112.5q47 57 96 108q51 -51 99 -110q41 -51 83 -116t70 -136q-4 43 -6 97t-2 105q0 41 5 76t7 62 q-37 -6 -67.5 7t-53 39.5t-34.5 62.5t-12 73q0 41 14 69.5t36.5 46t49.5 25.5t49 8q63 0 103 -40.5t36 -112.5l-12 -88q29 14 61.5 55t45.5 88q18 -10 32 -20q12 -10 25.5 -19.5t19.5 -19.5q8 -10 -6 -29q-27 -35 -79 -73t-99 -56q0 -18 -2 -59q-2 -35 -3 -97.5t-1 -164.5 q0 -70 4 -123.5t8 -83.5q4 -20 -1 -24.5t-13 -4.5h-117v20q0 51 -37 125t-82 144q-53 82 -121 170q-70 -88 -124 -170q-47 -70 -86 -143.5t-39 -125.5v-20h-117q-8 0 -13.5 4t-0.5 25q4 16 6 30.5t3 38t2 64.5t1 108v185q0 39 6 68.5t13 54t13.5 46t6.5 44.5 q0 47 -18.5 70.5t-49.5 23.5q-35 0 -55.5 -22.5t-20.5 -53.5t16.5 -53.5t47.5 -22.5h47v-32l-47 -39q-59 0 -98 43t-39 104zM776 721q0 -47 25.5 -82t77.5 -23q2 16 3 53.5t1 51.5q0 51 -12.5 65.5t-34.5 14.5q-23 0 -41.5 -17.5t-18.5 -62.5z" />
<glyph unicode="&#xe2d;" horiz-adv-x="915" d="M90 666q20 27 56 55.5t83 53t102.5 39.5t112.5 15q92 0 160 -21.5t112 -70.5t65.5 -131t21.5 -205q0 -203 -78 -308t-260 -105q-184 0 -261 74.5t-77 236.5q0 104 63.5 163.5t151.5 59.5q59 0 96 -38t37 -99t-38 -97t-99 -36l-59 35v37h59q33 0 48 19t15 42 q0 29 -16 46.5t-43 17.5q-31 0 -49.5 -12.5t-27.5 -33t-12 -48t-3 -56.5q0 -68 6 -110t27.5 -66.5t64.5 -33.5t117 -9t117 17.5t64.5 56.5t27.5 99t6 148q0 111 -9 177.5t-35 101.5t-72 46t-120 11q-86 0 -154.5 -36.5t-119.5 -98.5q-10 -12 -33.5 12.5t-46.5 51.5z" />
<glyph unicode="&#xe2e;" horiz-adv-x="915" d="M111 676q0 68 71.5 110.5t241.5 42.5q90 0 166 -25.5t117 -64.5q47 47 81 109q16 -8 31 -17q12 -8 25.5 -15t21.5 -15q6 -6 6 -13q0 -8 -6 -14q-49 -66 -116 -110q25 -49 39 -109.5t14 -153.5q0 -203 -78 -308t-260 -105q-184 0 -261 67.5t-77 212.5q0 104 57.5 164 t157.5 60q59 0 96 -38t37 -100q0 -61 -38 -97t-99 -36l-59 35v37h59q33 0 48 19.5t15 41.5q0 29 -16 46.5t-43 17.5q-31 0 -50.5 -12.5t-29.5 -33t-13 -48t-3 -56.5q0 -51 9 -87t33.5 -58.5t66.5 -32.5t110 -10q74 0 117 17.5t64.5 56.5t27.5 99t6 148q0 78 -3 123t-20 86 q-66 -41 -133 -56t-143 -15q-80 0 -132 9t-83 27.5t-43 44t-12 56.5zM231 676q0 -18 17.5 -27.5t44 -14.5t55.5 -6t53 -1q68 0 127.5 16t100.5 43q-33 29 -83 40t-122 11q-61 0 -99 -4t-58.5 -11t-28 -18.5t-7.5 -27.5z" />
<glyph unicode="&#xe2f;" horiz-adv-x="645" d="M33 705q0 61 41 91.5t86 30.5q47 0 77.5 -29.5t30.5 -88.5l-32 -60h-33v60q0 29 -13.5 40t-29.5 11q-49 0 -49 -55q0 -51 27.5 -69t68.5 -18q23 0 60.5 9.5t72.5 32t60.5 61.5t25.5 98h109q25 0 20.5 -13t-4.5 -46v-760h-127v649q-29 -47 -80 -79.5t-133 -32.5 q-76 0 -127 48t-51 120z" />
<glyph unicode="&#xe30;" horiz-adv-x="622" d="M41 182q0 39 11 64.5t29.5 41t41 21.5t45.5 6q47 0 83 -31.5t36 -90.5l-33 -50h-33v50q0 29 -13 40t-30 11q-49 0 -49 -51q0 -43 25.5 -60.5t78.5 -17.5q92 0 145.5 36.5t96.5 131.5l100 -41q-16 -37 -43.5 -75t-68.5 -67.5t-94.5 -48t-118.5 -18.5q-98 0 -153.5 41.5 t-55.5 107.5zM41 653q0 39 11 64.5t29.5 41t41 21.5t45.5 6q47 0 83 -31.5t36 -90.5l-33 -50h-33v50q0 29 -13 40t-30 11q-49 0 -49 -51q0 -43 25.5 -60.5t78.5 -17.5q92 0 145.5 36.5t96.5 131.5l100 -41q-16 -37 -43.5 -75t-68.5 -67.5t-94.5 -48t-118.5 -18.5 q-98 0 -153.5 41.5t-55.5 107.5z" />
<glyph unicode="&#xe31;" d="M-508 1092q0 61 39 96t84 35q49 0 85 -31t36 -90l-33 -60h-33v54q0 29 -13 41t-30 12q-49 0 -49 -53q0 -35 32 -57.5t91 -22.5q41 0 86 7t86 26.5t75 54.5t54 88l113 -18q-41 -115 -149.5 -176.5t-244.5 -61.5q-109 0 -169 42t-60 114z" />
<glyph unicode="&#xe32;" horiz-adv-x="745" d="M31 668q18 27 56 55.5t84 53t94 39.5t87 15q57 0 107.5 -14t88.5 -45t59.5 -81t21.5 -122q0 -66 -4 -124t-4 -121v-66q0 -43 2 -89t4 -85t4 -55q4 -20 -1 -24.5t-14 -4.5h-120v313q0 66 5 115t5 121q0 68 -20.5 105.5t-48 56t-54.5 23.5t-39 5q-72 0 -127 -36.5 t-108 -98.5q-10 -12 -34 12.5t-44 51.5z" />
<glyph unicode="&#xe33;" horiz-adv-x="714" d="M-297 1094q0 57 40 97t97 40t97 -40t40 -97t-39.5 -97.5t-97.5 -40.5q-57 0 -97 40.5t-40 97.5zM-215 1094q0 -23 16.5 -39.5t38.5 -16.5q23 0 39.5 16.5t16.5 39.5t-16.5 39t-39.5 16t-39 -16t-16 -39zM0 668q18 27 53 55.5t77 53t87 39.5t84 15q57 0 110.5 -14 t95.5 -45t66.5 -81t24.5 -122q0 -66 -4 -124t-4 -121v-66q0 -43 2 -89t4 -85t4 -55q4 -20 -1 -24.5t-13 -4.5h-121v313q0 66 5 115t5 121q0 68 -20.5 105.5t-48 56t-54 23.5t-39.5 5q-37 0 -64.5 -9t-52 -27.5t-48 -43t-50.5 -55.5q-4 -6 -16 -2t-27.5 14.5t-30 25 t-24.5 26.5z" />
<glyph unicode="&#xe34;" d="M-784 948q2 37 15 81t46 81t88 61.5t141 24.5q94 0 168 -25.5t125 -66.5t78 -91t27 -100q0 -18 -21 -18q-18 0 -82.5 8t-154.5 16.5t-196.5 12.5t-207.5 -6q-12 -2 -19 2t-7 20zM-684 1008q117 10 248 -1.5t241 -25.5q-12 59 -97 94t-208 35q-55 0 -91 -10t-56.5 -25.5 t-28.5 -34t-8 -32.5z" />
<glyph unicode="&#xe35;" d="M-784 948q2 37 15 81t46 81t88 61.5t141 24.5q96 0 173 -27.5t108 -56.5q-4 12 -6 25q-2 10 -3 24.5t-1 30.5v61h108v-237q6 -18 12.5 -49t6.5 -54q0 -18 -21 -18q-18 0 -82.5 8t-154.5 16.5t-196.5 12.5t-207.5 -6q-12 -2 -19 2t-7 20zM-684 1008q117 10 248 -1.5 t241 -25.5q-20 53 -101 91t-204 38q-55 0 -91 -10t-56.5 -25.5t-28.5 -34t-8 -32.5z" />
<glyph unicode="&#xe36;" d="M-784 948q2 37 15 81t46 81t88 61.5t141 24.5q45 0 85 -6t71 -16q37 -10 66 -23q-12 51 23.5 93t88.5 42q49 0 82 -32.5t33 -86.5q0 -43 -28.5 -74.5t-63.5 -37.5q23 -31 32 -70t9 -72q0 -18 -21 -18q-18 0 -82.5 8t-154.5 16.5t-196.5 12.5t-207.5 -6q-12 -2 -19 2 t-7 20zM-684 1008q117 10 248 -1.5t241 -25.5q-12 59 -97 94t-208 35q-55 0 -91 -10t-56.5 -25.5t-28.5 -34t-8 -32.5zM-215 1167q0 -25 14.5 -43t40.5 -18q27 0 42.5 18.5t15.5 42.5q0 25 -15.5 43.5t-42.5 18.5t-41 -18.5t-14 -43.5z" />
<glyph unicode="&#xe37;" d="M-784 948q2 37 15 81t46 81t88 61.5t141 24.5q20 0 51 -4t50 -12v73h98v-98q51 -20 82 -55q-4 8 -6 18t-3 24.5t-1 33.5v77h108v-237q6 -18 12.5 -49t6.5 -54q0 -18 -21 -18q-18 0 -82.5 8t-154.5 16.5t-196.5 12.5t-207.5 -6q-12 -2 -19 2t-7 20zM-684 1008 q117 10 248 -1.5t241 -25.5q-6 23 -31.5 45.5t-65.5 40.5t-93 30.5t-115 12.5q-55 0 -91 -10t-56.5 -25.5t-28.5 -34t-8 -32.5z" />
<glyph unicode="&#xe38;" d="M-365 -188q0 47 34 75.5t93 28.5q61 0 92 -30.5t31 -78.5q0 -18 -1 -31.5t-3 -24.5t-3 -24.5t-1 -33.5v-103h-129v105q0 20 5 33.5t12.5 26t12.5 23.5t5 27q0 25 -12.5 41.5t-34.5 16.5q-23 0 -35 -14.5t-12 -36.5q0 -20 11 -31.5t21 -16.5l23 -10l-10 -22l-39 -2 q-27 6 -43.5 27.5t-16.5 54.5z" />
<glyph unicode="&#xe39;" d="M-569 -176q0 47 38.5 74.5t84.5 27.5q53 -2 79.5 -35.5t26.5 -70.5q0 -16 -5 -30.5t-11 -30t-11.5 -36t-5.5 -51.5q0 -18 24.5 -24t41.5 -6q16 0 40.5 6t24.5 24v256h129v-258q0 -23 -20.5 -38t-50 -24t-61 -13.5t-54.5 -4.5q-25 0 -55.5 4.5t-59 13.5t-48 24.5 t-19.5 37.5v31q0 20 9 32.5t20.5 24t20.5 24.5t9 36q0 20 -10 37.5t-33 17.5q-51 0 -51 -51q0 -18 18 -37l23 -21l-17 -20l-43 8q-34 31 -34 72z" />
<glyph unicode="&#xe3a;" d="M-242 -164q0 35 26 58.5t60 23.5q35 0 60.5 -23.5t25.5 -58.5t-25.5 -58.5t-60.5 -23.5t-60.5 23.5t-25.5 58.5z" />
<glyph unicode="&#xe3f;" horiz-adv-x="874" d="M123 0v995h274v197h74v-197h6q78 0 131.5 -20.5t86 -54t47 -76.5t14.5 -90q0 -82 -34 -126t-87 -63q47 -8 80 -33.5t55.5 -59.5t32.5 -74t10 -81q0 -68 -18.5 -126t-58.5 -100t-104.5 -66.5t-158.5 -24.5h-2v-184h-74v184h-274zM266 106h131v404h-131v-404zM270 612h127 v271h-127v-271zM471 106q102 4 150.5 49.5t48.5 161.5q0 47 -8.5 82t-31 57.5t-61.5 36t-98 15.5v-402zM471 612q86 6 113.5 41t27.5 101q0 59 -30.5 94t-104.5 35h-6v-271z" />
<glyph unicode="&#xe40;" horiz-adv-x="436" d="M115 791q-4 20 1 24t13 4h121q2 -61 4 -119q2 -49 3 -99t1 -85q0 -33 -2 -91t-6 -114q-4 -66 -8 -137q0 -59 24.5 -76.5t52.5 -17.5q27 0 46.5 18.5t19.5 46.5q0 29 -15.5 47.5t-43.5 18.5h-60v37l60 45q61 0 101 -43t40 -105q0 -31 -14.5 -57.5t-39 -47t-54 -31.5 t-60.5 -11t-62.5 10t-58 31.5t-43 54.5t-16.5 80q4 72 8 135q4 53 5 109.5t1 87.5q0 23 -2 64.5t-4 84.5t-5 81.5t-7 54.5z" />
<glyph unicode="&#xe41;" horiz-adv-x="845" d="M115 791q-4 20 1 24t13 4h121q2 -61 4 -119q2 -49 3 -99t1 -85q0 -33 -2 -91t-6 -114q-4 -66 -8 -137q0 -59 24.5 -76.5t52.5 -17.5q27 0 46.5 18.5t19.5 46.5q0 29 -15.5 47.5t-43.5 18.5h-60v37l60 45q61 0 101 -43t40 -105q0 -31 -14.5 -57.5t-39 -47t-54 -31.5 t-60.5 -11t-62.5 10t-58 31.5t-43 54.5t-16.5 80q4 72 8 135q4 53 5 109.5t1 87.5q0 23 -2 64.5t-4 84.5t-5 81.5t-7 54.5zM565 791q-4 20 1 24t14 4h120q2 -61 5 -119q2 -49 3 -99t1 -85q0 -33 -2 -91t-7 -114q-4 -66 -8 -137q0 -59 24.5 -76.5t53.5 -17.5q27 0 46.5 18.5 t19.5 46.5q0 29 -15.5 47.5t-44.5 18.5h-59v37l59 45q61 0 101.5 -43t40.5 -105q0 -31 -14.5 -57.5t-39 -47t-54.5 -31.5t-60 -11q-31 0 -63 10t-58.5 31.5t-43 54.5t-16.5 80q4 72 9 135q4 53 5 109.5t1 87.5q0 23 -2 64.5t-4.5 84.5t-5.5 81.5t-7 54.5z" />
<glyph unicode="&#xe42;" horiz-adv-x="436" d="M-43 1208q0 84 51 128t117 44q29 0 80 -7t108 -7q37 0 65 5t44 11q20 8 33 17q4 -20 10 -39q10 -35 10 -57q0 -12 -18 -21q-23 -6 -53.5 -12t-90.5 -6q-63 0 -101 10t-62 10q-45 0 -60.5 -13.5t-15.5 -60.5q0 -23 7 -28.5t23 -7.5q29 -2 56.5 -9.5t49 -29t34 -64.5 t12.5 -119q2 -70 2 -133v-201q0 -41 -2 -115.5t-6 -148.5q-4 -86 -8 -180q0 -59 24.5 -76.5t52.5 -17.5q27 0 46.5 18.5t19.5 46.5q0 29 -15.5 47.5t-43.5 18.5h-60v37l60 45q61 0 101 -43t40 -105q0 -61 -43 -104t-105 -43q-31 0 -65.5 10t-65 31.5t-50 54.5t-19.5 80 q4 76 8 154q4 66 5 141.5t1 138.5v344q0 53 -7 78t-22.5 36t-38 15t-51.5 19q-29 14 -43 37.5t-14 70.5z" />
<glyph unicode="&#xe43;" horiz-adv-x="446" d="M-61 1194q0 82 64.5 136t160.5 54q113 0 176 -57t63 -143q0 -74 -21.5 -114t-47 -71.5t-47 -66.5t-21.5 -94q2 -39 2 -76v-144q0 -41 -2 -115.5t-6 -148.5q-4 -86 -8 -180q0 -59 24.5 -76.5t53.5 -17.5q27 0 46 18.5t19 46.5q0 29 -15 47.5t-44 18.5h-60v37l60 45 q61 0 101 -43t40 -105q0 -61 -43 -104t-104 -43q-31 0 -66 10t-65.5 31.5t-50 54.5t-19.5 80q4 76 8 154q4 66 5 141.5t1 138.5v230q0 74 21.5 110.5t48.5 64t48.5 62.5t21.5 103q0 59 -27 88.5t-121 29.5q-45 0 -84 -21.5t-39 -80.5q0 -27 14.5 -48.5t43.5 -21.5 q23 0 42 15.5t19 48.5v59h35l37 -59q0 -61 -36 -99t-97 -38t-96 42t-35 101z" />
<glyph unicode="&#xe44;" horiz-adv-x="436" d="M-94 1337q0 12 11 22.5t28.5 17.5t38 12.5t41.5 5.5q4 -53 10 -97.5t12 -76.5q8 -37 16 -68q33 45 58 86q23 35 39 71t16 58v21h109q8 0 13 -4.5t1 -24.5q-4 -31 -3 -76t1 -115q0 -76 -6 -127t-13.5 -104t-13.5 -126t-6 -194q0 -41 -2 -115.5t-6 -148.5q-4 -86 -8 -180 q0 -59 24.5 -76.5t52.5 -17.5q27 0 46.5 18.5t19.5 46.5q0 29 -15.5 47.5t-43.5 18.5h-60v37l60 45q61 0 101 -43t40 -105q0 -61 -45 -104t-123 -43t-129 51t-51 146l8 143q4 61 5 134t1 136q0 106 6 183t14.5 135.5t17.5 103.5t15 86q6 43 7 70q0 14 -3 24 q-16 -35 -43.5 -69.5t-54.5 -63.5q-31 -35 -61 -65q-20 29 -42 73.5t-40.5 93t-30.5 91t-12 67.5z" />
<glyph unicode="&#xe45;" horiz-adv-x="716" d="M31 668q18 27 56 55.5t84 53t94 39.5t87 15q57 0 107.5 -14t88.5 -45t59.5 -81t21.5 -122q0 -66 -1 -124t-1 -121q0 -14 1 -62.5t2 -112t2 -134t3 -132t4 -106.5t4 -56q4 -20 -1 -24t-13 -4h-121q0 150 -2 276q0 53 -1 107.5t-2 101.5t-1 83v52q0 66 2 115t2 121 q0 68 -17.5 105.5t-41 56t-47 23.5t-35.5 5q-72 0 -127.5 -36.5t-108.5 -98.5q-4 -6 -16.5 -2t-27.5 14.5t-29.5 25t-24.5 26.5z" />
<glyph unicode="&#xe46;" horiz-adv-x="622" d="M41 645q0 43 16.5 76t41 55.5t53 33.5t53.5 11l102 -94l86 92h25q33 0 61.5 -7t50 -27.5t35 -54.5t13.5 -89q0 -119 -1.5 -216t-3.5 -191.5t-3 -197t-1 -231.5v-54q0 -22 2 -30q4 -20 -1 -24t-13 -4h-121q4 127 8 276q4 129 5.5 295t1.5 352q0 43 -2.5 68t-6.5 37t-13 15 t-23 3l-99 -92l-104 84q-29 0 -54.5 -20.5t-25.5 -63.5q0 -47 22.5 -66.5t53.5 -19.5q12 0 24.5 8.5t22.5 18.5l30 43l27 -17l-8 -73q-18 -27 -49 -41.5t-58 -14.5q-76 0 -111.5 46t-35.5 114z" />
<glyph unicode="&#xe47;" d="M-682 1122q0 55 16.5 95t43 68t61.5 41t69 13q20 0 44 -2t46.5 -5t41 -6t28.5 -3q78 0 108.5 29.5t39.5 87.5q18 2 39.5 -5.5t38 -17.5t25.5 -21.5t5 -19.5q-23 -49 -45 -76.5t-50 -42t-62.5 -17.5t-81.5 -3q-23 0 -50 3l-53 6q-27 3 -49 6t-37 3q-33 0 -58.5 -40.5 t-25.5 -88.5q0 -45 16.5 -65.5t30.5 -32.5l95 98q29 -47 68.5 -81.5t90.5 -34.5q53 0 72.5 19.5t19.5 60.5q0 57 -47 57q-41 0 -41 -51q0 -10 5.5 -16.5t13.5 -14.5l22 -21l-16 -20l-43 8q-16 16 -26.5 30.5t-10.5 35.5q0 47 29.5 74.5t75.5 27.5q53 -2 81.5 -34.5 t28.5 -84.5q0 -68 -41 -104.5t-125 -36.5q-51 0 -96 21.5t-68 56.5l-65 -72h-53q-18 4 -38 19.5t-36.5 40t-26.5 54t-10 62.5z" />
<glyph unicode="&#xe48;" d="M-221 1491v119h115v-119l-19 -160h-78z" />
<glyph unicode="&#xe49;" d="M-399 1315q0 10 2 20t3 19.5t5 19.5q6 -2 12 -1t10 1q53 4 85 35t32 84q0 20 -10 37.5t-33 17.5q-41 0 -41 -49q0 -16 19 -35l22 -20l-16 -21l-43 9q-37 33 -37 69q0 47 30.5 74t75.5 27q53 -2 82 -36t29 -71q0 -33 -13.5 -58.5t-33 -44t-41 -28.5t-35.5 -14q12 2 25 6 q10 4 20 5t21 3q35 8 65.5 19.5t57 36t47 66.5t36.5 111h89q-20 -106 -57.5 -165.5t-83.5 -88t-96 -36t-99 -7.5q-33 0 -67.5 4.5t-61.5 10.5z" />
<glyph unicode="&#xe4a;" d="M-520 1421q0 43 12 74t32.5 50.5t44 28.5t48.5 9q27 0 45.5 -8t30.5 -19q14 -12 22 -28q8 14 21 26q10 10 24.5 18.5t36.5 8.5q55 0 74.5 -40t19.5 -83q0 -33 -6 -56.5t-14 -43.5q14 12 32.5 39.5t32 64.5t18.5 78t-3 76h86q16 0 18 -7t2 -18q0 -51 -20.5 -98t-51 -86 t-64.5 -65.5t-60 -38.5h-54q-10 0 -6 12q4 16 6.5 45t2.5 57q0 90 -33 90q-20 0 -35.5 -20.5t-28.5 -42.5q-10 25 -30.5 46t-55.5 21q-41 0 -59.5 -24.5t-18.5 -87.5q0 -20 8.5 -43t36.5 -23q39 0 39 45q0 18 -18 37l-23 21l17 20l43 -8q37 -33 37 -70q0 -47 -25.5 -72.5 t-71.5 -25.5q-53 2 -82.5 35.5t-29.5 105.5z" />
<glyph unicode="&#xe4b;" d="M-334 1434v77h113v107h112v-107h113v-77h-117l-12 -115h-78l-12 115h-119z" />
<glyph unicode="&#xe4c;" d="M-358 1376q0 47 26.5 77t59.5 46q59 31 81.5 58.5t22.5 80.5h88q6 0 10 -3t0 -19q-6 -35 -16 -58.5t-28.5 -41t-45 -34t-65.5 -34.5q-51 -27 -51 -72q0 -25 14 -40t37 -15t38 13.5t15 37.5q0 10 -3 25.5t-30 38.5l21 16l43 -6q16 -16 22 -33.5t6 -40.5q0 -51 -29.5 -85 t-88.5 -34q-57 0 -92 35t-35 88z" />
<glyph unicode="&#xe4d;" d="M-297 1094q0 57 40 97t97 40t97 -40t40 -97t-39.5 -97.5t-97.5 -40.5q-57 0 -97 40.5t-40 97.5zM-215 1094q0 -23 16.5 -39.5t38.5 -16.5q23 0 39.5 16.5t16.5 39.5t-16.5 39t-39.5 16t-39 -16t-16 -39z" />
<glyph unicode="&#xe4e;" d="M-436 1034q0 35 14 59.5t33.5 41t41 26.5t38.5 15q-23 0 -45.5 18t-22.5 45q0 37 26.5 63.5t68.5 42t91.5 20.5t94.5 -3q10 -2 17 -4t7 -17q0 -16 -10 -43q-6 -14 -10 -28q-27 12 -60.5 16t-64.5 0t-51.5 -15t-20.5 -34q0 -12 11.5 -18.5t26.5 -9.5t32.5 -2t30.5 3 q2 -14 2 -26q0 -10 -3.5 -23.5t-13.5 -23.5q-6 2 -20 2h-19q-35 0 -71.5 -24.5t-36.5 -78.5q0 -20 12 -37.5t35 -17.5q18 0 31.5 12.5t13.5 36.5q0 16 -18 35l-23 20l16 21l43 -8q37 -33 37 -70q0 -47 -32.5 -73.5t-77.5 -26.5q-61 0 -92 34.5t-31 71.5z" />
<glyph unicode="&#xe4f;" horiz-adv-x="985" d="M74 432q0 92 34.5 168t92 131t134.5 85t159 30t156.5 -30t133 -85t93 -131t34.5 -168q0 -90 -34.5 -166t-93 -130t-133.5 -83.5t-156 -29.5q-82 0 -159 29.5t-134.5 83.5t-92 130t-34.5 166zM170 432q0 -68 25.5 -127t68.5 -102t102.5 -68.5t127.5 -25.5q66 0 124 25.5 t101 68.5t68.5 102.5t25.5 126.5q0 68 -25.5 127t-68.5 104.5t-101.5 71t-123.5 25.5q-68 0 -127.5 -25.5t-102.5 -71t-68.5 -104.5t-25.5 -127zM297 438q0 41 15.5 77t43 62.5t63.5 42t77 15.5t76.5 -15.5t63.5 -42t43 -62.5t15 -77q0 -43 -15 -78.5t-43 -62.5t-63.5 -42 t-76.5 -15t-77 15t-63.5 42t-43 62.5t-15.5 78.5zM391 438q0 -45 31 -75.5t74 -30.5t73.5 30.5t30.5 75.5q0 41 -30.5 72t-73.5 31t-74 -31t-31 -72z" />
<glyph unicode="&#xe50;" horiz-adv-x="864" d="M72 328q0 166 100 255t260 89t260.5 -89t100.5 -255t-100.5 -255t-260.5 -89t-260 89t-100 255zM213 328q0 -80 16.5 -129t46 -77t69.5 -37t87 -9t88 9t69.5 37t45 77t16.5 129t-16.5 129t-45 76.5t-69.5 37t-88 9.5t-87 -9.5t-69.5 -37t-46 -76.5t-16.5 -129z" />
<glyph unicode="&#xe51;" horiz-adv-x="862" d="M72 336q0 82 29.5 143.5t78.5 103.5t113.5 63.5t134.5 21.5q74 0 139.5 -23.5t114.5 -70t79 -114t30 -153.5q0 -184 -106.5 -296.5t-278.5 -166.5q-59 -18 -95 109q70 14 133.5 37.5t112.5 65.5t78 102.5t29 148.5q0 123 -71 193.5t-173 70.5q-45 0 -86 -15t-73 -44 t-50 -70t-18 -92q0 -55 12 -93t33.5 -61.5t49 -32.5t56.5 -9q51 0 86 20.5t35 67.5q0 25 -17.5 42t-39.5 17q-23 0 -40.5 -13.5t-17.5 -41.5v-56h-33l-32 56q0 53 33.5 88t89.5 35q53 0 93 -36t40 -91q0 -33 -12.5 -65t-38 -56.5t-65.5 -39.5t-97 -15q-51 0 -97.5 20t-81 56 t-56 85.5t-21.5 108.5z" />
<glyph unicode="&#xe52;" horiz-adv-x="1007" d="M-31 788q12 14 36 26.5t48.5 20t46 7.5t31.5 -11q45 -47 67.5 -128.5t20.5 -202.5v-219q0 -49 6 -87t23 -59q12 -14 44 -24.5t69.5 -17.5t78.5 -10t72 -3t68.5 3t73.5 10t65 17.5t41 24.5q16 20 22 50t6 71v195q0 45 -22.5 74.5t-42.5 29.5l-107 -98l-112 86 q-68 -43 -80 -77t-12 -67q0 -29 2 -56.5t11 -49t27.5 -34.5t49.5 -13q29 0 47 18.5t18 44.5q0 25 -15 44.5t-46 19.5h-62v37l62 34q59 0 97 -36.5t38 -98.5q0 -59 -39 -98t-100 -39q-37 0 -72 11.5t-61.5 38t-43 68.5t-16.5 105q0 29 8.5 63t30 69.5t58 69.5t96.5 60 l114 -88l95 86h24q37 0 70 -17t57.5 -44t38.5 -60.5t14 -66.5v-197q0 -78 -8 -122t-37 -76q-25 -27 -73.5 -44.5t-102 -25.5t-103.5 -11t-79 -3q-27 0 -81 3t-111.5 11t-109.5 25.5t-77 44.5q-27 31 -34 82t-7 116v193q0 123 -32 197.5t-91 127.5z" />
<glyph unicode="&#xe53;" horiz-adv-x="884" d="M72 211v215q0 104 53 166.5t149 62.5q86 0 122 -55t53 -151q16 96 63 151t129 55q86 0 129 -58t43 -140v-457h-129v444q0 57 -15.5 87t-54.5 30q-45 0 -75.5 -72.5t-40.5 -189.5h-97q-16 135 -42.5 198.5t-88.5 63.5q-39 0 -57 -32.5t-18 -110.5v-203q0 -29 3 -56.5 t14 -49t30.5 -35t50.5 -13.5q29 0 47 18.5t18 45.5q0 25 -15 44t-46 19h-59v37l59 35q59 0 97 -37t38 -98q0 -59 -39 -98t-100 -39q-37 0 -76 11t-71.5 37.5t-53 69t-20.5 105.5z" />
<glyph unicode="&#xe54;" horiz-adv-x="860" d="M72 313q0 109 25.5 176.5t71.5 104.5t109.5 49t137.5 8q27 -2 48 -2h44q53 0 89 18.5t59.5 48t38 66.5t24.5 72q16 -6 38.5 -16.5t41 -21.5t31 -24.5t8.5 -25.5q-10 -37 -38 -76t-71 -70.5t-98.5 -51t-120.5 -19.5q-23 0 -34 1t-40 3q-63 4 -108 -1t-73 -28.5t-40 -70.5 t-12 -125q0 -92 16.5 -141.5t43 -72t61 -25.5t71.5 -3q18 0 40 1t42 5q-20 2 -47 12.5t-50.5 32t-39.5 56t-16 83.5q0 66 43 113t122 47q53 0 92.5 -39t39.5 -92q0 -51 -39 -90l-58 -6l-22 18l35 35q18 16 18 41q0 29 -19.5 47.5t-48.5 18.5q-27 0 -49 -20.5t-22 -67.5 t30.5 -80t72.5 -53.5t88 -29.5t77 -9q47 0 80 -2.5t67 -18.5l-38 -94q-45 14 -80 17t-68 3q-43 0 -113.5 -11t-152.5 -11q-57 0 -112.5 11t-98.5 45t-69.5 97.5t-26.5 167.5z" />
<glyph unicode="&#xe55;" horiz-adv-x="862" d="M72 313q0 94 19.5 160t55 107t86 58t111.5 13q-10 20 -10 54q0 66 44 102.5t93 36.5q53 0 94 -36t41 -91q0 -53 -31 -90q41 10 66 34.5t41 56.5t24.5 67.5t14.5 68.5q16 -4 38.5 -13.5t41 -21.5t31 -25.5t8.5 -25.5q-8 -37 -26.5 -77t-54.5 -74.5t-89.5 -57t-130.5 -22.5 q-55 0 -105 22q-10 -2 -22 -2h-25q-53 0 -88 -3t-56.5 -24.5t-30.5 -68.5t-9 -133q0 -92 16.5 -141.5t43 -72t61 -25.5t71.5 -3q18 0 40 1t42 5q-20 2 -47 12.5t-50.5 32t-39.5 56t-16 83.5q0 66 43 113t122 47q53 0 92.5 -39t39.5 -92q0 -51 -39 -90l-58 -6l-22 18l35 35 q18 16 18 41q0 29 -19.5 47.5t-48.5 18.5q-27 0 -49 -20.5t-22 -67.5t30.5 -80t72.5 -53.5t88 -29.5t77 -9q47 0 80 -2.5t67 -18.5l-38 -94q-45 14 -80 17t-68 3q-43 0 -113.5 -11t-152.5 -11q-57 0 -112.5 11t-98.5 45t-69.5 97.5t-26.5 167.5zM418 702q0 -41 28 -59 q37 2 55.5 19.5t18.5 44.5q0 33 -14 48t-35 15q-27 0 -40 -19.5t-13 -48.5z" />
<glyph unicode="&#xe56;" horiz-adv-x="845" d="M0 829q12 14 34.5 26.5t45 20t43 7.5t29.5 -13q41 -55 68.5 -131.5t29.5 -148.5q29 23 80 45t119 22q147 0 236 -87t89 -253q0 -82 -30.5 -143t-79 -102t-107.5 -61.5t-119 -20.5q-68 0 -117 16.5t-80.5 44t-46 61t-14.5 70.5q0 70 44 110t104 40q61 0 98 -39t37 -98 l-35 -62h-37v62q0 31 -19.5 46t-43.5 15q-27 0 -45.5 -18.5t-18.5 -47.5q0 -47 38 -74.5t130 -27.5q37 0 74 10.5t67.5 36t49 70.5t18.5 112q0 74 -12.5 120t-38 74t-63.5 38t-87 10q-18 0 -41.5 -3t-48 -12t-46 -23.5t-36.5 -37.5h-104q4 53 -10.5 104.5t-39 96.5t-55 81.5 t-59.5 63.5z" />
<glyph unicode="&#xe57;" horiz-adv-x="1067" d="M72 272v82q0 104 48 183t134 120l139 -149l105 147h30q39 0 75 -12t64.5 -35.5t46 -56.5t17.5 -74v-364q68 41 101.5 114.5t33.5 208.5q0 106 -40 199.5t-99 146.5q12 14 35.5 24.5t49.5 15.5t47.5 4t29.5 -13q41 -55 73.5 -147.5t32.5 -216.5q0 -88 -23.5 -160 t-62.5 -128.5t-90 -96t-106 -64.5h-103q-18 0 -13 10t5 33v408q0 111 -82 110l-127 -170l-145 154q-43 -27 -48 -71t-5 -128v-70q0 -104 18 -159.5t82 -55.5q29 0 47 18.5t18 45.5q0 25 -15 44t-46 19h-61v37l61 35q59 0 97 -37t38 -98q0 -59 -39 -98t-100 -39q-37 0 -77 12 t-71.5 44t-53 87t-21.5 141z" />
<glyph unicode="&#xe58;" horiz-adv-x="884" d="M72 313q0 109 28.5 176.5t74.5 104.5t103.5 49t116.5 8q12 0 34 -2t44.5 -3t43 -2t32.5 -1q53 0 89 19.5t59.5 50t38 68.5t24.5 73q16 -6 35.5 -14.5t35 -18.5t25.5 -21.5t6 -23.5q-8 -35 -33.5 -76t-65.5 -76.5t-93.5 -60t-118.5 -24.5q-12 0 -30.5 2t-40 4t-41 5 t-33.5 3q-49 4 -87 -2t-64 -29.5t-39 -69.5t-13 -124q0 -84 8 -132.5t25.5 -72t44 -29.5t61.5 -6q27 0 53 10q14 6 29 11q-23 23 -43.5 51t-26.5 63q-2 10 14.5 21.5t36 20.5t36 12.5t16.5 -5.5q0 -39 13 -73.5t35.5 -60t51.5 -40t57 -14.5q31 0 58.5 6t47 22.5t32 46 t12.5 77.5q0 47 -15.5 72.5t-41.5 25.5q-29 0 -46.5 -17.5t-17.5 -46.5q0 -25 19 -41l34 -34l-22 -19l-58 6q-37 37 -36 90q0 53 35.5 90t89.5 37q78 0 109.5 -54t31.5 -122q0 -111 -59.5 -171t-139.5 -60q-39 0 -69.5 8t-54 19.5t-39 19.5t-27.5 8q-6 0 -19.5 -8t-33 -19.5 t-48 -19.5t-69.5 -8q-92 0 -153.5 81.5t-61.5 239.5z" />
<glyph unicode="&#xe59;" horiz-adv-x="868" d="M72 305q0 111 20.5 179.5t56 105.5t83 50t100.5 13q51 0 94 -23.5t66 -51.5q18 35 47.5 57t68.5 22q84 0 119 -77q14 33 13 103.5t-31 143.5q18 8 40.5 12.5t42 4.5t33 -5t15.5 -18q10 -49 4 -109.5t-21.5 -113.5t-34 -90t-30.5 -37h-19q-12 0 -22 2q-12 2 -29 2 q-6 2 -5 4t1 15q0 29 -15.5 52t-54.5 23q-29 0 -47 -21.5t-30 -43.5q35 -55 71.5 -122t69.5 -136.5t59.5 -133t40.5 -112.5h-129q-20 72 -52 168t-73 184t-90 148.5t-102 60.5q-31 0 -55.5 -8t-42 -33.5t-26.5 -76t-9 -134.5q0 -45 6 -88t20.5 -75.5t37 -52t52.5 -19.5 q29 0 47.5 18.5t18.5 44.5q0 25 -15.5 44.5t-46.5 19.5h-61v37l61 34q59 0 97.5 -36.5t38.5 -98.5q0 -59 -41 -98t-103 -39q-119 0 -179 84t-60 221z" />
<glyph unicode="&#xe5b;" horiz-adv-x="1427" d="M158 375q0 154 63.5 237.5t177.5 83.5q92 0 145.5 -56t53.5 -155q0 -88 -35 -147q-43 -74 -125 -74q-45 0 -77.5 34t-32.5 79q0 47 31.5 79.5t78.5 32.5q53 0 88 -40v4q4 20 4 49q0 131 -124 131q-84 0 -129.5 -72t-45.5 -196q0 -113 56.5 -180.5t144.5 -67.5 q121 0 185.5 88t64.5 250q0 63 -6 96q115 -23 153 -217q18 59 19 115q0 39 -17 98q86 -25 150 -178q10 51 10 75q0 18 -10 76q88 -25 131 -172q20 27 21 72q0 25 -7 55q10 -2 88 -57q70 -51 146 -51h10q-41 -23 -84 -23q-68 0 -119 51q-12 -98 -57 -112q-18 0 -41 67 q-29 86 -43 101q0 -188 -55 -189q-12 0 -35 74q-25 82 -43 104q-12 -201 -78 -200q-12 0 -35 79q-29 102 -43 121q0 -391 -305 -391q-127 0 -200.5 88t-73.5 238zM381 377q0 -23 17.5 -40.5t39.5 -17.5q23 0 40.5 17.5t17.5 40.5t-17.5 40t-40.5 17t-40 -17t-17 -40z" />
<glyph unicode="&#x2000;" horiz-adv-x="819" />
<glyph unicode="&#x2001;" horiz-adv-x="1638" />
<glyph unicode="&#x2002;" horiz-adv-x="819" />
<glyph unicode="&#x2003;" horiz-adv-x="1638" />
<glyph unicode="&#x2004;" horiz-adv-x="544" />
<glyph unicode="&#x2005;" horiz-adv-x="409" />
<glyph unicode="&#x2006;" horiz-adv-x="272" />
<glyph unicode="&#x2007;" horiz-adv-x="272" />
<glyph unicode="&#x2008;" horiz-adv-x="204" />
<glyph unicode="&#x2009;" horiz-adv-x="327" />
<glyph unicode="&#x200a;" horiz-adv-x="90" />
<glyph unicode="&#x200c;" d="M-61 -520v1100h122v-1100h-122z" />
<glyph unicode="&#x200d;" d="M-162 408l96 49l-90 78l62 71l94 -90l94 90l62 -71l-90 -78l96 -49l-51 -80l-50 30v-878h-122v878l-52 -30z" />
<glyph unicode="&#x200e;" d="M-61 -520v1048h282l-47 58l74 49l106 -168l-106 -168l-74 51l47 58h-160v-928h-122z" />
<glyph unicode="&#x200f;" d="M-354 467l106 168l74 -49l-47 -58h282v-1048h-122v928h-160l47 -58l-74 -51z" />
<glyph unicode="&#x2010;" horiz-adv-x="681" d="M86 416v123h510v-123h-510z" />
<glyph unicode="&#x2011;" horiz-adv-x="681" d="M86 416v123h510v-123h-510z" />
<glyph unicode="&#x2012;" horiz-adv-x="681" d="M86 416v123h510v-123h-510z" />
<glyph unicode="&#x2013;" horiz-adv-x="778" d="M0 371v90h778v-90h-778z" />
<glyph unicode="&#x2014;" horiz-adv-x="1556" d="M0 371v90h1556v-90h-1556z" />
<glyph unicode="&#x2018;" horiz-adv-x="387" d="M94 745v162l96 234h105l-102 -234h75v-162h-174z" />
<glyph unicode="&#x2019;" horiz-adv-x="387" d="M94 752l99 233h-74v160h176v-160l-100 -233h-101z" />
<glyph unicode="&#x201a;" horiz-adv-x="387" d="M94 -233l109 233h-84v160h176v-160l-100 -233h-101z" />
<glyph unicode="&#x201c;" horiz-adv-x="729" d="M150 745v162l98 234h100l-90 -234h66v-162h-174zM408 745v162l100 234h100l-90 -234h66v-162h-176z" />
<glyph unicode="&#x201d;" horiz-adv-x="729" d="M121 752l90 233h-66v162h177v-162l-101 -233h-100zM381 752l90 233h-65v162h174v-162l-99 -233h-100z" />
<glyph unicode="&#x201e;" horiz-adv-x="710" d="M121 -233l72 233h-68v160h176v-160l-98 -233h-82zM401 -233l70 233h-63v160h174v-160l-99 -233h-82z" />
<glyph unicode="&#x2020;" horiz-adv-x="778" d="M109 731v117l235 -27l-22 320h135l-23 -320l236 27v-117l-236 29l29 -256l-33 -629h-82l-33 629l29 256z" />
<glyph unicode="&#x2021;" horiz-adv-x="778" d="M109 168v115l235 -27l-29 252l29 252l-235 -29v117l235 -27l-22 320h135l-23 -320l236 27v-117l-236 29l29 -252l-29 -252l236 27v-115l-236 25l23 -318h-135l22 318z" />
<glyph unicode="&#x2022;" horiz-adv-x="778" d="M106 563q0 59 22 109.5t60.5 88.5t90 59.5t108.5 21.5q59 0 110.5 -21.5t89.5 -59.5t60.5 -88t22.5 -110q0 -57 -22.5 -109.5t-60.5 -90t-89.5 -60t-110.5 -22.5q-57 0 -108.5 22.5t-90 60t-60.5 90t-22 109.5z" />
<glyph unicode="&#x2026;" horiz-adv-x="1556" d="M170 0v162h180v-162h-180zM690 0v162h180v-162h-180zM1204 0v162h180v-162h-180z" />
<glyph unicode="&#x202f;" horiz-adv-x="327" />
<glyph unicode="&#x2030;" horiz-adv-x="1679" d="M113 768q0 47 17 88t48 71.5t72 49t86 18.5q47 0 89 -18.5t72.5 -49t48 -71.5t17.5 -88t-17.5 -88t-48 -71.5t-72.5 -48t-89 -17.5q-45 0 -86 17.5t-72 48t-48 71.5t-17 88zM209 768q-2 -53 36 -91t91 -38q55 0 93 38t38 91q0 55 -38 92t-93 37q-53 0 -91 -37t-36 -92z M264 -14l549 1024h107l-551 -1024h-105zM616 225q0 47 18.5 88t49.5 72t72 48.5t86 17.5q47 0 88 -17.5t71.5 -48.5t49 -72t18.5 -88q0 -45 -18.5 -86t-49 -71.5t-71.5 -49t-88 -18.5q-45 0 -86 18.5t-72 49t-49.5 71.5t-18.5 86zM715 225q-2 -53 35.5 -91t91.5 -38 q55 0 94 38t37 91q2 53 -37 92t-94 39q-53 0 -91 -39t-36 -92zM1114 225q0 47 18.5 88t49 72t71.5 48.5t86 17.5q47 0 88 -17.5t72 -48.5t49.5 -72t18.5 -88q0 -45 -18.5 -86t-49.5 -71.5t-72 -49t-88 -18.5q-45 0 -86 18.5t-71.5 49t-49 71.5t-18.5 86zM1212 225 q-2 -53 36 -91t91 -38q55 0 94.5 38t36.5 91q2 53 -36.5 92t-94.5 39q-53 0 -91 -39t-36 -92z" />
<glyph unicode="&#x2032;" horiz-adv-x="327" d="M102 719v330h123v-330h-123z" />
<glyph unicode="&#x2033;" horiz-adv-x="460" d="M61 719v330h123v-330h-123zM276 719v330h123v-330h-123z" />
<glyph unicode="&#x2039;" horiz-adv-x="518" d="M98 410l129 233h164l-151 -233l151 -244h-143z" />
<glyph unicode="&#x203a;" horiz-adv-x="518" d="M129 166l152 235l-152 242h141l148 -242l-148 -235h-141z" />
<glyph unicode="&#x2044;" horiz-adv-x="331" d="M-74 0l396 975h84l-396 -975h-84z" />
<glyph unicode="&#x205f;" horiz-adv-x="409" />
<glyph unicode="&#x20a3;" horiz-adv-x="749" d="M14 174v102h109v719h586v-106h-443v-275h381v-106h-381v-232h191v-102h-191v-174h-143v174h-109z" />
<glyph unicode="&#x20ab;" horiz-adv-x="884" d="M57 410q0 195 60.5 305t218.5 110q82 0 141.5 -26.5t100.5 -53.5v179h-164v92h164v108h135v-108h143v-92h-143v-924h-101l-14 94q-47 -47 -104.5 -78.5t-143.5 -31.5q-141 0 -217 101.5t-76 324.5zM78 -150h661v-102h-661v102zM190 393q0 -156 37 -234.5t129 -78.5 q55 0 115.5 31.5t106.5 95.5v438q-35 35 -91.5 60.5t-126.5 25.5q-55 0 -88.5 -20.5t-52 -61.5t-24 -105.5t-5.5 -150.5z" />
<glyph unicode="&#x20ac;" horiz-adv-x="776" d="M-37 307v109h598v-109h-598zM-37 569v109h598v-109h-598zM82 496q0 135 18.5 231t62.5 158.5t116.5 91.5t179.5 29q68 0 144.5 -21.5t131.5 -64.5l-63 -99q-47 41 -100.5 57.5t-114.5 16.5q-72 0 -118 -20.5t-71.5 -67.5t-36 -123t-10.5 -188q0 -113 10.5 -189t36 -123 t71.5 -67.5t118 -20.5q61 0 114.5 16.5t100.5 57.5l63 -98q-55 -43 -132 -64.5t-144 -21.5q-106 0 -179 28.5t-117 91t-62.5 159t-18.5 231.5z" />
<glyph unicode="&#x2113;" horiz-adv-x="428" d="M-10 305l114 76v463q0 156 140 155q49 0 80.5 -26.5t50 -66.5t27 -84t8.5 -81q0 -78 -16.5 -141t-44 -115.5t-62.5 -93.5t-72 -74v-196q0 -23 10.5 -28t26.5 -5q27 0 52.5 9t47.5 20v-99q-23 -14 -59.5 -19t-56.5 -5q-68 0 -100 36t-32 89v141l-63 -43zM215 446 q47 55 67.5 134t20.5 147q0 188 -61 188q-16 0 -21.5 -15t-5.5 -46v-408z" />
<glyph unicode="&#x2122;" horiz-adv-x="1449" d="M61 903v90h498v-90h-190v-551h-111v551h-197zM674 352v641h143l197 -471l190 471h144v-641h-109v469h-4l-201 -469h-47l-201 469h-4v-469h-108z" />
<glyph unicode="&#x2126;" horiz-adv-x="962" d="M72 0v102h221v107q-104 35 -162.5 139.5t-58.5 235.5q0 88 26.5 166.5t78.5 137t128 92.5t176 34t176 -34t128.5 -92.5t79 -137t26.5 -166.5q0 -131 -58.5 -235.5t-162.5 -139.5v-107h221v-102h-348v287q47 10 86 31.5t67.5 56.5t45 86t16.5 123q0 147 -68.5 226 t-208.5 79q-139 0 -207.5 -79t-68.5 -226q0 -72 16.5 -123t45 -86t67.5 -56.5t86 -31.5v-287h-348z" />
<glyph unicode="&#x212e;" horiz-adv-x="991" d="M102 446q0 125 30 219.5t82 157t124 94t158 31.5q197 0 291 -125t94 -391h-645q0 -70 18 -133t53 -112.5t87 -78t122 -28.5q78 0 147.5 33.5t129.5 128.5l96 -60q-66 -109 -165 -153.5t-216 -44.5q-80 0 -152.5 32.5t-129 92t-90.5 145.5t-34 192zM236 528h509 q-6 92 -23 154.5t-48 100.5t-76 54.5t-106 16.5q-123 0 -188.5 -92.5t-67.5 -233.5z" />
<glyph unicode="&#x2202;" horiz-adv-x="778" d="M57 406q0 90 16.5 166.5t55.5 133t102.5 88t157.5 31.5q47 0 79 -9t62 -25l5 4q-8 20 -32 49.5t-59.5 62.5t-82 66t-101.5 59l94 92q117 -80 188.5 -168t111.5 -179t53.5 -184t13.5 -187q0 -90 -16.5 -168t-54.5 -134.5t-101.5 -88t-159.5 -31.5q-94 0 -157.5 31.5 t-102.5 88t-55.5 134.5t-16.5 168zM190 406q0 -82 7.5 -143.5t29 -102.5t60.5 -60.5t102 -19.5t102 19.5t60.5 60.5t29 102.5t7.5 143.5t-7.5 143t-29 101t-60 60.5t-102.5 20.5q-63 0 -102 -20.5t-60.5 -60.5t-29 -101t-7.5 -143z" />
<glyph unicode="&#x2206;" horiz-adv-x="796" d="M0 0l328 995h123l327 -995h-778zM154 102h471l-236 740z" />
<glyph unicode="&#x220f;" horiz-adv-x="962" d="M49 897v98h832v-98l-82 -10v-887h-135v883h-396v-883h-135v887z" />
<glyph unicode="&#x2211;" horiz-adv-x="899" d="M72 0v154l342 358l-334 334v149h717v-102h-586l326 -328v-94l-351 -369h641v-102h-755z" />
<glyph unicode="&#x2212;" horiz-adv-x="823" d="M53 367v112h680v-112h-680z" />
<glyph unicode="&#x221a;" horiz-adv-x="792" d="M51 410l10 102h179l145 -365l244 760h112l-307 -907h-94l-164 410h-125z" />
<glyph unicode="&#x221e;" horiz-adv-x="1142" d="M82 453q0 98 64.5 162.5t162.5 64.5q45 0 86 -21.5t76 -52.5t62.5 -61.5t44.5 -48.5q57 84 119.5 134t133.5 50q47 0 89.5 -15.5t73 -46t49 -76.5t18.5 -110q0 -98 -64.5 -162.5t-162.5 -64.5q-45 0 -86 21.5t-77 51t-63.5 61.5t-44.5 52q-55 -86 -117.5 -136t-134.5 -50 q-94 0 -161.5 61.5t-67.5 186.5zM186 451q0 -33 11.5 -62t30 -49.5t41 -31.5t44.5 -11q35 0 64 14.5t53.5 37t45 50t34.5 54.5q-55 59 -99 98t-100 39q-53 0 -89 -36.5t-36 -102.5zM633 432q55 -59 99 -98t99 -39q27 0 49.5 12t40 32.5t26.5 45.5t9 49q0 82 -39.5 118 t-87.5 36q-33 0 -62.5 -14.5t-54 -37t-45 -50t-34.5 -54.5z" />
<glyph unicode="&#x222b;" horiz-adv-x="495" d="M-18 -201l10 107q10 -2 30.5 -3t30.5 -1q57 0 88 22.5t31 95.5v785q0 92 44 137t126 45h27q18 0 38.5 -1t39 -2t28.5 -3l-14 -104q-10 2 -28 2h-25q-61 0 -82 -22.5t-21 -76.5l-2 -803q0 -47 -20.5 -82.5t-52 -59t-69.5 -35t-75 -11.5q-23 0 -52 2t-52 8z" />
<glyph unicode="&#x2248;" horiz-adv-x="804" d="M59 248q23 41 66 77.5t121 36.5q35 0 73.5 -14t77.5 -30.5t78 -31t72 -14.5q45 0 71.5 30t53.5 67l71 -80q-12 -20 -27.5 -43t-38 -41.5t-52 -29.5t-68.5 -11q-33 0 -73 14.5t-81 32.5t-79.5 32.5t-71.5 14.5q-45 0 -79 -26.5t-44 -63.5zM61 528q23 41 66 78t121 37 q35 0 73.5 -14.5t77.5 -30.5t78 -30.5t72 -14.5q45 0 71.5 29.5t53.5 66.5l71 -80q-12 -20 -27.5 -42.5t-38 -41t-52 -30t-68.5 -11.5q-33 0 -73 14.5t-80.5 33t-79.5 33t-72 14.5q-45 0 -79 -27t-44 -63z" />
<glyph unicode="&#x2260;" horiz-adv-x="790" d="M66 221v109h245l105 202h-350v109h397l129 229h74l-129 -229h188v-109h-236l-104 -202h340v-109h-385l-125 -221h-74l125 221h-200z" />
<glyph unicode="&#x2264;" horiz-adv-x="933" d="M61 0v104h811v-104h-811zM61 459v110l809 271v-119l-677 -209l677 -219v-117z" />
<glyph unicode="&#x2265;" horiz-adv-x="933" d="M61 0v104h811v-104h-811zM63 176v117l678 219l-678 209v119l809 -271v-110z" />
<glyph unicode="&#x25ca;" horiz-adv-x="743" d="M92 500l238 381h88l233 -381l-233 -385h-88zM223 500l150 -275l151 275l-151 270z" />
<glyph unicode="&#x25cc;" horiz-adv-x="1107" d="M90 504q0 25 14.5 41t38.5 16q27 0 42.5 -16.5t15.5 -40.5q0 -23 -15.5 -38t-42.5 -15q-25 0 -39 15t-14 38zM121 354q0 23 15.5 38.5t39.5 15.5q25 0 40 -15.5t15 -38.5q0 -25 -15 -41t-40 -16t-40 16t-15 41zM121 653q0 25 15.5 41.5t39.5 16.5q25 0 40 -16.5t15 -41.5 q0 -23 -15 -38t-40 -15t-40 15t-15 38zM207 217q0 25 14.5 40t38.5 15q25 0 41 -15t16 -40q0 -23 -16 -39t-41 -16t-39 16t-14 39zM207 788q0 25 14.5 41.5t38.5 16.5q25 0 41 -16.5t16 -41.5q0 -23 -16 -38t-41 -15t-39 15t-14 38zM338 133q0 25 14.5 40t38.5 15 q25 0 40 -15t15 -40t-15 -41t-40 -16t-39 16t-14 41zM338 874q0 25 14.5 41.5t38.5 16.5q25 0 40 -16.5t15 -41.5q0 -27 -15 -41t-40 -14q-53 0 -53 55zM489 104q0 25 15.5 40.5t40.5 15.5t41 -15.5t16 -40.5t-16.5 -40t-40.5 -15q-25 0 -40.5 15t-15.5 40zM489 903 q0 23 15.5 39t40.5 16t41 -16t16 -39q0 -25 -16.5 -41t-40.5 -16q-25 0 -40.5 16t-15.5 41zM643 874q0 25 15.5 41.5t39.5 16.5q25 0 40.5 -16.5t15.5 -41.5q0 -27 -15.5 -41t-40.5 -14t-40 14t-15 41zM645 133q0 25 15.5 40t39.5 15q25 0 40.5 -15t15.5 -40t-15.5 -41 t-40.5 -16t-40 16t-15 41zM774 788q0 25 13.5 41.5t41.5 16.5q25 0 39.5 -16.5t14.5 -41.5q0 -23 -14.5 -38t-39.5 -15q-29 0 -42 15t-13 38zM776 217q0 25 15.5 40t39.5 15q25 0 39.5 -15t14.5 -40q0 -23 -14.5 -39t-39.5 -16t-40 16t-15 39zM856 653q0 25 16.5 41.5 t42.5 16.5q23 0 38.5 -16.5t15.5 -41.5q0 -23 -15.5 -38t-38.5 -15q-27 0 -43 15t-16 38zM860 354q0 23 15.5 38.5t42.5 15.5q23 0 38 -15.5t15 -38.5q0 -25 -15.5 -41t-37.5 -16q-27 0 -42.5 16t-15.5 41zM893 504q0 25 14.5 41t36.5 16q25 0 41 -16.5t16 -40.5 q0 -23 -16 -38t-41 -15q-23 0 -37 15t-14 38z" />
<glyph unicode="&#xe000;" horiz-adv-x="810" d="M0 810h810v-810h-810v810z" />
<glyph unicode="&#xf700;" horiz-adv-x="837" d="M109 635q0 84 46 128t121 44q14 0 40 -2t58 -5t65.5 -5t62.5 -2q37 0 76.5 5t72.5 11l74 16q4 -20 10 -39q10 -35 10 -57q0 -12 -18 -20q-23 -6 -83 -12.5t-120 -6.5q-27 0 -56.5 4t-58 8.5t-52 8.5t-35.5 4q-59 0 -79 -15.5t-20 -62.5q0 -23 10.5 -31t51.5 -8t104.5 8 t134.5 8q53 0 95.5 -16t71 -44t43 -62.5t14.5 -73.5q0 -29 -6.5 -73t-15.5 -96t-17.5 -109.5t-12.5 -112.5q0 -10 -23.5 -17.5t-57 -10.5t-72.5 -2t-73 4t-55.5 10t-21.5 18q4 84 5 144t-6 101t-26.5 60.5t-56.5 19.5q-29 0 -48 -18.5t-19 -44.5q0 -23 16 -43.5t47 -20.5h62 v-34l-62 -37q-61 0 -99 36.5t-38 98.5q0 61 40 99t101 38q66 0 103 -22.5t54 -66.5t20 -106.5t-1 -142.5q0 -6 15.5 -10t35 -4t36 4t16.5 12q8 92 22.5 167t14.5 147q0 20 -6.5 40.5t-26 37t-59 26.5t-107.5 10q-63 0 -118.5 -8t-96.5 -8q-59 0 -80.5 38t-21.5 93z" />
<glyph unicode="&#xf701;" d="M-928 948q2 37 15.5 81t46 81t88 61.5t141.5 24.5q94 0 158.5 -25.5t103.5 -66.5t56.5 -91t17.5 -100q0 -18 -21 -18q-18 0 -72.5 8t-134 16.5t-176 12.5t-196.5 -6q-12 -2 -19.5 2t-7.5 20zM-827 1008q117 10 217 -1.5t211 -25.5q-12 59 -66.5 94t-177.5 35 q-55 0 -91 -10t-56.5 -25.5t-28.5 -34t-8 -32.5z" />
<glyph unicode="&#xf702;" d="M-928 948q2 37 14.5 81t43 81t84 61.5t139.5 24.5q96 0 151.5 -27.5t77.5 -56.5q-4 12 -6 25q-2 10 -3 24.5t-1 30.5v61h109v-237q6 -18 12 -49t6 -54q0 -18 -21 -18q-18 0 -72.5 8t-134 16.5t-176 12.5t-196.5 -6q-12 -2 -19.5 2t-7.5 20zM-827 1008q117 10 217 -1.5 t211 -25.5q-20 51 -83 90t-171 39q-55 0 -89 -10t-53.5 -25.5t-25.5 -34t-6 -32.5z" />
<glyph unicode="&#xf703;" d="M-928 948q2 37 12.5 81t39 81t81 61.5t138.5 24.5q45 0 78.5 -6t56.5 -16q27 -10 45 -23q-12 51 23.5 93t88.5 42q49 0 82 -32.5t33 -86.5q0 -43 -28.5 -74.5t-63.5 -37.5q23 -31 32 -70t9 -72q0 -18 -21 -18q-18 0 -72.5 8t-134 16.5t-176 12.5t-196.5 -6 q-12 -2 -19.5 2t-7.5 20zM-827 1008q117 10 217 -1.5t211 -25.5q-14 31 -34 54.5t-50.5 40t-74.5 25.5t-106 9q-55 0 -87.5 -10t-49 -25.5t-21.5 -34t-5 -32.5zM-420 1167q0 -25 14.5 -43t40.5 -18q27 0 42.5 18.5t15.5 42.5q0 25 -15.5 43.5t-42.5 18.5t-41 -18.5 t-14 -43.5z" />
<glyph unicode="&#xf704;" d="M-928 948q2 37 12.5 81t39 81t81 61.5t138.5 24.5q20 0 46.5 -4t45.5 -12v73h98v-98q25 -10 39 -23.5t31 -31.5q-4 8 -6 18t-3.5 24.5t-1.5 33.5v77h109v-237q6 -18 12 -49t6 -54q0 -18 -20 -18q-18 0 -76.5 8t-141.5 16.5t-182.5 12.5t-199.5 -6q-12 -2 -19.5 2t-7.5 20 zM-827 1008q117 10 227.5 -1.5t220.5 -25.5q-6 18 -31.5 40.5t-63.5 42t-87 33t-103 13.5q-55 0 -87.5 -10t-49 -25.5t-21.5 -34t-5 -32.5z" />
<glyph unicode="&#xf705;" d="M-531 1102v119h135v-119l-18 -160h-98z" />
<glyph unicode="&#xf706;" d="M-749 1157q0 47 32.5 75t77.5 25q61 -2 87 -35.5t26 -70.5q0 -33 -12.5 -58.5t-29.5 -44t-37.5 -28.5t-35.5 -14q12 2 25 6q10 4 20.5 5t20.5 3q35 8 67.5 19.5t59 36t48 65.5t34.5 108h108q-20 -102 -60 -160.5t-89 -88t-103.5 -38t-103.5 -8.5q-33 0 -68 3.5t-61 9.5 q0 12 2 24q2 10 3 20.5t5 20.5q6 -2 15 -2h14q35 0 64.5 33t29.5 86q0 20 -10.5 37.5t-32.5 17.5q-41 0 -41 -49q0 -16 18 -35l23 -20l-16 -21l-43 8q-37 33 -37 70z" />
<glyph unicode="&#xf707;" d="M-793 1083q0 43 12.5 73t32.5 48.5t44 26.5t48 8q18 0 32.5 -8t24.5 -19q12 -12 21 -28q8 14 20 26q10 10 24.5 18.5t37.5 8.5q55 0 74.5 -37t19.5 -80q0 -33 -6 -46t-14 -34q14 12 30.5 37t28.5 57.5t15 70.5t-5 73h97q16 0 18 -7t2 -18q0 -51 -19.5 -98t-47 -86 t-59.5 -65.5t-58 -38.5h-74q-10 0 -6 12q4 16 5 45t1 57q0 47 -9 62.5t-24 15.5q-27 0 -53 -51q-10 25 -24.5 40t-41.5 15q-25 0 -46 -18.5t-21 -81.5q0 -20 7 -43t36 -23q35 0 35 45q0 18 -19 37l-22 21l16 20l43 -8q37 -33 37 -70q0 -47 -25.5 -72.5t-70.5 -25.5 q-53 2 -85 35.5t-32 105.5z" />
<glyph unicode="&#xf708;" d="M-709 1040v88h113v101h133v-101h112v-88h-116l-13 -110h-98l-12 110h-119z" />
<glyph unicode="&#xf709;" d="M-604 1069q0 57 26 88t58 47q59 29 100.5 73t41.5 107q14 -2 32 -4q16 -2 35 -5t37 -11q6 -2 10 -4t0 -19q-8 -43 -28.5 -72.5t-49 -52t-64.5 -42t-75 -37.5q-23 -12 -29 -27.5t-6 -34.5q0 -57 52 -57q25 0 40 13t15 38q0 10 -3 25.5t-30 38.5l21 16l43 -6q16 -16 22 -36 t6 -42q0 -49 -34.5 -83t-92.5 -32q-57 2 -92 37t-35 82z" />
<glyph unicode="&#xf70a;" d="M-248 1102v119h135v-119l-18 -160h-98z" />
<glyph unicode="&#xf70b;" d="M-610 1157q0 47 32.5 75t77.5 25q61 -2 87 -35.5t26 -70.5q0 -33 -12.5 -58.5t-29.5 -44t-37.5 -28.5t-35.5 -14q12 2 25 6q10 4 20.5 5t20.5 3q35 8 67.5 19.5t59 36t48 65.5t34.5 108h108q-20 -102 -60 -160.5t-89 -88t-103.5 -38t-103.5 -8.5q-33 0 -68 3.5t-61 9.5 q0 12 2 24q2 10 3 20.5t5 20.5q6 -2 15 -2h14q35 0 64.5 33t29.5 86q0 20 -10.5 37.5t-32.5 17.5q-41 0 -41 -49q0 -16 18 -35l23 -20l-16 -21l-43 8q-37 33 -37 70z" />
<glyph unicode="&#xf70c;" d="M-643 1083q0 43 12.5 73t32.5 48.5t44 26.5t48 8q18 0 32.5 -8t24.5 -19q12 -12 21 -28q8 14 20 26q10 10 24.5 18.5t37.5 8.5q55 0 74.5 -37t19.5 -80q0 -33 -6 -46t-14 -34q14 12 30.5 37t28.5 57.5t15 70.5t-5 73h97q16 0 18 -7t2 -18q0 -51 -19.5 -98t-47 -86 t-59.5 -65.5t-58 -38.5h-74q-10 0 -6 12q4 16 5 45t1 57q0 47 -9 62.5t-24 15.5q-27 0 -53 -51q-10 25 -24.5 40t-41.5 15q-25 0 -46 -18.5t-21 -81.5q0 -20 7 -43t36 -23q35 0 35 45q0 18 -19 37l-22 21l16 20l43 -8q37 -33 37 -70q0 -47 -25.5 -72.5t-70.5 -25.5 q-53 2 -85 35.5t-32 105.5z" />
<glyph unicode="&#xf70d;" d="M-385 1040v88h113v101h133v-101h112v-88h-116l-13 -110h-98l-12 110h-119z" />
<glyph unicode="&#xf70e;" d="M-414 1069q0 57 26 88t58 47q59 29 100.5 73t41.5 107q14 -2 32 -4q16 -2 35 -5t37 -11q6 -2 10 -4t0 -19q-8 -43 -28.5 -72.5t-49 -52t-64.5 -42t-75 -37.5q-23 -12 -29 -27.5t-6 -34.5q0 -57 52 -57q25 0 40 13t15 38q0 10 -3 25.5t-30 38.5l21 16l43 -6q16 -16 22 -36 t6 -42q0 -49 -34.5 -83t-92.5 -32q-57 2 -92 37t-35 82z" />
<glyph unicode="&#xf70f;" horiz-adv-x="1357" d="M92 653q0 18 25.5 49t70.5 60t107.5 49t136.5 20q70 0 132.5 -14t110.5 -51t75.5 -99.5t27.5 -156.5q0 -25 -1 -59l-2 -70q-1 -35 -2 -67.5t-1 -53.5q0 -49 5 -76.5t22 -48.5q49 -55 149 -55t150 55q16 20 22 40t6 61q0 35 -2 96t-2 112v375h123v-549q0 -78 -8 -122 t-37 -76q-25 -27 -56.5 -44.5t-66.5 -25.5t-67.5 -11t-61.5 -3q-27 0 -60.5 3t-68.5 11t-66.5 25.5t-56.5 44.5q-27 31 -34 82t-7 116v240q0 80 -13 125t-41 68.5t-70 29.5t-99 6q-51 0 -91 -9t-68.5 -22.5t-44 -26.5t-15.5 -24q0 -6 7 -16t18.5 -21.5t21.5 -18.5t16 -7 q16 0 35 13.5t37 13.5q6 0 17.5 -13.5t21.5 -30t14.5 -29.5t-4.5 -13q-31 0 -56.5 -5.5t-43.5 -23t-28.5 -51t-10.5 -90.5v-207q0 -47 18.5 -73t49.5 -26q35 0 53 22.5t18 53.5t-17.5 52.5t-47.5 21.5h-58v33l58 39q59 0 99 -42t40 -104q0 -61 -42 -104t-103 -43 q-35 0 -69 12t-61.5 36.5t-44 61.5t-16.5 86v181q0 78 15.5 113.5t50.5 70.5q-8 4 -25.5 16.5t-36 27.5t-33 31.5t-14.5 28.5z" />
<glyph unicode="&#xf710;" d="M-713 1092q0 61 39 96t84 35q49 0 85 -31t36 -90l-33 -60h-33v54q0 29 -13 41t-30 12q-49 0 -49 -53q0 -35 32 -57.5t91 -22.5q41 0 86 7t86 26.5t75 54.5t54 88l121 -18q-20 -57 -60 -101.5t-93.5 -75t-117 -46t-130.5 -15.5q-109 0 -169.5 42t-60.5 114z" />
<glyph unicode="&#xf711;" d="M-604 1094q0 57 40 97t97 40t97 -40t40 -97t-40 -97.5t-97 -40.5t-97 40.5t-40 97.5zM-522 1094q0 -23 16.5 -39.5t38.5 -16.5q23 0 39 16.5t16 39.5t-16 39t-39 16t-39 -16t-16 -39z" />
<glyph unicode="&#xf712;" d="M-805 1122q0 55 16.5 93t43 61.5t61.5 35t70 11.5q41 0 68.5 -5t49.5 -5q78 0 109 29.5t39 87.5q18 2 39.5 -5.5t38 -17.5t25.5 -21.5t5 -19.5q-23 -49 -51 -76.5t-60 -40t-66 -15.5t-68 -3q-47 0 -80 4t-62 4q-33 0 -58.5 -32.5t-25.5 -80.5q0 -45 15.5 -67.5 t29.5 -32.5l74 94q29 -47 57.5 -79.5t79.5 -32.5q53 0 73 20.5t20 61.5q0 55 -46 55q-41 0 -41 -49q0 -10 5.5 -16.5t13.5 -14.5l22 -21l-16 -20l-43 8q-16 16 -26.5 30.5t-10.5 35.5q0 47 30 73.5t75 26.5q53 -2 80.5 -33.5t27.5 -83.5q0 -68 -47 -104.5t-106 -36.5 q-104 0 -154 72l-43 -66h-53q-18 4 -38 19.5t-36 40t-26.5 54t-10.5 62.5z" />
<glyph unicode="&#xf713;" d="M-411 1491v119h115v-119l-19 -160h-78z" />
<glyph unicode="&#xf714;" d="M-559 1315q0 10 2 20t3 19.5t5 19.5q6 -2 12 -1t10 1q53 4 85 35t32 84q0 20 -10 37.5t-33 17.5q-41 0 -41 -49q0 -16 19 -35l22 -20l-16 -21l-43 9q-37 33 -37 69q0 47 30.5 74t75.5 27q53 -2 82 -36t29 -71q0 -33 -13.5 -58.5t-33 -44t-41 -28.5t-35.5 -14q12 2 25 6 q10 4 20 5t21 3q35 8 65.5 19.5t57 36t47 66.5t36.5 111h89q-20 -106 -57.5 -165.5t-83.5 -88t-96 -36t-99 -7.5q-33 0 -67.5 4.5t-61.5 10.5z" />
<glyph unicode="&#xf715;" d="M-659 1421q0 43 12 74t32.5 50.5t44 28.5t48.5 9q27 0 45.5 -8t30.5 -19q14 -12 22 -28q8 14 21 26q10 10 24.5 18.5t36.5 8.5q55 0 74.5 -40t19.5 -83q0 -33 -6 -56.5t-14 -43.5q14 12 32.5 39.5t32 64.5t18.5 78t-3 76h86q16 0 18 -7t2 -18q0 -51 -20.5 -98t-51 -86 t-64.5 -65.5t-60 -38.5h-54q-10 0 -6 12q4 16 6.5 45t2.5 57q0 90 -33 90q-20 0 -35.5 -20.5t-28.5 -42.5q-10 25 -30.5 46t-55.5 21q-41 0 -59.5 -24.5t-18.5 -87.5q0 -20 8.5 -43t36.5 -23q39 0 39 45q0 18 -18 37l-23 21l17 20l43 -8q37 -33 37 -70q0 -47 -25.5 -72.5 t-71.5 -25.5q-53 2 -82.5 35.5t-29.5 105.5z" />
<glyph unicode="&#xf716;" d="M-524 1434v77h113v107h112v-107h113v-77h-117l-12 -115h-78l-12 115h-119z" />
<glyph unicode="&#xf717;" d="M-471 1376q0 47 26.5 77t59.5 46q59 31 81.5 58.5t22.5 80.5h88q6 0 10 -3t0 -19q-6 -35 -16 -58.5t-28.5 -41t-45 -34t-65.5 -34.5q-51 -27 -51 -72q0 -25 14 -40t37 -15t38 13.5t15 37.5q0 10 -3 25.5t-30 38.5l21 16l43 -6q16 -16 22 -33.5t6 -40.5q0 -51 -29.5 -85 t-88.5 -34q-57 0 -92 35t-35 88z" />
<glyph unicode="&#xf718;" d="M-344 -516q0 47 34 75.5t93 28.5q61 0 92 -30.5t31 -77.5q0 -18 -1 -31.5t-3 -25t-3 -24.5t-1 -34v-123h-129v125q0 20 5 33.5t12 26t12 23.5t5 28q0 25 -12 41t-35 16t-35 -14.5t-12 -36.5q0 -20 11.5 -31.5t21.5 -15.5l22 -10l-10 -23l-39 -2q-27 6 -43 27.5t-16 54.5z " />
<glyph unicode="&#xf719;" d="M-569 -514q0 47 38.5 74.5t84.5 27.5q53 -2 79.5 -35.5t26.5 -70.5q0 -16 -5 -30.5t-11 -30t-11.5 -36t-5.5 -51.5q0 -18 24.5 -24t41.5 -6q16 0 40.5 6t24.5 24v256h129v-264q0 -23 -20.5 -36t-50 -19t-61 -7t-54.5 -1q-25 0 -55.5 1t-59 7t-48 19.5t-19.5 35.5v37 q0 20 9 32.5t20.5 24t20.5 24.5t9 36q0 20 -10 37.5t-33 17.5q-51 0 -51 -51q0 -18 18 -37l23 -20l-17 -21l-43 8q-34 31 -34 72z" />
<glyph unicode="&#xf71a;" d="M-262 -492q0 35 25.5 58.5t60.5 23.5t60.5 -23.5t25.5 -58.5t-25.5 -58t-60.5 -23t-60.5 23t-25.5 58z" />
<glyph unicode="&#xf71b;" horiz-adv-x="960" d="M72 135q0 61 36.5 102.5t94.5 41.5l47 -35v-33h-47q-31 0 -44.5 -22.5t-13.5 -53.5t18.5 -53.5t53.5 -22.5q31 0 51.5 23.5t20.5 71.5q0 45 -15.5 98t-15.5 106q0 66 5 112t38 79q-8 4 -25.5 16.5t-36 27.5t-32.5 31.5t-14 28.5q0 18 25.5 49t70.5 60t107.5 49t135.5 20 q70 0 134.5 -14t113.5 -51t79 -99.5t30 -156.5v-879h-139q-16 27 -50 68t-86 70q-25 -53 -79 -97.5t-123 -44.5q-59 0 -101.5 30t-42.5 107q0 139 166 140q39 0 71 -8.5t62 -20.5q6 14 9.5 27.5t7.5 23.5q4 12 4 25l33 -8q14 -4 27.5 -8.5t21.5 -10.5q4 -4 4 -11t-2 -13 q-4 -8 -12.5 -27.5t-14.5 -34.5q39 -23 72 -46t51 -46v68q0 43 -1 128t-1 221v347q0 80 -15.5 125t-45 68.5t-72.5 29.5t-101 6q-51 0 -91 -9t-68.5 -22.5t-44 -26.5t-15.5 -24q0 -6 9.5 -18t21.5 -24.5t24.5 -21.5t18.5 -9q16 0 34.5 13t37.5 13q6 0 14 -10t14.5 -22.5 t7.5 -22.5t-8 -10q-31 0 -51 -6.5t-32.5 -25.5t-18.5 -55t-6 -93q0 -70 6 -120t6 -95q0 -78 -46 -120t-118 -42q-78 0 -116.5 43t-38.5 104zM352 -240q0 -49 58 -49q47 0 77.5 26.5t53.5 63.5q-27 10 -48.5 15.5t-50.5 5.5q-49 0 -69.5 -14.5t-20.5 -47.5z" />
<glyph unicode="&#xf71c;" horiz-adv-x="960" d="M72 135q0 61 36.5 102.5t94.5 41.5l47 -35v-33h-47q-31 0 -44.5 -22.5t-13.5 -53.5t18.5 -53.5t53.5 -22.5q31 0 51.5 23.5t20.5 71.5q0 45 -15.5 98t-15.5 106q0 66 5 112t38 79q-8 4 -25.5 16.5t-36 27.5t-32.5 31.5t-14 28.5q0 18 25.5 49t70.5 60t107.5 49t135.5 20 q70 0 134.5 -14t113.5 -51t79 -99.5t30 -156.5l-2 -899h-129l-101 72l-96 -68l-74 78q-33 -35 -65.5 -54.5t-73.5 -19.5q-53 0 -93 34t-40 105q0 45 12.5 73t32 43t43 21.5t45.5 6.5q41 0 73 -22.5t50 -41.5q8 18 12 48t4 46q16 0 31 -2q12 -2 26.5 -6t22.5 -8t8 -11t-2 -18 q-2 -14 -9 -33.5t-13 -37.5q-8 -23 -16 -43l34 -43l86 57l113 -61v71q0 47 -1 135t-1 228v350q0 80 -15.5 125t-45 68.5t-72.5 29.5t-101 6q-51 0 -91 -9t-68.5 -22.5t-44 -26.5t-15.5 -24q0 -6 9.5 -18t21.5 -24.5t24.5 -21.5t18.5 -9q16 0 34.5 13t37.5 13q6 0 17 -13 t21.5 -29.5t14.5 -30t-4 -13.5q-31 0 -54.5 -3t-40 -18.5t-25.5 -48t-9 -89.5q0 -70 6 -120t6 -95q0 -78 -46 -120t-118 -42q-61 0 -108 43t-47 104zM299 -240q0 -57 55 -57q45 0 86 57q-27 29 -45 43.5t-43 14.5q-53 -1 -53 -58z" />
<glyph unicode="&#xf71d;" horiz-adv-x="1007" d="M72 686q0 61 49 104.5t110 43.5q72 0 116 -42t44 -120q0 -23 -3 -44.5t-8 -47t-8 -57t-3 -74.5q0 -25 -1 -58l-2 -65q-1 -33 -2.5 -64t-1.5 -51q33 68 76 131.5t84 112.5q47 57 96 108q51 -51 99 -110q41 -51 83 -116t70 -136q-4 43 -6 97t-2 105q0 41 5 76t7 62 q-37 -6 -67.5 7t-53 39.5t-34.5 62.5t-12 73q0 41 14 69.5t36.5 46t49.5 25.5t49 8q63 0 103 -40.5t36 -112.5l-12 -88q29 14 61.5 55t45.5 88q18 -10 32 -20q12 -10 25.5 -19.5t19.5 -19.5q8 -10 -6 -29q-27 -35 -79 -73t-99 -56q0 -18 -2 -59q-2 -35 -3 -97.5t-1 -164.5 q0 -70 4 -123.5t8 -83.5q4 -20 -1 -24.5t-13 -4.5h-117v20q0 51 -37 125t-82 144q-53 82 -121 170q-70 -88 -124 -170q-47 -70 -86 -143.5t-39 -125.5v-20h-117q-8 0 -13.5 4t-0.5 25q4 16 6 30.5t3 38t2 64.5t1 108v185q0 39 6 68.5t13 54t13.5 46t6.5 44.5 q0 47 -18.5 70.5t-49.5 23.5q-35 0 -55.5 -22.5t-20.5 -53.5t16.5 -53.5t47.5 -22.5h47v-32l-47 -39q-59 0 -98 43t-39 104zM776 721q0 -47 25.5 -82t77.5 -23q2 16 3 53.5t1 51.5q0 51 -12.5 65.5t-34.5 14.5q-23 0 -41.5 -17.5t-18.5 -62.5z" />
<glyph horiz-adv-x="714" d="M-604 1094q0 57 40 97t97 40t97 -40t40 -97t-40 -97.5t-97 -40.5t-97 40.5t-40 97.5zM-522 1094q0 -23 16.5 -39.5t38.5 -16.5q23 0 39 16.5t16 39.5t-16 39t-39 16t-39 -16t-16 -39zM0 668q18 27 53 55.5t77 53t87 39.5t84 15q57 0 110.5 -14t95.5 -45t66.5 -81 t24.5 -122q0 -66 -4 -124t-4 -121v-66q0 -43 2 -89t4 -85t4 -55q4 -20 -1 -24.5t-13 -4.5h-121v313q0 66 5 115t5 121q0 68 -20.5 105.5t-48 56t-54 23.5t-39.5 5q-37 0 -64.5 -9t-52 -27.5t-48 -43t-50.5 -55.5q-4 -6 -16 -2t-27.5 14.5t-30 25t-24.5 26.5z" />
<glyph d="M-596 1018q0 35 14 59.5t33.5 41t41 26.5t38.5 15q-23 0 -45.5 18t-22.5 45q0 37 26.5 63.5t68.5 42t91.5 20.5t94.5 -3q10 -2 17 -4t7 -17q0 -16 -10 -43q-6 -14 -10 -28q-27 12 -60.5 16t-64.5 0t-51.5 -15t-20.5 -34q0 -12 11.5 -18.5t26.5 -9.5t32.5 -2t30.5 3 q2 -14 2 -26q0 -10 -3.5 -23.5t-13.5 -23.5q-6 2 -20 2h-19q-35 0 -71.5 -24.5t-36.5 -78.5q0 -20 12 -37.5t35 -17.5q18 0 31.5 12.5t13.5 36.5q0 16 -18 35l-23 20l16 21l43 -8q37 -33 37 -70q0 -47 -32.5 -73.5t-77.5 -26.5q-61 0 -92 34.5t-31 71.5z" />
</font>
</defs>
</svg>
